<?xml version="1.0" encoding="utf-8"?>
<!-- Generator: Adobe Illustrator 22.1.0, SVG Export Plug-In . SVG Version: 6.00 Build 0)  -->
<svg version="1.1" id="Layer_1" xmlns="http://www.w3.org/2000/svg" xmlns:xlink="http://www.w3.org/1999/xlink" x="0px" y="0px"
	 viewBox="0 0 525.1 525.1" style="enable-background:new 0 0 525.1 525.1;" xml:space="preserve">
<style type="text/css">
	.st0{fill:#E65064;}
	.st1{fill:#FFFFFF;}
</style>
<rect class="st0" width="525.1" height="525.1"/>
<g>
	<path class="st1" d="M238.8,192.7v203.4c0,1.2,1,2.2,2.2,2.2h43.1c1.2,0,2.2-1,2.2-2.2V192.7c0-1.2,1-2.2,2.2-2.2h57.7
		c1.5,0,2.5-1.4,2.1-2.8l-12.2-41.4c-0.3-0.9-1.1-1.6-2.1-1.6H191.1c-1,0-1.8,0.6-2.1,1.6l-12.2,41.4c-0.4,1.4,0.6,2.8,2.1,2.8h57.7
		C237.8,190.5,238.8,191.5,238.8,192.7z M203.3,171.1l2-7.5c0.1-0.3,0.4-0.6,0.7-0.6h113.1c0.3,0,0.6,0.2,0.7,0.6l2,7.5
		c0.1,0.5-0.2,1-0.7,1h-53.4c-0.4,0-0.8,0.3-0.8,0.8v206.6c0,0.4-0.3,0.8-0.8,0.8H259c-0.4,0-0.8-0.3-0.8-0.8V172.8
		c0-0.4-0.3-0.8-0.8-0.8H204C203.5,172,203.2,171.5,203.3,171.1z"/>
</g>
</svg>
