<?xml version="1.0" encoding="utf-8"?>
<!-- Generator: Adobe Illustrator 22.1.0, SVG Export Plug-In . SVG Version: 6.00 Build 0)  -->
<svg version="1.1" id="Layer_1" xmlns="http://www.w3.org/2000/svg" xmlns:xlink="http://www.w3.org/1999/xlink" x="0px" y="0px"
	 viewBox="0 0 383.9 108.5" style="enable-background:new 0 0 383.9 108.5;" xml:space="preserve">
<style type="text/css">
	.st0{fill:#E65064;}
	.st1{fill:#FFFFFF;}
</style>
<g>
	<path class="st1" d="M26.5,22.9v81.8c0,0.5,0.4,0.9,0.9,0.9h17.3c0.5,0,0.9-0.4,0.9-0.9V22.9c0-0.5,0.4-0.9,0.9-0.9h23.2
		c0.6,0,1-0.6,0.9-1.1L65.6,4.2c-0.1-0.4-0.5-0.6-0.9-0.6H7.3c-0.4,0-0.7,0.3-0.9,0.6L1.5,20.9C1.4,21.5,1.8,22,2.4,22h23.2
		C26.1,22,26.5,22.4,26.5,22.9z M12.2,14.2l0.8-3c0-0.1,0.2-0.2,0.3-0.2h45.4c0.1,0,0.3,0.1,0.3,0.2l0.8,3c0.1,0.2-0.1,0.4-0.3,0.4
		H38.1c-0.2,0-0.3,0.1-0.3,0.3v83.1c0,0.2-0.1,0.3-0.3,0.3h-2.9c-0.2,0-0.3-0.1-0.3-0.3V14.9c0-0.2-0.1-0.3-0.3-0.3H12.5
		C12.3,14.6,12.1,14.4,12.2,14.2z"/>
	<path class="st1" d="M111.1,104.6c0.1,0.4,0.5,0.6,0.8,0.6h18.5c0.4,0,0.7-0.2,0.8-0.6l32-100.2c0.2-0.6-0.2-1.2-0.8-1.2h-18.6
		c-0.4,0-0.7,0.3-0.8,0.6L121.6,75c-0.1,0.3-0.5,0.3-0.6,0L99.5,3.8c-0.1-0.4-0.5-0.6-0.8-0.6H80c-0.6,0-1,0.6-0.8,1.2L111.1,104.6z
		 M89.3,11h3c0.1,0,0.2,0.1,0.3,0.2l26.9,83.6c0,0.1,0.2,0.2,0.3,0.2h2.9c0.1,0,0.2-0.1,0.3-0.2l26.9-83.7c0-0.1,0.2-0.2,0.3-0.2h3
		c0.2,0,0.4,0.2,0.3,0.4l-27.9,86.8c0,0.1-0.2,0.2-0.3,0.2h-8.1c-0.1,0-0.3-0.1-0.3-0.2L89,11.3C89,11.2,89.1,11,89.3,11z"/>
	<path class="st1" d="M190.7,86.3c0,0.5-0.4,0.9-0.9,0.9h-16.5c-0.6,0-1,0.6-0.9,1.1l4.9,16.6c0.1,0.4,0.5,0.6,0.9,0.6h44.1
		c0.4,0,0.7-0.3,0.9-0.6l4.9-16.6c0.2-0.6-0.3-1.1-0.9-1.1h-16.5c-0.5,0-0.9-0.4-0.9-0.9V65.6V22.9c0-0.5,0.4-0.9,0.9-0.9h16.5
		c0.6,0,1-0.6,0.9-1.1l-4.9-16.6c-0.1-0.4-0.5-0.6-0.9-0.6h-44.1c-0.4,0-0.7,0.3-0.9,0.6l-4.9,16.6c-0.2,0.6,0.3,1.1,0.9,1.1h16.5
		c0.5,0,0.9,0.4,0.9,0.9v4.7V86.3z M198.2,14.6h-14.8c-0.2,0-0.3-0.2-0.3-0.4l0.8-3c0-0.1,0.2-0.2,0.3-0.2h32.1
		c0.1,0,0.3,0.1,0.3,0.2l0.8,3c0.1,0.2-0.1,0.4-0.3,0.4h-14.8c-0.2,0-0.3,0.1-0.3,0.3v12.7h0v66.7c0,0.2,0.1,0.3,0.3,0.3h14.8
		c0.2,0,0.3,0.2,0.3,0.4l-0.8,3c0,0.1-0.2,0.2-0.3,0.2h-32.1c-0.1,0-0.3-0.1-0.3-0.2l-0.8-3c-0.1-0.2,0.1-0.4,0.3-0.4h14.8
		c0.2,0,0.3-0.1,0.3-0.3V65.6h0V14.9C198.5,14.7,198.4,14.6,198.2,14.6z"/>
	<path class="st1" d="M314.2,22h23.2c0.5,0,0.9,0.4,0.9,0.9v81.8c0,0.5,0.4,0.9,0.9,0.9h17.3c0.5,0,0.9-0.4,0.9-0.9V22.9
		c0-0.5,0.4-0.9,0.9-0.9h23.2c0.6,0,1-0.6,0.9-1.1l-4.9-16.6c-0.1-0.4-0.5-0.6-0.9-0.6h-57.4c-0.4,0-0.7,0.3-0.9,0.6l-4.9,16.6
		C313.2,21.5,313.6,22,314.2,22z M324.8,11.2c0-0.1,0.2-0.2,0.3-0.2h45.4c0.1,0,0.3,0.1,0.3,0.2l0.8,3c0.1,0.2-0.1,0.4-0.3,0.4
		h-21.5c-0.2,0-0.3,0.1-0.3,0.3v83.1c0,0.2-0.1,0.3-0.3,0.3h-2.9c-0.2,0-0.3-0.1-0.3-0.3V14.9c0-0.2-0.1-0.3-0.3-0.3h-21.5
		c-0.2,0-0.3-0.2-0.3-0.4L324.8,11.2z"/>
	<path class="st1" d="M272.9,108.1c19.8,0,32.6-12.7,32.6-31.2c0-35.4-43.2-29-43.2-48.2c0-7.6,4.2-11.3,10.6-11.3
		c6.7,0,13.3,2.5,17.1,7.5c0.3,0.5,1,0.5,1.4,0l9.4-11.2c0.3-0.4,0.3-0.9,0-1.2c-7-8.1-15.4-12.1-27.8-12.1c-15.7,0-29,10.5-29,28.3
		c0,33.3,42.5,29,42.5,48.2c0,8.5-6.4,12.7-13.5,12.7c-10.9,0-16.4-5.1-20.6-10.4c-0.4-0.4-1-0.5-1.4-0.1l-11.4,11.4
		c-0.4,0.4-0.4,0.9,0,1.3C247.8,101.3,256.7,108.1,272.9,108.1z M248.9,91.3l1.9-1.9c0.1-0.1,0.3-0.1,0.4,0c0.1,0,0.1,0.1,0.2,0.1
		c8.9,7.2,18,8.6,23.5,8c7-0.8,12.3-4.1,14.8-6.7c4.3-4.7,6.4-14.7,2-22.8c-4.2-7.9-14.2-11.5-14.3-11.6l-0.1,0
		C263,50.1,256,44.8,253,37.9c-2.1-4.8-2.1-13.6,1.9-20.5c3.2-5.6,8.4-8.9,15-9.6c9.3-1,16.4,2.2,20.6,5c0,0,0.1,0,0.1,0.1
		c0.1,0.1,0.2,0.3,0.1,0.4l-1.7,2.1c-0.1,0.1-0.3,0.1-0.4,0.1c-0.1,0-0.1-0.1-0.2-0.1c-5.5-3.5-11.6-5-18.1-4.3
		c-5.6,0.6-9.8,3.3-12.5,8c-3.3,5.8-3.5,13.5-1.7,17.6c1.9,4.4,6,9.4,22.4,16.7c0,0,0,0,0,0c1.1,0.4,11.4,4.4,16.1,13.1
		c5.1,9.5,2.7,21-2.5,26.6c-3.4,3.7-11,8-20.4,8c-6.7,0-15.2-2.5-22.7-9.2c0,0,0,0-0.1-0.1C248.7,91.6,248.8,91.5,248.9,91.3z"/>
</g>
</svg>
