<?xml version="1.0" encoding="utf-8"?><svg id="Layer_1" data-name="Layer 1" xmlns="http://www.w3.org/2000/svg" xmlns:xlink="http://www.w3.org/1999/xlink" viewBox="0 0 850.39 478.84"><defs><style>.cls-1{fill:none;}.cls-2{fill:#00aef3;}.cls-3{clip-path:url(#clip-path);}.cls-4{fill:#fff;}</style><clipPath id="clip-path"><rect class="cls-1" width="850.39" height="478.84"/></clipPath></defs><title>1_Siminn1</title><rect class="cls-2" width="850.39" height="478.84"/><g class="cls-3"><path class="cls-4" d="M671.9,124.74c-.54,2-7.87,3.39-14.25,3.09s-11-1.69-12-3.42c-.82-1.49,2.55-3.78,10.44-4,9.66-.3,16.47,1.94,15.8,4.37m-29.14.07c.37,3.13-9.18,9.26-18.29,12.45-9.36,3.27-16.47,3.89-18.82,2-2-1.61,1.45-6.75,12.41-11.59,13.41-5.91,24.26-6.64,24.7-2.86m-33.34,22.82c4.46,9.38-2.07,32-11.61,45.46-9.76,13.85-19.56,18.65-25.4,13.88-5-4.06-6.25-21.13,4-40.4,12.51-23.62,27.67-30.28,33-18.94m-16.64,58.13c9.91-5.84,27.16,1.65,35.3,13.18,8.36,11.81,8.81,23.92,2.39,31.36-5.44,6.32-20.86,8.43-33.8-3.77-15.85-15-15.85-33.72-3.89-40.77m48.54,55c-8-3.88-6.7-13.74.85-19.81,7.75-6.21,18.11-8.56,26.46-6.69,7.12,1.6,13.58,8.87,6.86,17.43-8.2,10.47-24.47,13.77-34.17,9.07"/><path class="cls-4" d="M629,194.51c-10.08-11.13-5.73-28.11,6.25-35.07a35.61,35.61,0,0,1,38.2,1.72c9.4,6.54,16.42,22.9,5,34.77-14,14.53-37.27,12-49.45-1.42m61.71-12.77c7.26-10.77,22.47-6.65,30.79,5.62,8.53,12.57,10.64,28.1,6.47,39.79-3.55,9.95-15.88,17.68-28.23,6.06-15.12-14.18-17.81-38.46-9-51.47M661.44,290.61c2.46,1.78-.92,4.09-6,4.84s-10.42.32-13.59-1c-2.69-1.1-3.49-3.54,1.88-5,6.58-1.78,14.71-1,17.67,1.17m29.51-12c3.87,1.58.85,6.73-5,10.25-6,3.61-12.67,5.37-17.22,4.86-3.85-.45-6-3.85-.11-8.61,7.24-5.83,17.62-8.39,22.32-6.5m28-36.17c6.85-.22,7.39,9.62,2.58,18.74s-12.19,15.93-18.7,18c-5.51,1.78-11.54-1.71-8.18-12.34,4.25-13.33,16-24.17,24.3-24.43"/><path class="cls-4" d="M240.63,358.43H223.27c-2.3,0-3.28-1.15-3.28-3.44V277c0-2.28,1-3.44,3.28-3.44h17.36c2.31,0,3.45,1.16,3.45,3.44v78c0,2.29-1.14,3.44-3.45,3.44m12.46-113.51-17.7,16.54c-1.45,1.32-2.94,2.3-4.75,2.3h-6.87a2.16,2.16,0,0,1-2.3-2.3,3.87,3.87,0,0,1,1-2.29L232,243.78c2-3.29,7.69-5.26,13.77-5.26,5.09,0,8.52,1.81,8.52,3.78a3.89,3.89,0,0,1-1.15,2.62M381.24,358.43H364q-3.43,0-3.43-3.44V297.67c0-8.53-4.1-13.43-12.28-13.43-8.54,0-11.81,5.23-11.81,13.27V355q0,3.43-3.43,3.44H315.87q-3.44,0-3.44-3.44V297.67c0-8.53-4.1-13.43-12.28-13.43-8,0-11.81,3.09-11.81,10.3V355c0,2.29-1.13,3.44-3.43,3.44h-17.2c-2.28,0-3.27-1.15-3.27-3.44V286.85c0-6.06,1.63-8.19,6.72-10.48,5.73-2.63,16.2-4.91,27.67-4.91,13.28,0,21.14,3.76,26.7,9.33,5.91-5.57,15.24-9.33,29.34-9.33,13.75,0,29.64,6.7,29.64,25.06V355c0,2.29-1,3.44-3.27,3.44M416.82,262c-8,0-13.11-4.58-13.11-10.32s5.08-10.16,13.11-10.16,13.27,4.42,13.27,10.16S424.85,262,416.82,262m8.68,96.48H408.14c-2.3,0-3.27-1.15-3.27-3.44V277c0-2.28,1-3.44,3.27-3.44H425.5c2.29,0,3.45,1.16,3.45,3.44v78c0,2.29-1.16,3.44-3.45,3.44m94.57,0H502.54c-2.29,0-3.27-1.15-3.27-3.44V297.67c0-7.05-3.28-13.43-13.76-13.43-10.65,0-12.13,4.9-12.13,10V355c0,2.29-1.14,3.44-3.44,3.44H452.59c-2.3,0-3.29-1.15-3.29-3.44V286.85c0-5.73,1.49-8,6.73-10.48,5.89-2.79,17.51-4.91,30.13-4.91,20.48,0,37.19,6.7,37.19,25.06V355c0,2.29-1,3.44-3.28,3.44m94.4,0H596.93c-2.29,0-3.27-1.15-3.27-3.44V297.67c0-7.05-3.28-13.43-13.76-13.43s-12.12,4.9-12.12,10V355q0,3.43-3.45,3.44H547c-2.31,0-3.3-1.15-3.3-3.44V286.85c0-5.73,1.49-8,6.73-10.48,5.89-2.79,17.52-4.91,30.14-4.91,20.47,0,37.19,6.7,37.19,25.06V355c0,2.29-1,3.44-3.28,3.44m-454,2.63c-25.23,0-40.14-16.55-40.14-28.52,0-7,5.25-11.13,11.8-11.13a12.34,12.34,0,0,1,12,8c2.44,6.22,7.68,14.74,17.35,14.74,9.17,0,14.42-6.22,14.42-14.25,0-25.89-53.56-19.82-53.56-57.17,0-20.8,16.86-32.59,39.31-32.59,26.21,0,37.33,15.56,37.33,24.24,0,6.88-4.9,10.81-11.46,10.81-5.39,0-9.16-3.29-11.13-7.7-2.62-5.57-6.39-11.95-15.07-11.95-8.19,0-13.93,5.23-13.93,14.24,0,23.59,54.72,17.2,54.72,57.34,0,19.81-15.24,33.91-41.61,33.91"/></g></svg>