<?xml version="1.0" encoding="utf-8"?><svg id="Layer_1" data-name="Layer 1" xmlns="http://www.w3.org/2000/svg" viewBox="0 0 1158.8 277.38"><defs><style>.cls-1,.cls-2{fill:#4972c3;}.cls-1,.cls-3{fill-rule:evenodd;}.cls-3{fill:#bcbcbc;}</style></defs><title>2_Eimskip1</title><path class="cls-1" d="M600.41,161.35l35.11-92.71c1.6-4,3.83-7.57,8.08-7.8h47.58l-21.92,156H638l16.44-117-48.19,117H578.48L564.73,99.34,548.22,216.8H516.47L537.21,69.2C538,65,541.15,61,545.7,60.84h43.41Z"/><path class="cls-1" d="M789.85,216.76,810.54,69.55c.68-4.31,3.78-8.44,8.35-8.75H844l-21.92,156Z"/><path class="cls-1" d="M835.33,129.63l33.12-60.06c2.3-4.15,4.1-8.19,8.27-8.77H907.5l-38,69.32,19.94,86.64H854.34Z"/><path class="cls-1" d="M901.44,216.81,922.18,69.27c.79-4.23,3.9-8.19,8.42-8.43h25l-21.92,156Z"/><path class="cls-2" d="M1004,87.67,997.54,134c5.21,0,22.34.12,27.16-2.34,16.46-8.54,20.35-43.72-7-43.95ZM953.68,216.75,974.37,69.34c.79-4.39,4.07-8.53,8.86-8.53h24.58l13.86.12c12.52.13,26.53,1.85,35.61,11.39,15,17.69,13.24,51-4.87,72.17-16,18.52-42.92,17.45-58.83,17.68l-7.66,54.58Z"/><path class="cls-1" d="M784.31,174.19c0-48.46-52.78-45.88-52.78-75.13,0-10.67,6.19-16.44,16.66-16.44,13,0,14.94,11.75,14.94,23.28h30c2.13-32.25-12-47.78-43.4-47.78-39.29,0-50.82,20.66-50.82,44.78,0,45.92,52.78,47.6,52.78,75.35,0,10.47-5.33,17.51-16.22,17.51-17.73,0-18.37-12.38-18.37-27.12h-30.8c-1.71,26.69,4.32,51.62,44.25,51.62C755.06,220.26,784.31,214.12,784.31,174.19Z"/><path class="cls-1" d="M367.92,216.75,388.63,69.39c.76-4.27,3.88-8.31,8.44-8.55h70L463.26,88h-45l-4.87,34.65h43.54l-3.86,27.48H409.51L404,189.57h46.27l-3.82,27.18Z"/><path class="cls-1" d="M464.08,217,484.75,70c.64-4.45,3.87-8.77,8.66-8.94h24.83L496.33,217Z"/><path class="cls-1" d="M113.88,73.8c4.51-28.68,31.41-51.92,60.08-51.92H303.75L297.63,60.8H200.29c-21.5,0-35.2,17.44-38.58,38.94H291.5c-3.37,21.51-17.07,38.94-38.57,38.94H188c-21.51,0-35.19,17.43-38.58,38.94h129.8c-3.39,21.5-17.07,38.94-38.57,38.94H91.42Z"/><path class="cls-3" d="M327.09,203.58c-4.51,28.67-31.41,51.91-60.08,51.91H137.21l6.13-38.93h97.35c21.5,0,35.18-17.43,38.57-38.94H149.46c3.39-21.51,17.07-38.93,38.58-38.93h64.89c21.5,0,35.2-17.44,38.57-38.95H161.71c3.38-21.5,17.08-38.94,38.58-38.94H349.55Z"/></svg>