<?xml version="1.0" encoding="utf-8"?><svg id="Layer_1" data-name="Layer 1" xmlns="http://www.w3.org/2000/svg" viewBox="0 0 515.8 719.51"><defs><style>.cls-1{fill:#a2a7ab;}.cls-2{fill:#394049;}</style></defs><title>3_Fossar1</title><polygon class="cls-1" points="430.87 208.82 430.87 435.48 356.3 360.91 356.3 274.67 430.87 208.82"/><polygon class="cls-1" points="340.05 278.65 340.05 505.3 265.49 430.74 265.49 344.49 340.05 278.65"/><polygon class="cls-1" points="249.24 348.47 249.24 575.13 174.68 500.56 174.68 414.31 249.24 348.47"/><polygon class="cls-1" points="340.05 32.88 340.05 259.54 265.49 184.97 265.49 98.73 340.05 32.88"/><polygon class="cls-1" points="249.24 102.71 249.24 329.36 174.68 254.8 174.68 168.55 249.24 102.71"/><polygon class="cls-1" points="158.43 172.53 158.43 399.19 83.86 324.62 83.86 238.37 158.43 172.53"/><polygon class="cls-2" points="23.57 685.09 40.4 685.09 40.4 663.86 68.42 663.86 68.42 647.75 40.4 647.75 40.4 635.51 72.76 635.51 72.76 619.4 23.57 619.4 23.57 685.09"/><path class="cls-2" d="M134,670a18.13,18.13,0,1,1,18.13-18.13A18.15,18.15,0,0,1,134,670m-.12-52.43a34.3,34.3,0,1,0,34.3,34.3,34.34,34.34,0,0,0-34.3-34.3"/><path class="cls-2" d="M232.75,634.49a18.67,18.67,0,0,0-7.51-1.74,12.2,12.2,0,0,0-5.2,1.49,5,5,0,0,0-2.61,4.73l0,.27a3.68,3.68,0,0,0,.84,1.74,9.12,9.12,0,0,0,4.9,2.6,41.63,41.63,0,0,0,4.34.72l.38.05c.81.1,1.73.25,2.7.45a38,38,0,0,1,9,3,25,25,0,0,1,6.58,4.81c3.36,3.43,5.35,7.38,5.46,11.71v.12a20.56,20.56,0,0,1-5,14c-5.45,6.42-14.81,8.08-20.9,8.2h-1.26a35.43,35.43,0,0,1-13.75-3,26.57,26.57,0,0,1-8.5-6.34,35.19,35.19,0,0,1-3.7-5.19l11.59-8.39a17.35,17.35,0,0,0,15.38,8.68,11.59,11.59,0,0,0,8.95-3.4h0a6.06,6.06,0,0,0,1.11-3.85,6.55,6.55,0,0,0-5.25-5.57c-1-.19-3.63-.71-4.92-.94l-5.53-1c-7.27-1.58-10.84-2.57-14.51-6.27a17.54,17.54,0,0,1-5.23-12.52v-.08a20,20,0,0,1,5.31-13.93,21.57,21.57,0,0,1,3.44-3,26.61,26.61,0,0,1,3.91-2.23A29.78,29.78,0,0,1,225,616.93a33.21,33.21,0,0,1,5.82.5,30.86,30.86,0,0,1,12.13,4.89l6,4.09-9.63,9.48-.61.58-1.39,1.33a20.29,20.29,0,0,0-4.52-3.31"/><path class="cls-2" d="M313.79,634.49a18.67,18.67,0,0,0-7.51-1.74,12.13,12.13,0,0,0-5.2,1.49,5,5,0,0,0-2.61,4.73l0,.27a3.68,3.68,0,0,0,.84,1.74,9,9,0,0,0,4.9,2.6,41.63,41.63,0,0,0,4.34.72l.38.05c.81.1,1.73.25,2.7.45a38,38,0,0,1,9,3,25,25,0,0,1,6.58,4.81c3.35,3.43,5.35,7.38,5.46,11.71v.12a20.47,20.47,0,0,1-5,14c-5.45,6.42-14.82,8.08-20.91,8.2h-1.25a35.5,35.5,0,0,1-13.76-3,26.53,26.53,0,0,1-8.49-6.34,35.73,35.73,0,0,1-3.71-5.19l11.6-8.39a17.31,17.31,0,0,0,15.38,8.68,11.56,11.56,0,0,0,8.94-3.4h0a6.06,6.06,0,0,0,1.11-3.85,6.56,6.56,0,0,0-5.25-5.57c-1-.19-3.64-.71-4.92-.94l-5.53-1c-7.27-1.58-10.85-2.57-14.52-6.27a17.51,17.51,0,0,1-5.22-12.52v-.08a20,20,0,0,1,5.31-13.93,21.15,21.15,0,0,1,3.44-3,26.1,26.1,0,0,1,3.91-2.23A29.77,29.77,0,0,1,306,616.93a33,33,0,0,1,5.82.5A30.85,30.85,0,0,1,324,622.32l6,4.09-9.62,9.48-.61.58-1.39,1.33a20.55,20.55,0,0,0-4.52-3.31"/><path class="cls-2" d="M379.34,662l5.74-24.19L392.36,662Zm-5.27-43.05-15.4,65.84H374l1.85-7.89h21l2.37,7.89h15.57L395,618.9Z"/><path class="cls-2" d="M476,640.05l0,.63a6.9,6.9,0,0,1-1.8,4.77c-.32.35-1.31,1.41-4.42,1.41H456.69V633.81h13.09c5.73.44,6.23,3.44,6.24,6.23m2.44,19.38a14.51,14.51,0,0,0,6.68-3.81c5.78-6.19,5.89-14,5.79-16.16v-.15c-.14-14.56-11.28-20.09-20.8-20.4H441.79v65.84h14.9v-23h5.78l12.26,23h17.49Z"/></svg>