<?xml version="1.0" encoding="utf-8"?><svg id="Layer_1" data-name="Layer 1" xmlns="http://www.w3.org/2000/svg" viewBox="0 0 1046.62 319.33"><defs><style>.cls-1{fill:#1f3665;}.cls-2{fill:#c10d19;}</style></defs><title>5_Marel1</title><path class="cls-1" d="M358.14,161.61l-21,95.78H291l4.11-18.76c.69-2.75,1.42-5.83,2.17-9.33l14.51-66.88c1.51-7.42.36-9.8-5.75-9.8H270.67c-6.11,0-8.68,2.38-10.05,9l-21,95.78H193.8L220.94,133H430.48c21.27,0,29.08,10.36,24.3,33.42l-19.44,91H388.45l3.89-17.72c.78-3,1.59-6.43,2.45-10.37l14.65-67.69c1.37-6.61.22-9-5.91-9H368.19c-6.11,0-8.68,2.38-10.05,9"/><polygon class="cls-1" points="947.17 87.81 993.32 87.81 956.32 257.39 910.17 257.39 947.17 87.81"/><path class="cls-1" d="M747.68,152.55l4.2-19.64-64,.05c-21.25,0-33.64,10.37-38.43,33.37l-20.49,91h46.7l15.49-70.48,5.44-25.24c1.37-6.59,3.94-9,10-9Z"/><path class="cls-1" d="M897.57,206.57l8.7-40.23c4.77-23-3-33.38-24.29-33.38H795.34c-21.25,0-33.64,10.37-38.43,33.38L744.31,224c-4.78,23,3,33.37,24.28,33.37H889l4.52-19.77-17.43.11H795.54c-6.11,0-7.25-2.38-5.89-9l4.81-22.13Zm-99-19.67,5.5-25.31c1.37-6.59,3.94-9,10.05-9H855c6.11,0,7.26,2.37,5.89,9l-5.5,25.31Z"/><path class="cls-1" d="M574.73,151.56c4.24,0,6.16,1.58,5.24,5.77l-1.58,7.86c-.92,4.19-3.78,5.77-8,5.77H505.25c-21.79,0-33.16,9-40.48,43.18-7.58,34.15.18,43.18,22,43.18h117c1.71-6.92,20.63-91.07,20.63-91.07,4.77-22.92-3-33.29-24.29-33.29h-113L483,151.58l22.11,0Zm-1.82,39.07-8.25,38.05c-1.36,6.6-3.93,9-10,9H513.69c-6.12,0-7.26-2.39-5.9-9L514,199.61c1.63-6.61,3.94-9,10-9Z"/><path class="cls-2" d="M429.22,109.84c18.66-13.31,39.3-35.4,33.79-49.78-6.71-17.5-80.22-15.52-148.4,3.27l-4-16.37c76.45-18.89,164-21.22,173.7.69,8.22,18.6-13.13,44.54-39.74,62.19Z"/><path class="cls-2" d="M232.91,83c-77.57,27.15-122.64,68-130.63,98-7.62,28.68,15.72,59.52,68.26,58.06l-3.43,15.07c-76.22,7.93-125.55-27-119.63-58.72,8.59-46.18,76.08-92.65,181.31-125.26C228.18,56.3,239,43.57,254.28,40.87,270.8,38,286.37,47.84,289,63s-8.58,29.73-25.12,32.65c-12.73,2.24-24.87-3.1-31-12.57"/></svg>