<?xml version="1.0" encoding="utf-8"?><svg id="Layer_1" data-name="Layer 1" xmlns="http://www.w3.org/2000/svg" viewBox="0 0 503.84 514.8"><defs><style>.cls-1{fill:#b3282c;}.cls-2{fill:#f0c631;}</style></defs><title>6_Straeto1</title><path class="cls-1" d="M251.91,13.4c-131.88,0-238.8,109.23-238.8,244s106.92,244,238.8,244,238.82-109.24,238.82-244-106.92-244-238.82-244"/><path class="cls-2" d="M252.44,441.19c-119.12,0-145.89-100.31-148.8-134h0l0-.28,0,.28H201.8C203.86,323,212.55,365.9,260,366.3c29.29.23,43.25-16,43.25-35.73,0-14.87-7-29.06-62.75-43.55-43.67-11.35-120.94-25.6-122.35-104.22-.57-30.89,20.36-110,134.32-109.19,117,.81,135,83.48,139.18,117.85l-92-.11c-.46-14-11.51-47.35-54.51-45.55-.31-.13-30,.36-30.3,25.18-2.3,27.72,30.86,29,30.2,29,24.42,2.82,57.81,9.44,57.81,9.44,65.41,17.69,97.17,56,97.39,105.64.42,96.89-105.78,126.14-147.78,126.14"/></svg>