<?xml version="1.0" encoding="utf-8"?><svg id="Layer_1" data-name="Layer 1" xmlns="http://www.w3.org/2000/svg" viewBox="0 0 1020.09 606.78"><defs><style>.cls-1{fill:#d60045;}.cls-2,.cls-3{fill:#2b4995;}.cls-3{fill-rule:evenodd;}</style></defs><title>7_Landspitali1</title><path class="cls-1" d="M285.58,201.34C294.32,109.85,382.43,37,492.39,30.93V73.29H459.55L459.5,169H364.87v32.35H285.58"/><path class="cls-2" d="M492.39,401.68c-110-6.1-198.07-78.91-206.81-170.4h79.29V264.7h94.91v94.64h32.61v42.34"/><path class="cls-2" d="M729.13,231.28c-8.73,91.49-96.84,164.3-206.81,170.4V359.34h33.17V264.69h94.35V231.28h79.29"/><path class="cls-2" d="M522.32,30.93c110,6.11,198.08,78.92,206.81,170.41H649.84V169h-94.2l.06-95.7H522.32V30.93"/><polyline class="cls-2" points="76.16 456.8 76.16 565.04 114.09 565.04 114.09 573.79 52.01 573.79 52.01 456.8 76.16 456.8"/><path class="cls-3" d="M178.9,456.8l34.4,117H188.53l-8-27.86H140.3l-8.46,27.86H122l36-117Zm-36,80.48H178.1L161,478l-18.09,59.31"/><polyline class="cls-2" points="307.3 456.8 307.3 573.79 288.59 573.79 236.71 484.48 236.71 573.79 227.8 573.79 227.8 456.8 246.25 456.8 298.75 546.1 298.75 456.8 307.3 456.8"/><path class="cls-3" d="M329.8,573.79v-117H369q22.91,0,36.63,12.43Q422,484,422,515q0,36.59-21.92,50.82-12.3,8-32.09,8ZM354,566.08h12.3q15.24,0,23-11.4,6.67-9.78,6.68-40.2,0-18.68-1.87-26.66-3.48-15.07-15.15-20.65a29,29,0,0,0-12.66-2.57H354V566.08"/><path class="cls-2" d="M511.12,488l-11.94,3.08a55.75,55.75,0,0,0,1.07-9.68c0-4.4-1.78-8.42-5.35-12.09q-7.12-7.37-20.5-7.36-14.53,0-19.79,8.05a18.48,18.48,0,0,0-3.12,10.2,17.67,17.67,0,0,0,2.77,9.51q3.56,5.84,19.34,11.57,31.56,11.49,38.6,23.23,4,6.86,4,16.88,0,19.2-17.29,29-9.62,5.49-24.15,5.49-28,0-37-17.06a27.55,27.55,0,0,1-3.3-13q0-3.09.44-8.32l12.84-3.51a52.5,52.5,0,0,0-2,12.94q0,10.71,9.18,17.14a29.74,29.74,0,0,0,17.65,5.23q11.31,0,18.18-6.6a17.68,17.68,0,0,0,5.88-13.11q0-10.89-13-17.91-2.58-1.38-17.56-7.21-15.78-6.17-22.55-13.28-8.37-8.75-8.38-23.57a29.14,29.14,0,0,1,10.25-22.89q11.24-9.85,30-9.85,19.61,0,29.68,11.74a24.38,24.38,0,0,1,5.62,13.72c.24,2.46.35,5,.35,7.71"/><path class="cls-3" d="M530.57,573.79v-117h40.28q20.14,0,32.18,6.94,14.81,8.58,14.8,26.66,0,34.8-49.3,34.8H555.35v48.59Zm24.78-56.73h11.14q14,0,20.23-6.26t6.33-19.8q0-16.63-9.54-22.2Q577,465,566.49,465H555.35v52"/><path class="cls-3" d="M635.62,456.8h24.51v117H635.62Zm.18-9.42h-6.6l15.06-22.12h22.28L635.8,447.38"/><polyline class="cls-2" points="759.3 456.8 759.3 465.55 730.06 465.55 730.06 573.79 704.3 573.79 704.3 465.55 674.89 465.55 674.89 456.8 759.3 456.8"/><path class="cls-3" d="M811.9,456.8l34.4,117H821.52l-8-27.86H773.3l-8.47,27.86H755l36-117Zm-36,80.48H811.1L794,478l-18.09,59.31"/><polyline class="cls-2" points="888.98 456.8 888.98 565.04 926.92 565.04 926.92 573.79 864.83 573.79 864.83 456.8 888.98 456.8"/><rect class="cls-2" x="943.57" y="456.8" width="24.51" height="116.99"/></svg>