<?xml version="1.0" encoding="utf-8"?><svg id="Layer_1" data-name="Layer 1" xmlns="http://www.w3.org/2000/svg" viewBox="0 0 686.76 612.3"><defs><style>.cls-1{fill:#505050;}.cls-2{fill:#824b3c;}.cls-3{fill:#00a0c8;}.cls-4{fill:#bebebe;}</style></defs><title>8_Sensa1</title><path class="cls-1" d="M99,573.2c-23.15,0-43.76-10.43-55.16-27.91l20.54-13.77C71.16,542,84.11,548.24,99,548.24c11.26,0,21.86-3,25.79-7.17a5.9,5.9,0,0,0,1.64-4.84c-.2-3.74-3.28-6.17-9.15-7.23-1.48-.27-4.17-.76-34.35-5.2-32.23-4.75-36.1-25.48-36.52-31.71a32.3,32.3,0,0,1,9-25.2c10.58-11.05,28-14.46,40.82-13.95,22.41.88,36.6,10.76,48.57,21.29l-16.12,18.86c-12.22-10.73-21-14.72-33.4-15.19-9.14-.35-18.26,2.27-22.22,6.38a7.37,7.37,0,0,0-2,6.11c.41,6,12,8.17,15.48,8.69,30.6,4.51,33.31,5,35.12,5.33,17.33,3.14,28.6,14.81,29.44,30.46a31,31,0,0,1-8.34,23.36c-12.62,13.52-34.75,15-43.68,15"/><path class="cls-1" d="M466.68,573.24c-23.16,0-43.78-10.45-55.17-27.93l20.56-13.76c6.8,10.46,19.75,16.72,34.61,16.72,11.25,0,21.85-2.95,25.79-7.17a5.93,5.93,0,0,0,1.64-4.84c-.2-3.73-3.28-6.17-9.15-7.23-1.57-.28-4.39-.79-34.36-5.2-32.22-4.75-36.09-25.48-36.51-31.71a32.36,32.36,0,0,1,9-25.2c10.58-11.05,28-14.45,40.84-13.94,22.4.86,36.57,10.75,48.56,21.28l-16.12,18.87c-12.22-10.74-21-14.72-33.39-15.21-9.16-.34-18.27,2.28-22.22,6.4a7.31,7.31,0,0,0-2,6.1c.4,6,12,8.18,15.48,8.69,30.35,4.48,33.19,5,35.06,5.32,17.39,3.15,28.67,14.83,29.49,30.48a31,31,0,0,1-8.34,23.36c-12.61,13.5-34.75,15-43.67,15"/><path class="cls-1" d="M397,572l-24.25-.11s-.22-46.81-.22-65.11c0-28.24-20.37-28.73-27.06-28.89-10.42,0-18.22,2.43-22.93,7.21-4.49,4.56-6.76,11.85-6.73,21.66,0,18.82-.05,64.77-.05,64.77l-24.61,0s.06-45.88,0-64.69c0-16.69,4.65-29.92,13.93-39.34,9.49-9.64,23.16-14.53,40.63-14.53,38,.9,51.39,28.4,51.39,53.85,0,18.32-.14,65.22-.14,65.22"/><path class="cls-1" d="M228.59,477.87h0c-16.91,0-25.16,1.64-32.54,11.49-1.82,2.41-5.43,10.55-6.84,20.14a45.38,45.38,0,0,1,14.12-5.1c2.44-.63,7.46-1.92,34.37-5.38,10.55-1.36,10.84-5.63,11.05-9.07a7.23,7.23,0,0,0-1.89-6c-3.66-4-12.11-6.09-18.23-6.09M224,573.19l-2,0c-10-.28-27.78-2.38-39.1-12.88l-.2.23c-30.85-26.33-17.21-71.77-6.33-86.29,15.95-21.25,37.7-21.3,52.09-21.33h.1c11.27,0,26.64,3.66,36.19,14a32.37,32.37,0,0,1,8.5,24.72c-1.16,17.94-13,29.69-32.51,32.21-16.89,2.17-27.48,3.78-31.47,4.8-.63.16-1.09.27-1.55.35-1.65.31-10,2.13-10.26,7.31-.15,2.8.67,4.11,1.57,5.11,3.5,3.84,12.78,6.53,23.66,6.83,13.88.33,26.58-5.8,33.13-16.18l20.74,13.47c-11,17.44-30.56,27.7-52.56,27.7"/><path class="cls-1" d="M617.6,516.66a45.78,45.78,0,0,1-14.13,5.1c-2.43.63-7.46,1.91-34.37,5.37-10.55,1.37-10.82,5.63-11.05,9.07a7.29,7.29,0,0,0,1.89,6c3.67,4,12.12,6.1,18.21,6.1h.07c16.89,0,25.15-1.65,32.53-11.49,1.82-2.41,5.43-10.56,6.85-20.14m-39.45,56.59c-11.24,0-26.62-3.66-36.16-14a32.37,32.37,0,0,1-8.51-24.71c1.16-18,13-29.69,32.52-32.21,16.88-2.17,27.47-3.79,31.46-4.81.63-.16,1.1-.26,1.56-.34,1.64-.31,10-2.15,10.26-7.31.14-2.81-.68-4.12-1.57-5.11-3.5-3.85-12.79-6.53-23.66-6.84-13.84-.31-26.58,5.81-33.14,16.18l-20.73-13.46c11.35-18,31.72-28.37,54.56-27.68,10,.28,27.76,2.37,39.09,12.88l.2-.24c30.87,26.33,17.21,71.78,6.32,86.29-16,21.26-37.68,21.3-52.09,21.33Z"/><polygon class="cls-2" points="212.09 119.86 43.8 398.62 380.27 398.69 212.09 119.86"/><polyline class="cls-3" points="488.76 218.92 380.23 398.69 271.77 218.87 271.77 218.82 380.3 39.05 488.76 218.87"/><polygon class="cls-4" points="511.66 180.99 380.27 398.64 642.97 398.69 511.66 180.99"/></svg>