<?xml version="1.0" encoding="utf-8"?><svg id="Layer_1" data-name="Layer 1" xmlns="http://www.w3.org/2000/svg" viewBox="0 0 1268.37 851.19"><defs><style>.cls-1,.cls-5{fill:#036;}.cls-1,.cls-4{fill-rule:evenodd;}.cls-2{fill:none;stroke:#036;stroke-miterlimit:3.86;stroke-width:1.68px;}.cls-3,.cls-4{fill:#fff;}</style></defs><title>9_RVK1</title><path class="cls-1" d="M637,47.27H781.24v271.8c-7.12,78-76.92,147.09-145.24,178.64-68.32-31.55-137.35-100.63-144.43-178.64V47.27Z"/><path class="cls-2" d="M637,47.27H781.24v271.8c-7.12,78-76.92,147.09-145.24,178.64-68.32-31.55-137.35-100.63-144.43-178.64V47.27Z"/><rect class="cls-3" x="547.22" y="52.95" width="44.51" height="44.56"/><rect class="cls-3" x="547.22" y="103.11" width="44.77" height="11.02"/><polygon class="cls-4" points="519.37 127.16 541.71 142.09 541.71 164.19 519.37 149.66 497.34 164.31 497.34 142.09 519.37 127.16"/><polygon class="cls-4" points="519.37 171.72 541.71 186.65 541.71 208.75 519.37 194.2 497.34 208.85 497.34 186.65 519.37 171.72"/><polygon class="cls-4" points="519.37 216.28 541.71 231.19 541.71 253.31 519.37 238.76 497.34 253.41 497.34 231.19 519.37 216.28"/><path class="cls-4" d="M591.78,464.71c-12.23-7.74-33.55-27.3-44.51-38.91V119.7H592Z"/><rect class="cls-3" x="681.03" y="52.95" width="44.56" height="44.56"/><rect class="cls-3" x="680.8" y="103.11" width="44.8" height="11.02"/><polygon class="cls-4" points="753.39 127.16 731.08 142.09 731.08 164.19 753.39 149.66 775.42 164.31 775.42 142.09 753.39 127.16"/><polygon class="cls-4" points="753.39 171.72 731.08 186.65 731.08 208.75 753.39 194.2 775.42 208.85 775.42 186.65 753.39 171.72"/><polygon class="cls-4" points="753.39 216.28 731.08 231.19 731.08 253.31 753.39 238.76 775.42 253.41 775.42 231.19 753.39 216.28"/><path class="cls-4" d="M681,464.71c12.22-7.74,33.56-27.3,44.51-38.91V119.7H680.8Z"/><polygon class="cls-4" points="636.28 161.63 619.58 149.66 597.55 164.31 597.55 142.09 619.58 127.16 636.17 139.46 653.19 127.16 675.22 142.09 675.22 164.31 653.19 149.66 636.28 161.63"/><polygon class="cls-4" points="636.28 206.26 619.58 194.27 597.55 208.85 597.55 186.7 619.58 171.76 636.17 184.04 653.19 171.76 675.22 186.7 675.22 208.85 653.19 194.27 636.28 206.26"/><polygon class="cls-4" points="636.28 250.82 619.58 238.81 597.55 253.41 597.55 231.26 619.58 216.3 636.17 228.6 653.19 216.3 675.22 231.26 675.22 253.41 653.19 238.81 636.28 250.82"/><path class="cls-5" d="M85,699.58h32.19c5.17,0,10,0,14.8-1.2,11.19-2.76,15.16-10.85,15.16-19.63,0-3.1-.35-11.37-7.24-17-6.37-5.33-14.28-5.16-23.58-5.16H85ZM85,713v51.64H69.19V643.12h45.1c16.87,0,26.86.16,36.33,7.4,8.95,6.71,12.73,16.86,12.73,28.06,0,28.4-22.89,32.36-28.74,33.39l34.08,52.68H149.41l-33-51.64H85"/><path class="cls-5" d="M238.76,716.45c-1.21-21.35-16.53-25-23.24-25-11.71,0-21.52,8.61-23.07,25Zm15,23.24c-1.89,5.51-9.12,27.37-36.66,27.37-24.11,0-39.77-16.36-39.77-43.73,0-30.64,22-42.34,39.25-42.34,15,0,30.81,8.26,35.63,28.75a73.39,73.39,0,0,1,1.55,16.52H192.1c-.34,13.6,6.89,30.47,26.17,30.47,12.22,0,19.11-8.09,21.52-18.93l13.94,1.89"/><path class="cls-5" d="M333.44,683.57l-34.09,95.89c-5.85,16.35-9.81,25.3-25,25.3a42.86,42.86,0,0,1-12.56-1.89V790.65A31.25,31.25,0,0,0,270.6,792c10,0,12.22-5.85,16.19-17l3.44-9.81-27.54-81.6h14.63L297.63,748l21.52-64.38Z"/><polygon class="cls-5" points="379.75 715.59 416.76 764.65 399.55 764.65 370.45 725.75 360.64 736.08 360.64 764.65 346.7 764.65 346.7 643.12 360.64 643.12 360.64 718 393 683.57 409.87 683.57 379.75 715.59"/><path class="cls-5" d="M439,643.12v16H425.54v-16Zm0,40.62v98.82c0,6.71-.18,12.05-4.48,16.52-4.47,4.65-10,5-15,5a87.92,87.92,0,0,1-9.12-.51v-12.4a40.26,40.26,0,0,0,6.2.52c9,0,9-5.51,9-12.74v-95.2H439"/><path class="cls-5" d="M488.55,728.67c-15.15,3.27-17.74,9-17.74,14.63,0,6.54,5.17,12.06,15.32,12.06,9.47,0,17.56-3.79,21.52-12.23,2.07-4.47,2.24-6.37,2.24-18.24C504.55,725.75,497.32,726.78,488.55,728.67Zm21.17-12.57V714c0-8.43,0-22.55-18.25-22.55-17.39,0-17.39,12.74-17.39,17l-14.46-.86a31.47,31.47,0,0,1,3.28-12.23c4.82-9,14.28-14.45,28.06-14.45,7.57,0,17.38,1.89,23.75,6.88,8.95,7.23,8.78,16.53,8.78,27.37v26.34c0,7.75.17,11.71,5.85,11.71a11.5,11.5,0,0,0,4.48-.86v11.88a32.25,32.25,0,0,1-8.61,1.37c-6.37,0-12.74-2.06-14.12-12-4.13,4.3-12.39,13.25-27.88,13.25-15.84,0-27.55-9.47-27.55-23.24a22.07,22.07,0,0,1,3.62-12.22c4.65-6.89,13.25-12.4,37.53-14.29l12.91-1"/><polygon class="cls-5" points="595.45 683.57 609.57 683.57 580.3 764.65 567.9 764.65 538.29 683.57 552.59 683.57 574.11 745.71 595.45 683.57"/><path class="cls-5" d="M646.41,650,631.6,674.79h-7.05L631.6,650Zm-10.16,33.57v81.08H623V683.57h13.26"/><polygon class="cls-5" points="691.5 715.59 728.52 764.65 711.3 764.65 682.21 725.75 672.4 736.08 672.4 764.65 658.46 764.65 658.46 643.12 672.4 643.12 672.4 718 704.76 683.57 721.63 683.57 691.5 715.59"/><path class="cls-5" d="M737.3,683.57h13.6v46.31c0,8.43,0,9.12.34,11.19,1.38,10.5,9.82,12.74,16.18,12.74,8.44,0,14.8-3.45,18.26-7.75,5-5.85,5-12.22,5-21.86V683.57h13.61v81.08H790.66V752.26c-2.57,3.44-10.85,14.46-27.71,14.46-11.36,0-17.21-5.17-19.8-8.26-5.85-6.72-5.85-13.78-5.85-27.38Z"/><path class="cls-5" d="M840.77,683.57v14.81c7.74-15.33,22.37-15.67,27.88-15.84v14.8A53.36,53.36,0,0,0,863,697c-7.91,0-14.8,3.11-18.75,9.65-3.62,6-3.44,13.08-3.44,20.49v37.52H827V683.57Z"/><path class="cls-5" d="M920,755.53c18.59,0,25.31-16.7,25.31-32,0-20-11.54-30-25.14-30-11.18,0-25.65,6.72-25.82,30.65C894.3,746.75,907,755.53,920,755.53ZM894.64,642.94v51.64c2.58-3.27,10.16-13.59,27.89-13.59,17.56,0,37.36,11.87,37.36,43.21,0,20.48-9.81,42.86-37.53,42.86-16.36,0-24.27-8.26-27.72-12.91v10.5H880.87V642.94h13.77"/><path class="cls-5" d="M1037,712.66c-3.1-16-13.6-20.66-22.9-20.66-18.42,0-25.81,14.29-25.81,32.89,0,17,7.05,31.16,24.78,31.16,22.9,0,24.62-23.76,24.79-32A47.49,47.49,0,0,0,1037,712.66Zm-23.75,54.4c-28.07,0-39.94-21-39.94-42.35,0-18.07,8.95-43.72,40.45-43.72,26.86,0,39.25,20.83,39.08,43-.17,24.62-14.81,43-39.59,43"/><path class="cls-5" d="M1084.69,683.57v14.81c7.75-15.33,22.39-15.67,27.9-15.84v14.8a53.7,53.7,0,0,0-5.69-.35c-7.92,0-14.8,3.11-18.77,9.65-3.6,6-3.44,13.08-3.44,20.49v37.52h-13.77V683.57Z"/><path class="cls-5" d="M1134.79,724c0,4.65.35,14,5.68,21.18,5.68,7.58,13.42,9.64,20,9.64,8.44,0,15.16-3.27,19.8-10.33,4.82-7.23,5.34-16.87,5.34-21.69,0-27.55-20.48-29.44-26-29.44C1144.78,693.55,1134.79,705.26,1134.79,724Zm64.39-40.45v76.61c0,9.46,0,19.62-5,28.23-6.54,11.19-19.62,15.66-32.54,15.66-8.6,0-18.07-2.06-24.78-6.88-10.34-7.4-11.72-18.59-12.4-23.42H1140c-.18,9.3,5.51,19.11,22.55,19.11,9.29,0,14.46-3.09,17.21-5.85,5-5.33,5.17-11.36,5.17-24.79v-9.46c-2.94,4.13-11,14.28-26.69,14.28-19.62,0-37.53-14.28-37.53-42.52,0-32.71,21.18-43.55,37.7-43.55,7.58,0,17.22,2.41,26.52,13.42V683.57h14.29"/></svg>