<svg xmlns="http://www.w3.org/2000/svg" viewBox="0 0 115.51 155.13"><defs><style>.cls-1,.cls-6{fill:#fff;}.cls-2,.cls-3,.cls-4,.cls-5,.cls-7{fill:none;}.cls-2,.cls-3,.cls-5,.cls-6,.cls-7{stroke:#c85364;stroke-miterlimit:10;}.cls-2,.cls-3{stroke-width:2.21px;}.cls-3,.cls-5,.cls-7{stroke-linecap:round;}.cls-5,.cls-6{stroke-width:2.31px;}.cls-7{stroke-width:2.32px;}</style></defs><title>Einar</title><g id="Layer_2" data-name="Layer 2"><g id="Layer_1-2" data-name="Layer 1"><path class="cls-1" d="M10.88,104.25h-.63c-5.79,0-8.48-4.9-8.48-10.94V86.24c0-6,2.69-10.95,8.48-10.95h.63Z"/><path class="cls-2" d="M12.21,104.25h-.62A10.72,10.72,0,0,1,1.11,93.31V86.24A10.72,10.72,0,0,1,11.59,75.29h.62Z"/><path class="cls-1" d="M104,104.25h-.63v-29H104a10.72,10.72,0,0,1,10.48,10.95v7.07A10.72,10.72,0,0,1,104,104.25"/><path class="cls-2" d="M103.3,104.25h-.63v-29h.63a10.72,10.72,0,0,1,10.48,10.95v7.07A10.72,10.72,0,0,1,103.3,104.25Z"/><path class="cls-1" d="M57.64,153.53H56.58c-21.47,0-45.94-21.53-45.94-47.76l.53-51.53C11.17,28,28.34,6.76,53.44,6.76h7.34c25.1,0,45.45,21.26,45.45,47.48L104.9,106c0,26.22-36,50-47.26,47.53"/><path class="cls-2" d="M44.77,151.62c-18.18-9.15-33.63-22.89-33.63-44.35l0-53C11.17,28,28.34,6.76,53.44,6.76h7.34c25.1,0,45.45,21.26,45.45,47.48l-1.34,53c0,21.06-20.17,34.7-34.94,44C64.57,154.7,51.55,155,44.77,151.62Z"/><path class="cls-1" d="M64.12,82.12c0-7.27,5.64-13.17,12.6-13.17h9.37"/><path class="cls-3" d="M28.88,84.89a7.21,7.21,0,0,1,7-7.42,7.21,7.21,0,0,1,7,7.42"/><path class="cls-3" d="M71.38,84.89a7,7,0,1,1,14,0"/><line class="cls-1" x1="27.35" y1="89.77" x2="30.16" y2="89.46"/><line class="cls-1" x1="88.26" y1="91.02" x2="85.28" y2="90.53"/><line class="cls-1" x1="25.34" y1="13.2" x2="29.48" y2="38"/><path class="cls-1" d="M73.24,124.75c0,9.3-7.22,16.84-16.12,16.84S41,134.05,41,124.75Z"/><rect class="cls-4" x="1.89" width="113.61" height="154.63"/><path class="cls-5" d="M61.48,111.4H56.2a7.14,7.14,0,0,1-7-7.31l2.7-25a7.15,7.15,0,0,0-7-7.32H22.42"/><path class="cls-5" d="M91.46,71.81H72.28a5.9,5.9,0,0,0-5.75,5.9"/><path class="cls-6" d="M80.75,34.13l6.4-18.56s14.08.57,19.08,22.43,1.33,31.87.62,37.71-1.29,10-1.29,10-2.9-.17-5.44-16.54S86.46,37.14,80.75,34.13Z"/><path class="cls-6" d="M23.11,49S14.82,76.88,10.54,83.73c-5.08-16-2.2-43.92-2.2-43.92Z"/><path class="cls-6" d="M80.75,34.13S20.34,52.17,11.17,47c-1.85-1-3.49-2.65-3.36-4.74.53-8.79,7.1-21.32,15-30.16,14.36-16,51.88-13,64.27,3.34Z"/><path class="cls-7" d="M70.84,123.57a19.13,19.13,0,0,1-16.63,5.27,20.15,20.15,0,0,1-8.46-3.34"/></g></g></svg>