<svg xmlns="http://www.w3.org/2000/svg" xmlns:xlink="http://www.w3.org/1999/xlink" viewBox="0 0 126.92 149.99"><defs><style>.cls-1,.cls-4,.cls-5,.cls-6,.cls-9{fill:none;}.cls-2,.cls-3,.cls-7{fill:#fff;}.cls-3,.cls-4,.cls-5,.cls-6,.cls-7,.cls-9{stroke:#e65265;stroke-miterlimit:10;}.cls-3,.cls-9{stroke-width:2.01px;}.cls-4,.cls-5,.cls-6{stroke-linecap:round;}.cls-4{stroke-width:2.02px;}.cls-5,.cls-7{stroke-width:2.02px;}.cls-6{stroke-width:0.71px;}.cls-8{clip-path:url(#clip-path);}.cls-10{clip-path:url(#clip-path-2);}.cls-11{clip-path:url(#clip-path-3);}</style><clipPath id="clip-path"><path class="cls-1" d="M62.72,14.49c-10.34,0-16.84,5.69-23.49,13.2V28S51,31.24,62,31.24,92.47,26,92.47,26,84,14.49,62.72,14.49Z"/></clipPath><clipPath id="clip-path-2"><path class="cls-1" d="M16.52,73.74v27.81a47.15,47.15,0,0,0,9.27,27.51l-5.54-4c-5.51-4-11.78-10.35-13.78-17.15l1-55.33C9.47,22.08,29.22,7,57.06,7H67.47c21.75,0,31,13.25,31,13.25l-6,5.75S84,14.49,62.72,14.49c-19.55,0-26.95,20.32-39.62,34.87a15.7,15.7,0,0,0-3.82,9Z"/></clipPath><clipPath id="clip-path-3"><path class="cls-1" d="M98.05,20l-5.44,6.25,8.24,9.93c1,1.31,4.67,27.77,5.82,32.31s2.35,5.75,5.24,5.75h0s-.23,18.25-.23,30-6.49,23.38-13.2,30.75l7.91-6.94c7.76-4.66,14.58-13.59,14.58-23.3V65C121,52.37,116.13,30,98.05,20Z"/></clipPath></defs><title>Asset 12</title><g id="Layer_2" data-name="Layer 2"><g id="Layer_1-2" data-name="Layer 1"><path class="cls-2" d="M19.34,99.91h-.61A10.12,10.12,0,0,1,8.5,89.9V83.43a10.12,10.12,0,0,1,10.23-10h.61Z"/><path class="cls-3" d="M65,149H64C37,149,16.52,125.54,16.52,101.55V56.17c0-24,19.87-43.43,44.37-43.43h7.16c24.5,0,44.36,19.44,44.36,43.43v45.38C112.41,125.54,91.84,149,65,149Z"/><path class="cls-2" d="M31.93,71.37H46.85c6.39,0,11.58,7.07,11.58,13.33V100A6.5,6.5,0,0,0,65,106.51H70.9"/><path class="cls-4" d="M70.9,108.51H65A6.5,6.5,0,0,1,58.43,102V75L35.84,71.37a9.43,9.43,0,0,0-6.67,2.76l-2.12,2.12"/><path class="cls-2" d="M95.18,71.37H82.48c-3.82,0-7.93,1.69-10,5.36"/><path class="cls-4" d="M73.13,74.37l17.34-3a11.4,11.4,0,0,1,8,3.33L99.8,76"/><path class="cls-2" d="M37.58,87.69a6,6,0,0,1,12.08,0"/><path class="cls-5" d="M37.58,87.69a6,6,0,0,1,12.08,0"/><path class="cls-2" d="M79.27,87.69a6,6,0,0,1,12.08,0"/><path class="cls-5" d="M79.27,87.69a6,6,0,0,1,12.08,0"/><path class="cls-2" d="M74.55,124.05c-2.15,1.64-5.89,2.72-10.16,2.72s-7.84-1-10-2.61"/><path class="cls-4" d="M74.55,124.39a13.47,13.47,0,0,1-10.16,4.13,13.54,13.54,0,0,1-10-4"/><line class="cls-2" x1="61.78" y1="121.33" x2="61.78" y2="114.76"/><line class="cls-6" x1="61.78" y1="121.33" x2="61.78" y2="114.76"/><line class="cls-6" x1="58.44" y1="121.81" x2="58.44" y2="113.92"/><line class="cls-6" x1="70.69" y1="121.81" x2="70.69" y2="113.92"/><line class="cls-2" x1="55.48" y1="121.33" x2="55.48" y2="112.83"/><line class="cls-6" x1="55.48" y1="121.33" x2="55.48" y2="112.83"/><line class="cls-2" x1="49.19" y1="121.33" x2="49.19" y2="112.83"/><line class="cls-6" x1="49.19" y1="121.33" x2="49.19" y2="112.83"/><line class="cls-2" x1="43.32" y1="121.33" x2="43.32" y2="112.83"/><line class="cls-6" x1="43.32" y1="125.64" x2="43.32" y2="117.15"/><line class="cls-6" x1="46.24" y1="122.89" x2="46.24" y2="114.39"/><line class="cls-6" x1="83.24" y1="122.89" x2="83.24" y2="114.39"/><line class="cls-6" x1="52.32" y1="120.49" x2="52.32" y2="111.99"/><line class="cls-6" x1="76.74" y1="120.49" x2="76.74" y2="111.99"/><line class="cls-2" x1="67.79" y1="121.33" x2="67.79" y2="114.76"/><line class="cls-6" x1="67.79" y1="121.33" x2="67.79" y2="114.76"/><line class="cls-2" x1="73.8" y1="121.33" x2="73.8" y2="112.83"/><line class="cls-6" x1="73.8" y1="121.33" x2="73.8" y2="112.83"/><line class="cls-2" x1="79.81" y1="121.33" x2="79.81" y2="112.83"/><line class="cls-6" x1="79.81" y1="121.33" x2="79.81" y2="112.83"/><line class="cls-2" x1="86.48" y1="121.33" x2="86.48" y2="112.83"/><line class="cls-6" x1="86.48" y1="125.64" x2="86.48" y2="117.15"/><line class="cls-2" x1="104.31" y1="33.35" x2="102.24" y2="35.76"/><path class="cls-3" d="M98.05,20l-5.44,6.25,8.24,9.93c1,1.31,5.82,29,5.82,30.55v1.76a5.51,5.51,0,0,0,5.24,5.75h0s-.23,18.25-.23,30-6.49,23.38-13.2,30.75l7.91-6.94c7.76-4.66,14.58-13.59,14.58-23.3V65C121,52.37,113.38,30,98.05,20Z"/><path class="cls-7" d="M112.41,73.66v26a10.06,10.06,0,0,0,8-9.77V83.43A10.06,10.06,0,0,0,112.41,73.66Z"/><g class="cls-8"><path class="cls-9" d="M90,31S79.54,14.57,69.88,10.9"/><path class="cls-9" d="M81.09,32.68c-.33-.38-10.43-16-21.09-20.09"/><path class="cls-9" d="M72.22,34.37c-.67-.76-10.43-15.67-22.09-20.09"/><path class="cls-9" d="M63.34,36.06c-1-1.14-10.43-15.3-23.09-20.09"/><path class="cls-9" d="M54.47,37.74C53.14,36.23,44,22.83,30.38,17.65"/></g><path class="cls-9" d="M62.72,14.49c-10.34,0-16.84,5.69-23.49,13.2V28S51,31.24,62,31.24,92.47,26,92.47,26,84,14.49,62.72,14.49Z"/><path class="cls-3" d="M16.52,73.74v27.81a47.15,47.15,0,0,0,9.27,27.51l-5.54-4c-5.51-4-11.78-10.35-13.78-17.15l1-55.33C9.47,22.08,29.22,7,57.06,7H67.47c21.75,0,31,13.25,31,13.25l-6,5.75S84,14.49,62.72,14.49c-19.55,0-26.95,20.32-39.62,34.87a15.7,15.7,0,0,0-3.82,9Z"/><g class="cls-10"><path class="cls-9" d="M97.47,23.24S86.47,6.24,46,1"/><path class="cls-9" d="M76,18c-5.5-6.5-44-17-69.75.5"/><path class="cls-9" d="M59.22,15.49s-40.5,0-51,23.5"/><path class="cls-9" d="M45.47,22.49s-29,9.75-40,36.5"/><path class="cls-9" d="M32.72,36.49c-6.68,5-20.91,15.8-27.75,41"/><path class="cls-9" d="M24.72,50.74S6.47,78.49,1,98.74"/><path class="cls-9" d="M14.47,79.74s-6,32.75-.5,52.75"/></g><path class="cls-9" d="M16.52,73.74v27.81a47.15,47.15,0,0,0,9.27,27.51l-5.54-4c-5.51-4-11.78-10.35-13.78-17.15l1-55.33C9.47,22.08,29.22,7,57.06,7H67.47c21.75,0,31,13.25,31,13.25l-6,5.75S84,14.49,62.72,14.49c-19.55,0-26.95,20.32-39.62,34.87a15.7,15.7,0,0,0-3.82,9Z"/><path class="cls-7" d="M16.52,73.66a10.05,10.05,0,0,0-8,9.77V89.9a10,10,0,0,0,8,9.77Z"/><g class="cls-11"><path class="cls-9" d="M100.85,36.18s11.93,9.07,14.23,38.27"/><path class="cls-9" d="M114,99s2.75,11.25-2.75,30"/><path class="cls-9" d="M95.76,24s26.44,15.81,30.16,47.21"/></g></g></g></svg>