<svg xmlns="http://www.w3.org/2000/svg" xmlns:xlink="http://www.w3.org/1999/xlink" viewBox="0 0 119 149"><defs><style>.cls-1,.cls-4{fill:none;}.cls-2{clip-path:url(#clip-path);}.cls-3{fill:#fff;}.cls-4{stroke:#e65265;stroke-miterlimit:10;stroke-width:2.11px;}.cls-5{clip-path:url(#clip-path-2);}.cls-6{clip-path:url(#clip-path-5);}</style><clipPath id="clip-path" transform="translate(0)"><rect class="cls-1" width="119" height="149"/></clipPath><clipPath id="clip-path-2" transform="translate(0)"><path class="cls-1" d="M11,52.31,10.63,85A4.39,4.39,0,0,0,15,80.61V42.47s-4,7.14-4,9.84"/></clipPath><clipPath id="clip-path-5" transform="translate(0)"><path class="cls-1" d="M103.69,80.61a4.4,4.4,0,0,0,4.4,4.39V49.42c0-1.93-4.4-7-4.4-7Z"/></clipPath></defs><title>Asset 6</title><g id="Layer_2" data-name="Layer 2"><g id="Layer_1-2" data-name="Layer 1"><g class="cls-2"><path class="cls-3" d="M10.91,105.13H9.71a8.64,8.64,0,0,1-8.65-8.64V89.22a8.64,8.64,0,0,1,8.65-8.64h1.2Z" transform="translate(0)"/><path class="cls-4" d="M10.91,105.13H9.71a8.64,8.64,0,0,1-8.65-8.64V89.22a8.64,8.64,0,0,1,8.65-8.64h1.2Z" transform="translate(0)"/><path class="cls-3" d="M109.29,105.13h-1.2V80.58h1.2a8.64,8.64,0,0,1,8.65,8.64v7.27a8.64,8.64,0,0,1-8.65,8.64" transform="translate(0)"/><path class="cls-4" d="M109.29,105.13h-1.2V80.58h1.2a8.64,8.64,0,0,1,8.65,8.64v7.27A8.64,8.64,0,0,1,109.29,105.13Z" transform="translate(0)"/><path class="cls-3" d="M59.36,147.94h0A48.69,48.69,0,0,1,10.63,99.28V63.9a42.77,42.77,0,0,1,42.8-42.74H65.29a42.78,42.78,0,0,1,42.8,42.74V99.28a48.69,48.69,0,0,1-48.73,48.66" transform="translate(0)"/><path class="cls-4" d="M59.36,147.94h0A48.69,48.69,0,0,1,10.63,99.28V63.9a42.77,42.77,0,0,1,42.8-42.74H65.29a42.78,42.78,0,0,1,42.8,42.74V99.28A48.69,48.69,0,0,1,59.36,147.94Z" transform="translate(0)"/><path class="cls-3" d="M64.46,109.27h-8.4a6.3,6.3,0,0,1-6.31-6.3V82.19a6.32,6.32,0,0,0-6.32-6.31h-18" transform="translate(0)"/><path class="cls-4" d="M64.46,109.27h-8.4a6.3,6.3,0,0,1-6.31-6.3V82.19a6.32,6.32,0,0,0-6.32-6.31h-18" transform="translate(0)"/><path class="cls-3" d="M91.11,75.88H71.87A5.21,5.21,0,0,0,66.66,81" transform="translate(0)"/><path class="cls-4" d="M91.11,75.88H71.87A5.21,5.21,0,0,0,66.66,81" transform="translate(0)"/><path class="cls-3" d="M32,88.16a6.69,6.69,0,0,1,13.38,0" transform="translate(0)"/><path class="cls-4" d="M32,88.16a6.69,6.69,0,0,1,13.38,0" transform="translate(0)"/><path class="cls-3" d="M83.85,88.16a6.69,6.69,0,0,0-13.38,0" transform="translate(0)"/><path class="cls-4" d="M83.85,88.16a6.69,6.69,0,0,0-13.38,0" transform="translate(0)"/><path class="cls-3" d="M10.63,85h0A4.38,4.38,0,0,0,15,80.61V42.47s-4,7.14-4,9.84Z" transform="translate(0)"/></g><g class="cls-5"><g class="cls-2"><line class="cls-3" x1="9.12" y1="78.66" x2="17.43" y2="78.66"/><line class="cls-4" x1="9.12" y1="78.66" x2="17.43" y2="78.66"/><line class="cls-3" x1="9.12" y1="72.49" x2="17.43" y2="72.49"/><line class="cls-4" x1="9.12" y1="72.49" x2="17.43" y2="72.49"/><line class="cls-3" x1="9.12" y1="66.33" x2="17.43" y2="66.33"/><line class="cls-4" x1="9.12" y1="66.33" x2="17.43" y2="66.33"/><line class="cls-3" x1="9.12" y1="60.17" x2="17.43" y2="60.17"/><line class="cls-4" x1="9.12" y1="60.17" x2="17.43" y2="60.17"/><line class="cls-3" x1="9.12" y1="54.01" x2="17.43" y2="54.01"/><line class="cls-4" x1="9.12" y1="54.01" x2="17.43" y2="54.01"/></g></g><g class="cls-2"><path class="cls-4" d="M10.63,85h0A4.38,4.38,0,0,0,15,80.61V42.47s-4,7.14-4,9.84Z" transform="translate(0)"/><path class="cls-3" d="M108.09,85h0a4.39,4.39,0,0,1-4.4-4.39V42.47s4.4,5,4.4,7Z" transform="translate(0)"/></g><g class="cls-6"><g class="cls-2"><line class="cls-3" x1="109.59" y1="78.66" x2="101.29" y2="78.66"/><line class="cls-4" x1="109.59" y1="78.66" x2="101.29" y2="78.66"/><line class="cls-3" x1="109.59" y1="72.49" x2="101.29" y2="72.49"/><line class="cls-4" x1="109.59" y1="72.49" x2="101.29" y2="72.49"/><line class="cls-3" x1="109.59" y1="66.33" x2="101.29" y2="66.33"/><line class="cls-4" x1="109.59" y1="66.33" x2="101.29" y2="66.33"/><line class="cls-3" x1="109.59" y1="60.17" x2="101.29" y2="60.17"/><line class="cls-4" x1="109.59" y1="60.17" x2="101.29" y2="60.17"/><line class="cls-3" x1="109.59" y1="57.09" x2="101.29" y2="57.09"/><line class="cls-4" x1="109.59" y1="57.09" x2="101.29" y2="57.09"/><line class="cls-3" x1="109.59" y1="54.01" x2="101.29" y2="54.01"/><line class="cls-4" x1="109.59" y1="54.01" x2="101.29" y2="54.01"/></g></g><g class="cls-2"><path class="cls-4" d="M108.09,85h0a4.39,4.39,0,0,1-4.4-4.39V42.47s4.4,5,4.4,7Z" transform="translate(0)"/><line class="cls-3" x1="12.93" y1="41.26" x2="15.02" y2="43.69"/><line class="cls-4" x1="12.93" y1="41.26" x2="15.02" y2="43.69"/><path class="cls-3" d="M10.91,62.83,11,52.32l15.7-29.69L23.2,56.15a5.91,5.91,0,0,1-3.91,4.48Z" transform="translate(0)"/><path class="cls-4" d="M10.91,62.83,11,52.31l15.7-29.68L23.2,56.15a5.92,5.92,0,0,1-3.91,4.48Z" transform="translate(0)"/><line class="cls-3" x1="19.47" y1="56.24" x2="10.95" y2="58.33"/><line class="cls-4" x1="19.47" y1="56.24" x2="10.95" y2="58.33"/><path class="cls-3" d="M23.51,51.59a6,6,0,0,1-4,4.65" transform="translate(0)"/><path class="cls-4" d="M23.51,51.59a6,6,0,0,1-4,4.65" transform="translate(0)"/><line class="cls-3" x1="19.86" y1="51.59" x2="10.62" y2="53.02"/><line class="cls-4" x1="19.86" y1="51.59" x2="10.62" y2="53.02"/><path class="cls-3" d="M24.21,46.56a6.11,6.11,0,0,1-4.35,5" transform="translate(0)"/><path class="cls-4" d="M24.21,46.56a6.11,6.11,0,0,1-4.35,5" transform="translate(0)"/><path class="cls-3" d="M24.6,42.85c-.26,2.47-3.43.77-5.77,1.31" transform="translate(0)"/><path class="cls-4" d="M24.6,42.85c-.26,2.47-3.43.77-5.77,1.31" transform="translate(0)"/><line class="cls-3" x1="20.31" y1="44.31" x2="16.12" y2="45.13"/><line class="cls-4" x1="20.31" y1="44.31" x2="16.12" y2="45.13"/><path class="cls-3" d="M25,38.83a6.26,6.26,0,0,1-4.72,5.48" transform="translate(0)"/><path class="cls-4" d="M25,38.83a6.26,6.26,0,0,1-4.72,5.48" transform="translate(0)"/><line class="cls-3" x1="20.56" y1="40.2" x2="16.19" y2="40.87"/><line class="cls-4" x1="20.56" y1="40.2" x2="16.19" y2="40.87"/><path class="cls-3" d="M25.49,34.47a6.34,6.34,0,0,1-4.92,5.73" transform="translate(0)"/><path class="cls-4" d="M25.49,34.47a6.34,6.34,0,0,1-4.92,5.73" transform="translate(0)"/><line class="cls-3" x1="20.84" y1="35.71" x2="16.28" y2="36.21"/><line class="cls-4" x1="20.84" y1="35.71" x2="16.28" y2="36.21"/><path class="cls-3" d="M26,29.7c-.33,3.18-2.52,5.73-5.15,6" transform="translate(0)"/><path class="cls-4" d="M26,29.7c-.33,3.18-2.52,5.73-5.15,6" transform="translate(0)"/><line class="cls-3" x1="21.15" y1="30.8" x2="16.37" y2="31.08"/><line class="cls-4" x1="21.15" y1="30.8" x2="16.37" y2="31.08"/><path class="cls-3" d="M26.55,24.48c-.37,3.49-2.66,6.16-5.4,6.32" transform="translate(0)"/><path class="cls-4" d="M26.55,24.48c-.37,3.49-2.66,6.16-5.4,6.32" transform="translate(0)"/><path class="cls-3" d="M108,62.83l-.12-10.51L92.15,22.63,95.7,56.15a5.89,5.89,0,0,0,3.9,4.48Z" transform="translate(0)"/><path class="cls-4" d="M108,62.83l-.12-10.52L92.15,22.63,95.7,56.15a5.91,5.91,0,0,0,3.9,4.48Z" transform="translate(0)"/><line class="cls-3" x1="99.42" y1="56.24" x2="107.95" y2="58.33"/><line class="cls-4" x1="99.42" y1="56.24" x2="107.95" y2="58.33"/><path class="cls-3" d="M95.38,51.59a6,6,0,0,0,4,4.65" transform="translate(0)"/><path class="cls-4" d="M95.38,51.59a6,6,0,0,0,4,4.65" transform="translate(0)"/><line class="cls-3" x1="99.04" y1="51.59" x2="108.27" y2="53.02"/><line class="cls-4" x1="99.04" y1="51.59" x2="108.27" y2="53.02"/><path class="cls-3" d="M94.68,46.56a6.1,6.1,0,0,0,4.36,5" transform="translate(0)"/><path class="cls-4" d="M94.68,46.56a6.1,6.1,0,0,0,4.36,5" transform="translate(0)"/><line class="cls-3" x1="101.44" y1="45.47" x2="108.4" y2="50.02"/><line class="cls-4" x1="101.44" y1="45.47" x2="108.4" y2="50.02"/><path class="cls-3" d="M94.29,42.85c.26,2.47,2.61,2.08,4.95,2.62" transform="translate(0)"/><path class="cls-4" d="M94.29,42.85c.26,2.47,2.61,2.08,4.95,2.62" transform="translate(0)"/><line class="cls-3" x1="98.58" y1="44.31" x2="102.78" y2="45.13"/><line class="cls-4" x1="98.58" y1="44.31" x2="102.78" y2="45.13"/><path class="cls-3" d="M93.87,38.83a6.25,6.25,0,0,0,4.71,5.48" transform="translate(0)"/><path class="cls-4" d="M93.87,38.83a6.25,6.25,0,0,0,4.71,5.48" transform="translate(0)"/><line class="cls-3" x1="98.33" y1="40.2" x2="102.7" y2="40.87"/><line class="cls-4" x1="98.33" y1="40.2" x2="102.7" y2="40.87"/><path class="cls-3" d="M93.4,34.47a6.34,6.34,0,0,0,4.93,5.73" transform="translate(0)"/><path class="cls-4" d="M93.4,34.47a6.34,6.34,0,0,0,4.93,5.73" transform="translate(0)"/><line class="cls-3" x1="98.05" y1="35.71" x2="102.62" y2="36.21"/><line class="cls-4" x1="98.05" y1="35.71" x2="102.62" y2="36.21"/><path class="cls-3" d="M92.9,29.7c.34,3.18,2.52,5.73,5.15,6" transform="translate(0)"/><path class="cls-4" d="M92.9,29.7c.34,3.18,2.52,5.73,5.15,6" transform="translate(0)"/><line class="cls-3" x1="97.74" y1="30.8" x2="102.52" y2="31.08"/><line class="cls-4" x1="97.74" y1="30.8" x2="102.52" y2="31.08"/><path class="cls-3" d="M92.35,24.48C92.72,28,95,30.64,97.74,30.8" transform="translate(0)"/><path class="cls-4" d="M92.35,24.48C92.72,28,95,30.64,97.74,30.8" transform="translate(0)"/><path class="cls-3" d="M108,52.45a48.49,48.49,0,0,0-97,0L14,44l36-11.7S72.18,34,73.19,34.21,91,39,91,39l15.92,7.67Z" transform="translate(0)"/><path class="cls-4" d="M108,52.45a48.49,48.49,0,0,0-97,0L14,44l36-11.7S72.18,34,73.19,34.21,91,39,91,39l15.92,7.67Z" transform="translate(0)"/><path class="cls-3" d="M108.06,54c0-13.8-97.15-13.8-97.15,0,0-44.37,97.15-44.37,97.15,0" transform="translate(0)"/><path class="cls-4" d="M108.06,54c0-13.8-97.15-13.8-97.15,0C10.91,9.6,108.06,9.6,108.06,54Z" transform="translate(0)"/><path class="cls-3" d="M61.24,4.5H57.73V2.62a1.56,1.56,0,0,1,1.56-1.56h.39a1.56,1.56,0,0,1,1.56,1.56Z" transform="translate(0)"/><path class="cls-4" d="M61.24,4.5H57.73V2.62a1.56,1.56,0,0,1,1.56-1.56h.39a1.56,1.56,0,0,1,1.56,1.56Z" transform="translate(0)"/><path class="cls-3" d="M73.92,118.35a17.44,17.44,0,0,1-29.12.32" transform="translate(0)"/><path class="cls-4" d="M73.92,118.35a17.44,17.44,0,0,1-29.12.32" transform="translate(0)"/></g></g></g></svg>