<svg xmlns="http://www.w3.org/2000/svg" xmlns:xlink="http://www.w3.org/1999/xlink" viewBox="0 0 102.99 156.01"><defs><style>.cls-1,.cls-4{fill:none;}.cls-2{clip-path:url(#clip-path);}.cls-3{fill:#fff;}.cls-4{stroke:#e65265;stroke-miterlimit:10;stroke-width:2.02px;}</style><clipPath id="clip-path" transform="translate(0)"><rect class="cls-1" width="103" height="156"/></clipPath></defs><title>Asset 4</title><g id="Layer_2" data-name="Layer 2"><g id="Layer_1-2" data-name="Layer 1"><g class="cls-2"><path class="cls-3" d="M14.13,99.1h0A10.57,10.57,0,0,1,3.53,88.56V81.15a10.57,10.57,0,0,1,10.6-10.54Z" transform="translate(0)"/><path class="cls-4" d="M14.13,99.1h0A10.57,10.57,0,0,1,3.53,88.56V81.15a10.57,10.57,0,0,1,10.6-10.54Z" transform="translate(0)"/><path class="cls-3" d="M91.38,99.1h0V70.61A10.58,10.58,0,0,1,102,81.15v7.41A10.58,10.58,0,0,1,91.38,99.1" transform="translate(0)"/><path class="cls-4" d="M91.38,99.1h0V70.61A10.58,10.58,0,0,1,102,81.15v7.41A10.58,10.58,0,0,1,91.38,99.1Z" transform="translate(0)"/><path class="cls-3" d="M52.88,155h0A43.67,43.67,0,0,1,9.07,111.47V44.54a43.81,43.81,0,0,1,87.61,0v66.93A43.67,43.67,0,0,1,52.88,155" transform="translate(0)"/><path class="cls-4" d="M52.88,155h0A43.67,43.67,0,0,1,9.07,111.47V44.54a43.81,43.81,0,0,1,87.62,0v66.93A43.67,43.67,0,0,1,52.88,155Z" transform="translate(0)"/><polyline class="cls-3" points="58.4 110.81 49.41 110.81 49.41 69.93"/><polyline class="cls-4" points="58.4 110.81 49.41 110.81 49.41 69.93"/><path class="cls-3" d="M14.13,79.6a16,16,0,0,0,31.9,0V69.93H14.13Z" transform="translate(0)"/><path class="cls-4" d="M14.13,79.6a16,16,0,0,0,31.9,0V69.93H14.13Z" transform="translate(0)"/><path class="cls-3" d="M26.33,82.48a6.9,6.9,0,0,1,13.8,0" transform="translate(0)"/><path class="cls-4" d="M26.33,82.48a6.9,6.9,0,0,1,13.8,0" transform="translate(0)"/><path class="cls-3" d="M92,79.6a15.95,15.95,0,0,1-31.89,0V69.93H92Z" transform="translate(0)"/><path class="cls-4" d="M92,79.6a15.95,15.95,0,0,1-31.89,0V69.93H92Z" transform="translate(0)"/><path class="cls-3" d="M79.78,82.48a6.9,6.9,0,0,0-13.8,0" transform="translate(0)"/><path class="cls-4" d="M79.78,82.48a6.9,6.9,0,0,0-13.8,0" transform="translate(0)"/><path class="cls-3" d="M94.43,29h3.69a.43.43,0,0,0,.31-.74L84,13.91a43.94,43.94,0,0,0-72.39,16L1.14,40.33a.43.43,0,0,0,.31.74H5.13a.43.43,0,0,1,.31.73L1.52,45.7a.43.43,0,0,0,.31.73H9.07V72.84h.35a4.7,4.7,0,0,0,4.71-4.69V58.57A17.47,17.47,0,0,1,25.58,42.21l47-17.34a4.72,4.72,0,0,1,5.51,1.72L88.84,42A17.36,17.36,0,0,1,92,51.9V68.15a4.7,4.7,0,0,0,4.72,4.69V44.54a43.33,43.33,0,0,0-1.22-10.19h2.27a.43.43,0,0,0,.31-.74l-3.92-3.89a.43.43,0,0,1,.3-.74" transform="translate(0)"/><path class="cls-4" d="M94.43,29h3.69a.43.43,0,0,0,.31-.74L84,13.91a43.94,43.94,0,0,0-72.39,16L1.14,40.33a.43.43,0,0,0,.31.74H5.13a.43.43,0,0,1,.31.73L1.52,45.7a.43.43,0,0,0,.31.73H9.07V72.84h.35a4.7,4.7,0,0,0,4.71-4.69V58.57A17.47,17.47,0,0,1,25.58,42.21l47-17.34a4.72,4.72,0,0,1,5.51,1.72L88.84,42A17.36,17.36,0,0,1,92,51.9V68.15a4.7,4.7,0,0,0,4.72,4.69V44.54a43.33,43.33,0,0,0-1.22-10.19h2.27a.43.43,0,0,0,.31-.74l-3.92-3.89A.43.43,0,0,1,94.43,29Z" transform="translate(0)"/><rect class="cls-3" x="46.03" y="72.84" width="14.05" height="2.79"/><rect class="cls-4" x="46.03" y="72.84" width="14.05" height="2.79"/><path class="cls-3" d="M69.42,124.78a18.64,18.64,0,0,1-31,.34" transform="translate(0)"/><path class="cls-4" d="M69.42,124.78a18.64,18.64,0,0,1-31,.34" transform="translate(0)"/></g></g></g></svg>