<?xml version="1.0" encoding="utf-8"?>
<!-- Generator: Adobe Illustrator 23.0.2, SVG Export Plug-In . SVG Version: 6.00 Build 0)  -->
<svg version="1.1" id="Layer_1" xmlns="http://www.w3.org/2000/svg" xmlns:xlink="http://www.w3.org/1999/xlink" x="0px" y="0px"
	 viewBox="0 0 105 147.5" style="enable-background:new 0 0 105 147.5;" xml:space="preserve">
<style type="text/css">
	.st0{clip-path:url(#SVGID_2_);}
	.st1{fill:#FFFFFF;}
	.st2{fill:none;stroke:#E65265;stroke-width:2.02;stroke-miterlimit:10;}
	.st3{clip-path:url(#SVGID_4_);}
	.st4{clip-path:url(#SVGID_6_);}
	.st5{clip-path:url(#SVGID_8_);}
	.st6{fill:none;stroke:#E65265;stroke-width:2.02;stroke-linecap:round;stroke-miterlimit:10;}
	.st7{clip-path:url(#SVGID_10_);}
	.st8{clip-path:url(#SVGID_12_);}
	.st9{fill:none;}
	.st10{clip-path:url(#SVGID_14_);}
</style>
<title>Asset 8</title>
<g>
	<g id="Layer_1-2">
		<g>
			<defs>
				<rect id="SVGID_1_" y="-3.5" width="105" height="151"/>
			</defs>
			<clipPath id="SVGID_2_">
				<use xlink:href="#SVGID_1_"  style="overflow:visible;"/>
			</clipPath>
			<g class="st0">
				<path class="st1" d="M11,91.8L11,91.8c-5.5,0-10-4.5-10-10v-5c0-5.5,4.5-10,10-10V91.8z"/>
				<path class="st2" d="M11,91.8L11,91.8c-5.5,0-10-4.5-10-10v-5c0-5.5,4.5-10,10-10V91.8z"/>
				<path class="st1" d="M94,91.8L94,91.8v-25c5.5,0,10,4.5,10,10v5C104,87.3,99.5,91.8,94,91.8"/>
				<path class="st2" d="M94,91.8L94,91.8v-25c5.5,0,10,4.5,10,10v5C104,87.3,99.5,91.8,94,91.8z"/>
				<path class="st1" d="M52.3,146.5L52.3,146.5c-24.2,0-43.9-19.7-43.8-44c0,0,0,0,0,0V49.2C8.1,25,27.5,5.1,51.7,4.7
					c24.2-0.4,44.1,19,44.5,43.2c0,0.4,0,0.9,0,1.3v53.3C96.2,126.7,76.6,146.4,52.3,146.5C52.3,146.5,52.3,146.5,52.3,146.5"/>
				<path class="st2" d="M52.3,146.5L52.3,146.5c-24.2,0-43.9-19.7-43.8-44c0,0,0,0,0,0V49.2C8.1,25,27.5,5.1,51.7,4.7
					c24.2-0.4,44.1,19,44.5,43.2c0,0.4,0,0.9,0,1.3v53.3C96.2,126.7,76.6,146.4,52.3,146.5C52.3,146.5,52.3,146.5,52.3,146.5z"/>
			</g>
		</g>
		<g>
			<defs>
				<path id="SVGID_3_" d="M7.5,47.8h89.2C97,23.2,77.3,2.9,52.7,2.6S7.8,21.8,7.5,46.5C7.5,46.9,7.5,47.4,7.5,47.8"/>
			</defs>
			<clipPath id="SVGID_4_">
				<use xlink:href="#SVGID_3_"  style="overflow:visible;"/>
			</clipPath>
			<g class="st3">
				<g>
					<defs>
						<rect id="SVGID_5_" y="-3.5" width="105" height="151"/>
					</defs>
					<clipPath id="SVGID_6_">
						<use xlink:href="#SVGID_5_"  style="overflow:visible;"/>
					</clipPath>
					<g class="st4">
						<line class="st2" x1="52" y1="-2.6" x2="52" y2="56.9"/>
						<path class="st2" d="M46.5,55.8c0-3.1,0.8-57.6,3.5-58.3"/>
						<path class="st2" d="M40.9,54.6c0-6.2,1.5-55.6,7-57.1"/>
						<path class="st2" d="M35.3,53.5c0-9.3,2.3-53.6,10.5-55.9"/>
						<path class="st2" d="M29.8,52.4c0-12.4,3.1-51.7,14-54.7"/>
						<path class="st2" d="M24.2,51.2c0-15.4,3.9-49.7,17.5-53.4"/>
						<path class="st2" d="M18.6,50.1c0-18.5,4.7-47.7,20.9-52.2"/>
						<path class="st2" d="M13,48.9c0-21.6,5.4-45.7,24.4-51"/>
						<path class="st2" d="M7.5,47.8c0-24.7,6.2-43.7,27.9-49.7"/>
						<line class="st2" x1="52" y1="-2.6" x2="52" y2="56.9"/>
						<path class="st2" d="M57.6,55.8c0-3.1-0.8-57.6-3.5-58.3"/>
						<path class="st2" d="M63.2,54.6c0-6.2-1.5-55.6-7-57.1"/>
						<path class="st2" d="M68.8,53.5c0-9.3-2.3-53.6-10.5-55.9"/>
						<path class="st2" d="M74.3,52.4c0-12.4-3.1-51.7-14-54.7"/>
						<path class="st2" d="M79.9,51.2c0-15.4-3.9-49.7-17.5-53.4"/>
						<path class="st2" d="M85.5,50.1c0-18.5-4.7-47.7-20.9-52.2"/>
						<path class="st2" d="M91,48.9c0-21.6-5.4-45.7-24.4-51"/>
						<path class="st2" d="M96.6,47.8c0-24.7-6.2-43.7-27.9-49.7"/>
					</g>
				</g>
			</g>
		</g>
		<g>
			<defs>
				<rect id="SVGID_7_" y="-3.5" width="105" height="151"/>
			</defs>
			<clipPath id="SVGID_8_">
				<use xlink:href="#SVGID_7_"  style="overflow:visible;"/>
			</clipPath>
			<g class="st5">
				<path class="st2" d="M7.2,48.1C6.8,23.5,26.5,3.2,51.1,2.8S96,22.1,96.3,46.8c0,0.4,0,0.9,0,1.3H7.2z"/>
				<path class="st1" d="M73.6,78.5c0,3.6-2.9,6.5-6.5,6.5s-6.5-2.9-6.5-6.5l0,0"/>
				<path class="st6" d="M73.6,78.5c0,3.6-2.9,6.5-6.5,6.5s-6.5-2.9-6.5-6.5l0,0"/>
				<path class="st1" d="M43.6,78.5c0,3.6-2.9,6.5-6.5,6.5s-6.5-2.9-6.5-6.5l0,0"/>
				<path class="st6" d="M43.6,78.5c0,3.6-2.9,6.5-6.5,6.5s-6.5-2.9-6.5-6.5l0,0"/>
				<path class="st2" d="M58.2,106.7h-7.3c-2.3,0-4.1-1.8-4.1-4.1V73.7H21.1"/>
				<path class="st1" d="M98.8,59.6H5.2c-2.3,0-4.2-1.9-4.2-4.2v0v-9.2c0-2.3,1.9-4.2,4.2-4.2c0,0,0,0,0,0h93.6
					c2.3,0,4.2,1.9,4.2,4.2c0,0,0,0,0,0v9.2C103.1,57.7,101.2,59.6,98.8,59.6"/>
			</g>
		</g>
		<g>
			<defs>
				<path id="SVGID_9_" d="M5.2,41.9c-2.3,0-4.2,1.9-4.2,4.2c0,0,0,0,0,0v9.2c0,2.3,1.9,4.2,4.2,4.2c0,0,0,0,0,0h93.6
					c2.3,0,4.2-1.9,4.2-4.2c0,0,0,0,0,0v-9.2c0-2.3-1.9-4.2-4.2-4.2c0,0,0,0,0,0L5.2,41.9z"/>
			</defs>
			<clipPath id="SVGID_10_">
				<use xlink:href="#SVGID_9_"  style="overflow:visible;"/>
			</clipPath>
			<g class="st7">
				<g>
					<defs>
						<rect id="SVGID_11_" y="-3.5" width="105" height="151"/>
					</defs>
					<clipPath id="SVGID_12_">
						<use xlink:href="#SVGID_11_"  style="overflow:visible;"/>
					</clipPath>
					<g class="st8">
						<line class="st9" x1="1" y1="37.5" x2="1" y2="64"/>
						<line class="st2" x1="1" y1="37.5" x2="1" y2="64"/>
						<line class="st9" x1="7.4" y1="37.5" x2="7.4" y2="64"/>
						<line class="st2" x1="7.4" y1="37.5" x2="7.4" y2="64"/>
						<line class="st9" x1="13.8" y1="37.5" x2="13.8" y2="64"/>
						<line class="st2" x1="13.8" y1="37.5" x2="13.8" y2="64"/>
						<line class="st9" x1="20.1" y1="37.5" x2="20.1" y2="64"/>
						<line class="st2" x1="20.1" y1="37.5" x2="20.1" y2="64"/>
						<line class="st9" x1="26.5" y1="37.5" x2="26.5" y2="64"/>
						<line class="st2" x1="26.5" y1="37.5" x2="26.5" y2="64"/>
						<line class="st9" x1="32.9" y1="37.5" x2="32.9" y2="64"/>
						<line class="st2" x1="32.9" y1="37.5" x2="32.9" y2="64"/>
						<line class="st9" x1="39.3" y1="37.5" x2="39.3" y2="64"/>
						<line class="st2" x1="39.3" y1="37.5" x2="39.3" y2="64"/>
						<line class="st9" x1="45.7" y1="37.5" x2="45.7" y2="64"/>
						<line class="st2" x1="45.7" y1="37.5" x2="45.7" y2="64"/>
						<line class="st9" x1="52" y1="37.5" x2="52" y2="64"/>
						<line class="st2" x1="52" y1="37.5" x2="52" y2="64"/>
						<line class="st9" x1="58.4" y1="37.5" x2="58.4" y2="64"/>
						<line class="st2" x1="58.4" y1="37.5" x2="58.4" y2="64"/>
						<line class="st9" x1="64.8" y1="37.5" x2="64.8" y2="64"/>
						<line class="st2" x1="64.8" y1="37.5" x2="64.8" y2="64"/>
						<line class="st9" x1="71.2" y1="37.5" x2="71.2" y2="64"/>
						<line class="st2" x1="71.2" y1="37.5" x2="71.2" y2="64"/>
						<line class="st9" x1="77.6" y1="37.5" x2="77.6" y2="64"/>
						<line class="st2" x1="77.6" y1="37.5" x2="77.6" y2="64"/>
						<line class="st9" x1="83.9" y1="37.5" x2="83.9" y2="64"/>
						<line class="st2" x1="83.9" y1="37.5" x2="83.9" y2="64"/>
						<line class="st9" x1="90.3" y1="37.5" x2="90.3" y2="64"/>
						<line class="st2" x1="90.3" y1="37.5" x2="90.3" y2="64"/>
						<line class="st9" x1="96.7" y1="37.5" x2="96.7" y2="64"/>
						<line class="st2" x1="96.7" y1="37.5" x2="96.7" y2="64"/>
						<line class="st9" x1="103.1" y1="37.5" x2="103.1" y2="64"/>
						<line class="st2" x1="103.1" y1="37.5" x2="103.1" y2="64"/>
					</g>
				</g>
			</g>
		</g>
		<g>
			<defs>
				<rect id="SVGID_13_" y="-3.5" width="105" height="151"/>
			</defs>
			<clipPath id="SVGID_14_">
				<use xlink:href="#SVGID_13_"  style="overflow:visible;"/>
			</clipPath>
			<g class="st10">
				<path class="st2" d="M98.8,59.6H5.2c-2.3,0-4.2-1.9-4.2-4.2v0v-9.2c0-2.3,1.9-4.2,4.2-4.2c0,0,0,0,0,0h93.6
					c2.3,0,4.2,1.9,4.2,4.2c0,0,0,0,0,0v9.2C103.1,57.7,101.2,59.6,98.8,59.6z"/>
				<line class="st9" x1="83.8" y1="73.7" x2="58.2" y2="73.7"/>
				<line class="st2" x1="83.8" y1="73.7" x2="58.2" y2="73.7"/>
				<path class="st1" d="M67.6,120.7c-5.3,8.4-16.4,10.9-24.8,5.6c-2.1-1.4-4-3.1-5.3-5.2"/>
				<path class="st2" d="M67.6,120.7c-5.3,8.4-16.4,10.9-24.8,5.6c-2.1-1.4-4-3.1-5.3-5.2"/>
			</g>
		</g>
	</g>
</g>
</svg>
