<?xml version="1.0" encoding="utf-8"?>
<!-- Generator: Adobe Illustrator 23.0.2, SVG Export Plug-In . SVG Version: 6.00 Build 0)  -->
<svg version="1.1" id="Layer_1" xmlns="http://www.w3.org/2000/svg" xmlns:xlink="http://www.w3.org/1999/xlink" x="0px" y="0px"
	 viewBox="0 0 118 146.1" style="enable-background:new 0 0 118 146.1;" xml:space="preserve">
<style type="text/css">
	.st0{clip-path:url(#SVGID_2_);}
	.st1{fill:#FFFFFF;}
	.st2{fill:none;stroke:#E65265;stroke-width:2.01;stroke-miterlimit:10;}
	.st3{fill:none;}
	.st4{clip-path:url(#SVGID_4_);}
	.st5{clip-path:url(#SVGID_6_);}
	.st6{clip-path:url(#SVGID_8_);}
	.st7{clip-path:url(#SVGID_10_);}
	.st8{clip-path:url(#SVGID_12_);}
	.st9{clip-path:url(#SVGID_14_);}
	.st10{clip-path:url(#SVGID_16_);}
	.st11{clip-path:url(#SVGID_18_);}
	.st12{clip-path:url(#SVGID_20_);}
</style>
<title>Asset 3</title>
<g>
	<g id="Layer_1-2">
		<g>
			<defs>
				<rect id="SVGID_1_" y="-19.9" width="118" height="166"/>
			</defs>
			<clipPath id="SVGID_2_">
				<use xlink:href="#SVGID_1_"  style="overflow:visible;"/>
			</clipPath>
			<g class="st0">
				<path class="st1" d="M10.8,91.7L10.8,91.7c-5.4,0-9.8-4.4-9.8-9.8c0,0,0,0,0,0v-4.8c0-5.4,4.4-9.8,9.8-9.8c0,0,0,0,0,0V91.7z"/>
				<path class="st2" d="M10.8,91.7L10.8,91.7c-5.4,0-9.8-4.4-9.8-9.8c0,0,0,0,0,0v-4.8c0-5.4,4.4-9.8,9.8-9.8c0,0,0,0,0,0V91.7z"/>
				<path class="st1" d="M107.2,91.7L107.2,91.7V67.3c5.4,0,9.8,4.4,9.8,9.8c0,0,0,0,0,0v4.8C117,87.3,112.6,91.7,107.2,91.7
					L107.2,91.7"/>
				<path class="st2" d="M107.2,91.7L107.2,91.7V67.3c5.4,0,9.8,4.4,9.8,9.8c0,0,0,0,0,0v4.8C117,87.3,112.6,91.7,107.2,91.7z"/>
				<path class="st1" d="M58.9,145.1L58.9,145.1c-26.7,0-48.3-21.6-48.4-48.3v0V53.4C10.5,26.7,32.2,5,58.9,5
					c26.7,0,48.4,21.7,48.4,48.4v43.4C107.2,123.5,85.6,145.1,58.9,145.1C58.9,145.1,58.9,145.1,58.9,145.1"/>
				<path class="st2" d="M58.9,145.1L58.9,145.1c-26.7,0-48.3-21.6-48.4-48.3v0V53.4C10.5,26.7,32.2,5,58.9,5
					c26.7,0,48.4,21.7,48.4,48.4v43.4C107.2,123.5,85.6,145.1,58.9,145.1C58.9,145.1,58.9,145.1,58.9,145.1z"/>
				<path class="st1" d="M63.9,106.7H53.8c-2.5,0-4.5-2-4.5-4.5c0,0,0,0,0,0V71.3H21.5v-7.7h27.8v17.1"/>
				<path class="st2" d="M63.9,106.7H53.8c-2.5,0-4.5-2-4.5-4.5c0,0,0,0,0,0V71.3H21.5v-7.7h27.8v17.1"/>
				<path class="st1" d="M70.9,117.8c-0.2,7.3-6.3,13.1-13.6,12.9c-7-0.2-12.7-5.9-12.9-12.9H70.9z"/>
				<path class="st2" d="M70.9,117.8c-0.2,7.3-6.3,13.1-13.6,12.9c-7-0.2-12.7-5.9-12.9-12.9H70.9z"/>
				<rect x="65.9" y="63.6" class="st1" width="28.3" height="7.7"/>
				<rect x="65.9" y="63.6" class="st2" width="28.3" height="7.7"/>
				<path class="st1" d="M31.7,84.9c0-3.7,3-6.6,6.6-6.6c3.7,0,6.6,3,6.6,6.6"/>
				<path class="st2" d="M31.7,84.9c0-3.7,3-6.6,6.6-6.6c3.7,0,6.6,3,6.6,6.6"/>
				<path class="st1" d="M83.2,84.9c0-3.7-3-6.6-6.6-6.6c-3.7,0-6.6,3-6.6,6.6"/>
				<path class="st2" d="M83.2,84.9c0-3.7-3-6.6-6.6-6.6c-3.7,0-6.6,3-6.6,6.6"/>
				<line class="st3" x1="24.5" y1="63.6" x2="24.5" y2="71.5"/>
				<line class="st2" x1="24.5" y1="63.6" x2="24.5" y2="71.5"/>
				<line class="st3" x1="27.6" y1="63.6" x2="27.6" y2="71.5"/>
				<line class="st2" x1="27.6" y1="63.6" x2="27.6" y2="71.5"/>
				<line class="st3" x1="30.7" y1="63.6" x2="30.7" y2="71.5"/>
				<line class="st2" x1="30.7" y1="63.6" x2="30.7" y2="71.5"/>
				<line class="st3" x1="33.8" y1="63.6" x2="33.8" y2="71.5"/>
				<line class="st2" x1="33.8" y1="63.6" x2="33.8" y2="71.5"/>
				<line class="st3" x1="36.9" y1="63.6" x2="36.9" y2="71.5"/>
				<line class="st2" x1="36.9" y1="63.6" x2="36.9" y2="71.5"/>
				<line class="st3" x1="40" y1="63.6" x2="40" y2="71.5"/>
				<line class="st2" x1="40" y1="63.6" x2="40" y2="71.5"/>
				<line class="st3" x1="43.1" y1="63.6" x2="43.1" y2="71.5"/>
				<line class="st2" x1="43.1" y1="63.6" x2="43.1" y2="71.5"/>
				<line class="st3" x1="46.2" y1="63.6" x2="46.2" y2="71.5"/>
				<line class="st2" x1="46.2" y1="63.6" x2="46.2" y2="71.5"/>
				<line class="st3" x1="68.9" y1="63.6" x2="68.9" y2="71.5"/>
				<line class="st2" x1="68.9" y1="63.6" x2="68.9" y2="71.5"/>
				<line class="st3" x1="72.2" y1="63.6" x2="72.2" y2="71.5"/>
				<line class="st2" x1="72.2" y1="63.6" x2="72.2" y2="71.5"/>
				<line class="st3" x1="75.4" y1="63.6" x2="75.4" y2="71.5"/>
				<line class="st2" x1="75.4" y1="63.6" x2="75.4" y2="71.5"/>
				<line class="st3" x1="78.6" y1="63.6" x2="78.6" y2="71.5"/>
				<line class="st2" x1="78.6" y1="63.6" x2="78.6" y2="71.5"/>
				<line class="st3" x1="81.8" y1="63.6" x2="81.8" y2="71.5"/>
				<line class="st2" x1="81.8" y1="63.6" x2="81.8" y2="71.5"/>
				<line class="st3" x1="85" y1="63.6" x2="85" y2="71.5"/>
				<line class="st2" x1="85" y1="63.6" x2="85" y2="71.5"/>
				<line class="st3" x1="88.3" y1="63.6" x2="88.3" y2="71.5"/>
				<line class="st2" x1="88.3" y1="63.6" x2="88.3" y2="71.5"/>
				<line class="st3" x1="91.5" y1="63.6" x2="91.5" y2="71.5"/>
				<line class="st2" x1="91.5" y1="63.6" x2="91.5" y2="71.5"/>
				<path class="st1" d="M10.5,68.1L10.5,68.1c2.4,0,4.4-2,4.4-4.4l0,0V28l-1.4,1.3c-1.9,1.9-3,4.5-3,7.2L10.5,68.1z"/>
			</g>
		</g>
		<g>
			<defs>
				<path id="SVGID_3_" d="M13.5,29.3c-1.9,1.9-3,4.5-3,7.2v31.6c2.4,0,4.4-2,4.4-4.4l0,0V28L13.5,29.3z"/>
			</defs>
			<clipPath id="SVGID_4_">
				<use xlink:href="#SVGID_3_"  style="overflow:visible;"/>
			</clipPath>
			<g class="st4">
				<g>
					<defs>
						<rect id="SVGID_5_" y="-19.9" width="118" height="166"/>
					</defs>
					<clipPath id="SVGID_6_">
						<use xlink:href="#SVGID_5_"  style="overflow:visible;"/>
					</clipPath>
					<g class="st5">
						<line class="st3" x1="9" y1="63.1" x2="17.2" y2="63.1"/>
						<line class="st2" x1="9" y1="63.1" x2="17.2" y2="63.1"/>
						<line class="st3" x1="9" y1="57" x2="17.2" y2="57"/>
						<line class="st2" x1="9" y1="57" x2="17.2" y2="57"/>
						<line class="st3" x1="9" y1="50.9" x2="17.2" y2="50.9"/>
						<line class="st2" x1="9" y1="50.9" x2="17.2" y2="50.9"/>
						<line class="st3" x1="9" y1="44.8" x2="17.2" y2="44.8"/>
						<line class="st2" x1="9" y1="44.8" x2="17.2" y2="44.8"/>
						<line class="st3" x1="9" y1="38.7" x2="17.2" y2="38.7"/>
						<line class="st2" x1="9" y1="38.7" x2="17.2" y2="38.7"/>
					</g>
				</g>
			</g>
		</g>
		<g>
			<defs>
				<rect id="SVGID_7_" y="-19.9" width="118" height="166"/>
			</defs>
			<clipPath id="SVGID_8_">
				<use xlink:href="#SVGID_7_"  style="overflow:visible;"/>
			</clipPath>
			<g class="st6">
				<path class="st2" d="M10.5,68.1L10.5,68.1c2.4,0,4.4-2,4.4-4.4l0,0V28l-1.4,1.3c-1.9,1.9-3,4.5-3,7.2L10.5,68.1z"/>
				<line class="st3" x1="12.8" y1="34.9" x2="14.9" y2="37.3"/>
				<line class="st2" x1="12.8" y1="34.9" x2="14.9" y2="37.3"/>
				<path class="st1" d="M13,29.8c-1.4,1.4-1.5,3.6-0.2,5.1"/>
				<path class="st2" d="M13,29.8c-1.4,1.4-1.5,3.6-0.2,5.1"/>
				<path class="st1" d="M14.9,37.3l20.5-20.5l-4.7-4.7L13,29.8c-1.4,1.4-1.5,3.6-0.2,5.1L14.9,37.3z"/>
				<path class="st2" d="M14.9,37.3l20.5-20.5l-4.7-4.7L13,29.8c-1.4,1.4-1.5,3.6-0.2,5.1L14.9,37.3z"/>
				<line class="st3" x1="17" y1="30.7" x2="19.1" y2="33.1"/>
				<line class="st2" x1="17" y1="30.7" x2="19.1" y2="33.1"/>
				<path class="st1" d="M17.2,25.6c-1.4,1.4-1.5,3.6-0.2,5.1"/>
				<path class="st2" d="M17.2,25.6c-1.4,1.4-1.5,3.6-0.2,5.1"/>
				<line class="st3" x1="19.1" y1="28.6" x2="21.2" y2="31"/>
				<line class="st2" x1="19.1" y1="28.6" x2="21.2" y2="31"/>
				<path class="st1" d="M19.3,23.4c-1.4,1.4-1.5,3.6-0.2,5.1"/>
				<path class="st2" d="M19.3,23.4c-1.4,1.4-1.5,3.6-0.2,5.1"/>
				<line class="st3" x1="21.3" y1="26.4" x2="23.3" y2="28.9"/>
				<line class="st2" x1="21.3" y1="26.4" x2="23.3" y2="28.9"/>
				<path class="st1" d="M21.5,21.3c-1.4,1.4-1.5,3.6-0.2,5.1"/>
				<path class="st2" d="M21.5,21.3c-1.4,1.4-1.5,3.6-0.2,5.1"/>
				<line class="st3" x1="23.4" y1="24.3" x2="25.5" y2="26.7"/>
				<line class="st2" x1="23.4" y1="24.3" x2="25.5" y2="26.7"/>
				<path class="st1" d="M23.6,19.2c-1.4,1.4-1.5,3.6-0.2,5.1"/>
				<path class="st2" d="M23.6,19.2c-1.4,1.4-1.5,3.6-0.2,5.1"/>
				<line class="st3" x1="25.5" y1="22.2" x2="27.6" y2="24.6"/>
				<line class="st2" x1="25.5" y1="22.2" x2="27.6" y2="24.6"/>
				<path class="st1" d="M25.7,17.1c-1.4,1.4-1.5,3.6-0.2,5.1"/>
				<path class="st2" d="M25.7,17.1c-1.4,1.4-1.5,3.6-0.2,5.1"/>
				<line class="st3" x1="27.6" y1="20.1" x2="29.7" y2="22.5"/>
				<line class="st2" x1="27.6" y1="20.1" x2="29.7" y2="22.5"/>
				<path class="st1" d="M27.8,15c-1.4,1.4-1.5,3.6-0.2,5.1"/>
				<path class="st2" d="M27.8,15c-1.4,1.4-1.5,3.6-0.2,5.1"/>
				<line class="st3" x1="29.7" y1="18" x2="31.8" y2="20.4"/>
				<line class="st2" x1="29.7" y1="18" x2="31.8" y2="20.4"/>
				<path class="st1" d="M29.9,12.9c-1.4,1.4-1.5,3.6-0.2,5.1"/>
				<path class="st2" d="M29.9,12.9c-1.4,1.4-1.5,3.6-0.2,5.1"/>
				<path class="st1" d="M107.2,68.1L107.2,68.1c-2.4,0-4.4-2-4.4-4.4l0,0V28l1.3,1.3c1.9,1.9,3,4.5,3,7.2L107.2,68.1z"/>
			</g>
		</g>
		<g>
			<defs>
				<path id="SVGID_9_" d="M102.9,63.7c0,2.4,2,4.4,4.4,4.3V36.5c0-2.7-1.1-5.3-3-7.2l-1.3-1.3L102.9,63.7z"/>
			</defs>
			<clipPath id="SVGID_10_">
				<use xlink:href="#SVGID_9_"  style="overflow:visible;"/>
			</clipPath>
			<g class="st7">
				<g>
					<defs>
						<rect id="SVGID_11_" y="-19.9" width="118" height="166"/>
					</defs>
					<clipPath id="SVGID_12_">
						<use xlink:href="#SVGID_11_"  style="overflow:visible;"/>
					</clipPath>
					<g class="st8">
						<line class="st3" x1="108.7" y1="63.1" x2="100.5" y2="63.1"/>
						<line class="st2" x1="108.7" y1="63.1" x2="100.5" y2="63.1"/>
						<line class="st3" x1="108.7" y1="57" x2="100.5" y2="57"/>
						<line class="st2" x1="108.7" y1="57" x2="100.5" y2="57"/>
						<line class="st3" x1="108.7" y1="50.9" x2="100.5" y2="50.9"/>
						<line class="st2" x1="108.7" y1="50.9" x2="100.5" y2="50.9"/>
						<line class="st3" x1="108.7" y1="44.8" x2="100.5" y2="44.8"/>
						<line class="st2" x1="108.7" y1="44.8" x2="100.5" y2="44.8"/>
						<line class="st3" x1="108.7" y1="38.7" x2="100.5" y2="38.7"/>
						<line class="st2" x1="108.7" y1="38.7" x2="100.5" y2="38.7"/>
					</g>
				</g>
			</g>
		</g>
		<g>
			<defs>
				<rect id="SVGID_13_" y="-19.9" width="118" height="166"/>
			</defs>
			<clipPath id="SVGID_14_">
				<use xlink:href="#SVGID_13_"  style="overflow:visible;"/>
			</clipPath>
			<g class="st9">
				<path class="st2" d="M107.2,68.1L107.2,68.1c-2.4,0-4.4-2-4.4-4.4l0,0V28l1.3,1.3c1.9,1.9,3,4.5,3,7.2L107.2,68.1z"/>
				<path class="st1" d="M103.2,37.3L82.8,16.9l4.7-4.7l17.7,17.6c1.4,1.4,1.5,3.6,0.2,5.1L103.2,37.3z"/>
				<path class="st2" d="M103.2,37.3L82.8,16.9l4.7-4.7l17.7,17.6c1.4,1.4,1.5,3.6,0.2,5.1L103.2,37.3z"/>
				<line class="st3" x1="101.1" y1="30.7" x2="99" y2="33.1"/>
				<line class="st2" x1="101.1" y1="30.7" x2="99" y2="33.1"/>
				<path class="st1" d="M100.9,25.6c1.4,1.4,1.5,3.6,0.2,5.1"/>
				<path class="st2" d="M100.9,25.6c1.4,1.4,1.5,3.6,0.2,5.1"/>
				<line class="st3" x1="96.8" y1="26.4" x2="94.8" y2="28.9"/>
				<line class="st2" x1="96.8" y1="26.4" x2="94.8" y2="28.9"/>
				<path class="st1" d="M96.7,21.3c1.4,1.4,1.5,3.6,0.2,5.1"/>
				<path class="st2" d="M96.7,21.3c1.4,1.4,1.5,3.6,0.2,5.1"/>
				<line class="st3" x1="92.6" y1="22.2" x2="90.5" y2="24.6"/>
				<line class="st2" x1="92.6" y1="22.2" x2="90.5" y2="24.6"/>
				<path class="st1" d="M92.4,17.1c1.4,1.4,1.5,3.6,0.2,5.1"/>
				<path class="st2" d="M92.4,17.1c1.4,1.4,1.5,3.6,0.2,5.1"/>
				<line class="st3" x1="90.5" y1="20.1" x2="88.4" y2="22.5"/>
				<line class="st2" x1="90.5" y1="20.1" x2="88.4" y2="22.5"/>
				<path class="st1" d="M90.3,15c1.4,1.4,1.5,3.6,0.2,5.1"/>
				<path class="st2" d="M90.3,15c1.4,1.4,1.5,3.6,0.2,5.1"/>
				<line class="st3" x1="88.4" y1="18" x2="86.3" y2="20.4"/>
				<line class="st2" x1="88.4" y1="18" x2="86.3" y2="20.4"/>
				<path class="st1" d="M88.2,12.9c1.4,1.4,1.5,3.6,0.2,5.1"/>
				<path class="st2" d="M88.2,12.9c1.4,1.4,1.5,3.6,0.2,5.1"/>
				<path class="st1" d="M13.4,29.3c9.9,5.8,22.7,9.2,36.6,9.2c19.3,0,36.4-6.7,46.8-16.9C87.4,9.7,73.3,2.1,57.6,2.1
					C19.3,2.1,13.4,21.3,13.4,29.3"/>
			</g>
		</g>
		<g>
			<defs>
				<path id="SVGID_15_" d="M13.4,29.3c9.9,5.8,22.7,9.2,36.6,9.2c19.3,0,36.4-6.7,46.8-16.9C87.4,9.7,73.3,2.1,57.6,2.1
					C19.3,2.1,13.4,21.3,13.4,29.3"/>
			</defs>
			<clipPath id="SVGID_16_">
				<use xlink:href="#SVGID_15_"  style="overflow:visible;"/>
			</clipPath>
			<g class="st10">
				<g>
					<defs>
						<rect id="SVGID_17_" y="-19.9" width="118" height="166"/>
					</defs>
					<clipPath id="SVGID_18_">
						<use xlink:href="#SVGID_17_"  style="overflow:visible;"/>
					</clipPath>
					<g class="st11">
						<line class="st2" x1="24" y1="40.2" x2="10.1" y2="18"/>
						<path class="st2" d="M28.6,41.1l-1.3-3.2c0-2-7.9-15.3-9.4-16.8l-5.9-8"/>
						<path class="st2" d="M33.2,42.1L32.1,38c0-4-7.7-17.6-10.5-20.5L14,8.1"/>
						<path class="st2" d="M37.8,43l-0.9-4.9c0-6.1-7.4-19.9-11.7-24.2L16,3.2"/>
						<path class="st2" d="M42.4,43.9l-0.7-5.7c0-8.1-7.2-22.2-12.9-27.9l-10.8-12"/>
						<path class="st2" d="M47,44.8l-0.5-6.5c0-10.1-6.9-24.5-14.1-31.6L19.9-6.7"/>
						<path class="st2" d="M51.6,45.7l-0.3-7.3c0-12.2-6.6-26.7-15.2-35.3L21.9-11.6"/>
						<path class="st2" d="M56.2,46.6L56,38.5c0-14.2-6.4-29-16.4-39l-15.8-16"/>
						<path class="st2" d="M61.3,48.1v-8.7c0-15.6-6.2-30.6-17.3-41.6L27.1-19.2"/>
						<path class="st2" d="M65.3,46.5l0.2-8.2c0-13.4-4.3-30-13.8-39.5l-14-16.5"/>
						<path class="st2" d="M69.3,45l0.4-7.6c0-11.2-2.5-29.5-10.4-37.4L48.2-16"/>
						<path class="st2" d="M73.3,43.5l0.5-7.1c0-8.9-0.6-28.9-6.9-35.2l-8.2-15.6"/>
						<path class="st2" d="M77.3,41.9l0.7-6.6c0-6.7,1.2-28.4-3.5-33.1l-5.2-15.1"/>
						<path class="st2" d="M81.3,40.4l0.9-6c0-4.5,3.1-27.8-0.1-30.9l-2.3-14.7"/>
						<path class="st2" d="M85.3,38.9l1.1-5.5c0-2.2,5-27.2,3.4-28.8l0.6-14.2"/>
						<line class="st2" x1="89.3" y1="37.3" x2="100.9" y2="-8.1"/>
					</g>
				</g>
			</g>
		</g>
		<g>
			<defs>
				<rect id="SVGID_19_" y="-19.9" width="118" height="166"/>
			</defs>
			<clipPath id="SVGID_20_">
				<use xlink:href="#SVGID_19_"  style="overflow:visible;"/>
			</clipPath>
			<g class="st12">
				<path class="st2" d="M13.4,29.3c9.9,5.8,22.7,9.2,36.6,9.2c19.3,0,36.4-6.7,46.8-16.9C87.4,9.7,73.3,2.1,57.6,2.1
					C19.3,2.1,13.4,21.3,13.4,29.3z"/>
			</g>
		</g>
	</g>
</g>
</svg>
