<svg xmlns="http://www.w3.org/2000/svg" xmlns:xlink="http://www.w3.org/1999/xlink" viewBox="0 0 111.99 141.01"><defs><style>.cls-1,.cls-4,.cls-5{fill:none;}.cls-2{clip-path:url(#clip-path);}.cls-3{fill:#fff;}.cls-4,.cls-5{stroke:#e65265;stroke-miterlimit:10;stroke-width:2.02px;}.cls-5{stroke-linecap:round;}</style><clipPath id="clip-path" transform="translate(0)"><rect class="cls-1" width="112" height="141"/></clipPath></defs><title>Asset 5</title><g id="Layer_2" data-name="Layer 2"><g id="Layer_1-2" data-name="Layer 1"><g class="cls-2"><path class="cls-3" d="M11.66,95.07h-.6a10,10,0,0,1-10-10V78.64a10,10,0,0,1,10.05-10h.6Z" transform="translate(0)"/><path class="cls-4" d="M11.66,95.07h-.6a10,10,0,0,1-10-10V78.64a10,10,0,0,1,10.05-10h.6Z" transform="translate(0)"/><path class="cls-3" d="M100.94,95.07h-.6V68.66h.6a10,10,0,0,1,10,10v6.44a10,10,0,0,1-10,10" transform="translate(0)"/><path class="cls-4" d="M100.94,95.07h-.6V68.66h.6a10,10,0,0,1,10,10v6.44A10,10,0,0,1,100.94,95.07Z" transform="translate(0)"/><path class="cls-3" d="M56.5,140h-1C34.9,140,8.9,120.61,8.9,96.7V49.47A43.44,43.44,0,0,1,52.48,6.17h7a43.44,43.44,0,0,1,43.58,43.3V96.7c0,23.91-27.63,43.3-46.6,43.3" transform="translate(0)"/><path class="cls-4" d="M56.5,140h-1C34.9,140,8.9,120.61,8.9,96.7V49.47A43.44,43.44,0,0,1,52.48,6.17h7a43.44,43.44,0,0,1,43.58,43.3V96.7C103.1,120.61,75.47,140,56.5,140Z" transform="translate(0)"/><path class="cls-3" d="M108.29,64.08l-3.22-3.66a7.9,7.9,0,0,1-2-5.22l2.86.21a.63.63,0,0,0,.42-1.15l-.65-.47a6.19,6.19,0,0,1-2.63-5.06A47.51,47.51,0,0,0,55.79,1,46.83,46.83,0,0,0,25.1,12.43L20.84,8.32a.71.71,0,0,0-1.12.86l2.4,4.18a.72.72,0,0,1-1.07.91l-2.7-2.11a.71.71,0,0,0-1.06.92L20,17.58A47.72,47.72,0,0,0,8.48,48.73V65.44l21-30.79A410.75,410.75,0,0,0,72.36,55.11a.55.55,0,0,0,.72-.72l-1.72-4.27a.56.56,0,0,1,.83-.66l10.9,7.3A37,37,0,0,0,100.3,63v0l7.32,2.11a.64.64,0,0,0,.66-1" transform="translate(0)"/><path class="cls-4" d="M108.29,64.08l-3.22-3.66a7.9,7.9,0,0,1-2-5.22l2.86.21a.63.63,0,0,0,.42-1.15l-.65-.47a6.19,6.19,0,0,1-2.63-5.06A47.51,47.51,0,0,0,55.79,1,46.85,46.85,0,0,0,25.1,12.43L20.84,8.32a.71.71,0,0,0-1.12.86l2.4,4.18a.72.72,0,0,1-1.07.91l-2.7-2.11a.71.71,0,0,0-1.06.92L20,17.58A47.72,47.72,0,0,0,8.48,48.73V65.44l21-30.79A410.75,410.75,0,0,0,72.36,55.11a.55.55,0,0,0,.72-.72l-1.72-4.27a.56.56,0,0,1,.83-.66l10.9,7.3A36.85,36.85,0,0,0,100.3,63v0l7.32,2.11A.64.64,0,0,0,108.29,64.08Z" transform="translate(0)"/><path class="cls-3" d="M29.06,60.63h9.63a11.34,11.34,0,0,1,11.38,11.3V94.18a6.44,6.44,0,0,0,6.41,6.47" transform="translate(0)"/><path class="cls-4" d="M29.06,60.63h9.63a11.34,11.34,0,0,1,11.38,11.3V94.18a6.44,6.44,0,0,0,6.41,6.47" transform="translate(0)"/><path class="cls-3" d="M62.32,71.93a11.34,11.34,0,0,1,11.37-11.3h8.46" transform="translate(0)"/><path class="cls-4" d="M62.32,71.93a11.34,11.34,0,0,1,11.37-11.3h8.47" transform="translate(0)"/><path class="cls-3" d="M82.89,75.16a7.42,7.42,0,1,1-14.83,0" transform="translate(0)"/><path class="cls-5" d="M82.89,75.16a7.42,7.42,0,1,1-14.83,0" transform="translate(0)"/><path class="cls-3" d="M43.94,75.16a7.42,7.42,0,1,1-14.83,0" transform="translate(0)"/><path class="cls-5" d="M43.94,75.16a7.42,7.42,0,1,1-14.83,0" transform="translate(0)"/><line class="cls-3" x1="24.87" y1="75.16" x2="28.68" y2="75.16"/><line class="cls-5" x1="24.87" y1="75.16" x2="28.68" y2="75.16"/><line class="cls-3" x1="24.87" y1="79.05" x2="29" y2="77.33"/><line class="cls-5" x1="24.87" y1="79.05" x2="29" y2="77.33"/><line class="cls-3" x1="27.46" y1="81.86" x2="30.16" y2="79.15"/><line class="cls-5" x1="27.46" y1="81.86" x2="30.16" y2="79.15"/><line class="cls-3" x1="86.71" y1="75.16" x2="82.9" y2="75.16"/><line class="cls-5" x1="86.71" y1="75.16" x2="82.9" y2="75.16"/><line class="cls-3" x1="86.71" y1="79.05" x2="82.58" y2="77.33"/><line class="cls-5" x1="86.71" y1="79.05" x2="82.58" y2="77.33"/><line class="cls-3" x1="84.11" y1="81.86" x2="81.42" y2="79.15"/><line class="cls-5" x1="84.11" y1="81.86" x2="81.42" y2="79.15"/><line class="cls-3" x1="25.53" y1="12.04" x2="29.5" y2="34.65"/><line class="cls-5" x1="25.53" y1="12.04" x2="29.5" y2="34.65"/><path class="cls-3" d="M70.55,110.82a14.55,14.55,0,0,1-29.1,0Z" transform="translate(0)"/><path class="cls-4" d="M70.55,110.82a14.55,14.55,0,0,1-29.1,0Z" transform="translate(0)"/></g></g></g></svg>