<?xml version="1.0" encoding="utf-8"?>
<!-- Generator: Adobe Illustrator 23.0.2, SVG Export Plug-In . SVG Version: 6.00 Build 0)  -->
<svg version="1.1" id="Layer_1" xmlns="http://www.w3.org/2000/svg" xmlns:xlink="http://www.w3.org/1999/xlink" x="0px" y="0px"
	 viewBox="0 0 234.6 182.7" style="enable-background:new 0 0 234.6 182.7;" xml:space="preserve">
<style type="text/css">
	.st0{fill:#FFFFFF;}
	.st1{clip-path:url(#SVGID_2_);}
	.st2{fill:none;stroke:#E65265;stroke-width:1.67;stroke-linecap:round;stroke-miterlimit:10;}
	.st3{clip-path:url(#SVGID_4_);}
	.st4{fill:#FFFFFF;stroke:#E65265;stroke-width:2;stroke-miterlimit:10;}
	.st5{fill:#FFFFFF;stroke:#E65265;stroke-width:2;stroke-linecap:round;stroke-miterlimit:10;}
	.st6{fill:#FFFFFF;stroke:#E65265;stroke-width:1.97;stroke-miterlimit:10;}
	.st7{fill:none;stroke:#E65265;stroke-width:2;stroke-miterlimit:10;}
	.st8{fill:none;stroke:#E65265;stroke-width:2;stroke-linecap:round;stroke-miterlimit:10;}
	.st9{fill:#E65265;}
</style>
<rect x="104.3" y="4.7" class="st0" width="23" height="37.4"/>
<rect x="104.1" y="26.5" class="st0" width="11.6" height="11.6"/>
<rect x="58" y="28.1" class="st0" width="53.7" height="63.1"/>
<g>
	<path class="st0" d="M61.2,158.3c-5.4,0-8.3-11.5-8.3-22.4c0-9.5,2.2-19.6,6.4-21.9c-0.1-0.1-0.1-0.2-0.2-0.4
		c-4.8-2-8.2-6.7-8.2-12.2v-6c0-6.9,5.3-12.5,12-13.1c0.7-23.3,16.5-36.6,30.7-43.9l21.2-32.5V5C103.6,5.3,83.8,7.3,69,17.7
		c-13.7,9.7-21.3,25.7-18.8,39.8c0.1,0.4,0.1,0.7,0.2,1.1c0.5,2.6,1,5.5-0.2,8c-0.7,1.4-1.8,2.5-2.9,3.5c-0.7,0.7-1.4,1.3-1.9,2
		c-2.2,2.9-1.9,6.7-1.6,10.7c0.3,3.6,0.6,7.4-1,10.8c-0.6,1.3-1.5,2.5-2.3,3.6c-1.2,1.6-2.3,3.1-2.6,4.9c-0.4,2.2,0.6,4.3,1.6,6.5
		c0.8,1.9,1.7,3.8,1.8,5.8c0.3,3.3-1.2,6.3-2.6,9.1c-1.1,2.3-2.2,4.4-2.5,6.7c-0.3,2.6,0.4,5.1,1.2,7.8c0.8,3,1.7,6,1.1,9.1
		c-0.3,1.8-1.1,3.4-1.8,4.9c-0.5,1.1-1,2.2-1.3,3.3c-0.4,1.1-0.5,2.4-0.6,3.6c-0.2,6.2,5.1,11.5,11.8,11.7c1.8,0.1,3.5,0.5,5,1.4
		c0.6,0.4,1.3,0.8,2,1.2c3,1.9,5.2,3.1,6.6,1.7c0.1-0.1,0.3-0.2,0.4-0.2c0.4-0.7,1.1-1.3,2-1.6c2-0.7,4.5,0,6,0.8
		c0.3,0.2,0.6,0.3,0.9,0.5c1.9,1.1,3.8,2.2,5.5,1.6c0.5-0.2,1-0.6,1.6-1c0.7-0.6,1.5-1.2,2.6-1.4c2.1-0.5,3.8,0.7,5.4,1.7
		c1.4,0.9,2.6,1.7,3.9,1.5c0.7-0.2,1.4-0.7,2.1-1.3c0.7-0.6,1.4-1.2,2.3-1.5c2.5-1,5.1,0.4,7.3,1.6c2.6,1.4,4.2,2.1,5.6,1.2
		c1.4-0.9,1.6-3.2,1.5-5.3l-0.4-15.7c0-0.1,0-0.2,0.1-0.3c-14.9-3.9-30.3-15.6-38.3-30.4c0.6,3.3,0.9,6.9,0.9,10.5
		C69.5,146.8,66.6,158.3,61.2,158.3z"/>
	<path class="st0" d="M143.3,78.6c-3.9,0-7.3,2.7-8.4,6.3l16.8,0.3C150.8,81.4,147.4,78.6,143.3,78.6z"/>
	<path class="st0" d="M188.8,173.1c-1.5,0-2.9,0.4-4.1,1.1c-0.6,0.3-1.2,0.7-1.9,1.1c-1.9,1.2-4.1,2.6-6.2,2.6
		c-0.9,0-1.7-0.3-2.5-0.9c-0.4,0-0.8-0.2-0.9-0.6c-0.2-0.5-0.5-0.8-1.1-1c-1.1-0.4-3-0.1-4.4,0.7c-0.3,0.2-0.6,0.3-0.9,0.5
		c-2.2,1.3-4.7,2.7-7.2,1.7c-0.8-0.3-1.4-0.8-2.1-1.3c-0.6-0.5-1.2-0.9-1.8-1.1c-1.2-0.3-2.5,0.6-3.9,1.5c-1.6,1-3.3,2.2-5.4,1.7
		c-1.2-0.3-2.1-1-2.9-1.7c-0.6-0.5-1.2-1-1.8-1.2c-1.7-0.6-3.6,0.4-5.7,1.5c-1.6,0.9-3.4,1.8-5.2,1.8c-0.8,0-1.7-0.2-2.5-0.7
		c-2.2-1.5-2.5-4.3-2.4-7l0.4-15.7c0,0,0,0,0,0c-2.8,0.6-5.5,1-8.1,1h-1.2c-2.7,0-5.6-0.3-8.4-1l0.4,15.5c0.1,2.6-0.2,5.5-2.4,7
		c-0.8,0.5-1.6,0.7-2.5,0.7c-1.8,0-3.6-1-5.2-1.8c-2-1.1-4-2.1-5.7-1.5c-0.6,0.2-1.2,0.7-1.8,1.2c-0.8,0.7-1.7,1.4-2.9,1.7
		c-2,0.5-3.8-0.7-5.4-1.7c-1.4-0.9-2.7-1.8-3.9-1.5c-0.6,0.1-1.2,0.6-1.8,1.1c-0.6,0.5-1.3,1-2.1,1.3c-2.6,1-5-0.4-7.2-1.7
		c-0.3-0.2-0.6-0.3-0.9-0.5c-1.5-0.8-3.3-1.1-4.4-0.7c-0.5,0.2-0.9,0.5-1.1,1c-0.2,0.4-0.5,0.6-0.9,0.6c-0.8,0.6-1.6,0.9-2.5,0.9
		c-2.1,0-4.3-1.4-6.2-2.6c-0.6-0.4-1.3-0.8-1.9-1.1c-1.2-0.7-2.6-1.1-4.1-1.1c-7.7-0.2-13.9-6.4-13.7-13.7c0-1.4,0.3-2.8,0.7-4.2
		c0.4-1.2,0.9-2.4,1.4-3.5c0.7-1.5,1.4-2.9,1.6-4.5c0.5-2.7-0.3-5.4-1.1-8.3c-0.8-2.8-1.6-5.6-1.2-8.6c0.3-2.6,1.5-5,2.7-7.3
		c1.4-2.7,2.7-5.3,2.4-8.1c-0.1-1.7-0.9-3.4-1.7-5.2c-1.1-2.4-2.2-4.9-1.7-7.7c0.4-2.2,1.7-4,3-5.8c0.8-1.1,1.6-2.1,2.1-3.3
		c1.4-2.9,1.1-6.2,0.8-9.8c-0.3-4.2-0.6-8.5,2-12.1c0.6-0.9,1.4-1.6,2.2-2.3c1-0.9,1.9-1.8,2.5-2.9c1-2,0.5-4.4,0.1-6.8
		c-0.1-0.4-0.1-0.8-0.2-1.1C45.7,43,53.6,26.2,67.9,16.1C83.6,5,104.8,3.2,116,3c0,0,0,0,0,0c0.5,0,1,0.4,1,1c0,0.2-0.1,0.4-0.2,0.6
		c0,0,0,0,0,0v27.9l-0.8,0.1c-0.2,0-12.3,2.3-24.7,9.4L65,82.4H65v1.1c0,0.1,0.1,0.2,0.1,0.3l0,0L78.2,84l-1.7-0.7
		c-0.5-0.2-0.7-0.8-0.5-1.3c0.2-0.5,0.8-0.7,1.3-0.5l4.5,1.9c0.1-0.2,0.1-0.3,0.2-0.4l-3.5-3.6c-0.4-0.4-0.4-1,0-1.4
		c0.4-0.4,1-0.4,1.4,0l3.1,3.2c2-2.7,5.1-4.5,8.7-4.5c4.8,0,8.9,3.3,10.3,7.7l11.2,0.2l1.2-11.7c0-0.5,0.1-0.9,0-1.3
		c0-0.3-0.1-6.2-5.3-8.5c-9.3-4.1-18.7-3.8-28.7,0.7c-0.5,0.2-1.1,0-1.3-0.5s0-1.1,0.5-1.3c10.5-4.8,20.4-5,30.3-0.7
		c6.4,2.8,6.4,9.9,6.4,10.2c0,0.5,0,1,0,1.6l-1.1,11.5l17.8,0.3c1.2-4.7,5.4-8.2,10.4-8.2c3.4,0,6.4,1.6,8.4,4.1l2.8-2.8
		c0.4-0.4,1-0.4,1.4,0c0.4,0.4,0.4,1,0,1.4l-3.1,3.1c0.2,0.3,0.3,0.7,0.5,1.1l5-2.1c0.5-0.2,1.1,0,1.3,0.5c0.2,0.5,0,1.1-0.5,1.3
		l-4.6,1.9l15.7,0.3l0.1-1.4v-1c0,0,0.1,0,0.1,0c0-0.2,0-0.4,0-0.6l-13.1-20.1c0,0.1,0,0.2-0.1,0.3c-0.2,0.5-0.8,0.7-1.3,0.5
		c-8.6-3.5-18.3-2.5-26,2.6c-0.2,0.1-0.4,0.2-0.5,0.2c-0.3,0-0.6-0.2-0.8-0.4c-0.3-0.5-0.2-1.1,0.3-1.4c8.2-5.4,18.6-6.5,27.7-2.8
		l-12.6-19.3c-12.3-7.1-24.4-9.3-24.6-9.4c-0.5-0.1-0.8-0.5-0.8-1V4.8C118.1,4.6,118,4.3,118,4c0-0.5,0.4-1,1-1c0,0,0,0,0,0
		c19.1,0.2,36.7,5.1,48.3,13.3c14.3,10.1,22.2,26.9,19.6,41.8c-0.1,0.4-0.1,0.7-0.2,1.1c-0.5,2.4-0.9,4.8,0.1,6.8
		c0.5,1.1,1.5,2,2.5,2.9c0.7,0.7,1.5,1.4,2.2,2.3c2.6,3.5,2.3,7.9,2,12.1c-0.3,3.5-0.5,6.9,0.8,9.8c0.5,1.1,1.3,2.2,2.1,3.3
		c1.3,1.7,2.6,3.5,3,5.8c0.5,2.7-0.6,5.2-1.7,7.7c-0.8,1.8-1.5,3.5-1.7,5.2c-0.2,2.8,1.1,5.4,2.4,8.1c1.2,2.3,2.3,4.7,2.7,7.3
		c0.3,2.9-0.5,5.8-1.2,8.6c-0.8,2.9-1.6,5.6-1.1,8.3c0.3,1.5,0.9,3,1.6,4.5c0.5,1.1,1.1,2.3,1.4,3.5c0.4,1.3,0.6,2.7,0.7,4.2
		C202.7,166.7,196.5,172.8,188.8,173.1z M172.9,30.9H60.4v65.5h112.5V30.9z"/>
	<path class="st0" d="M91.7,78.6c-3.6,0-6.7,2.3-8.1,5.5l16.2,0.3C98.6,81,95.5,78.6,91.7,78.6z"/>
	<path class="st0" d="M141.6,38.7c14.3,7.3,30.3,20.9,30.7,44.6c5.9,0.9,9.5,5.4,9.5,12.2l-0.4,6.1c0,4.1-2,7.8-5,10.2
		c0,0.8-0.2,1.5-0.6,2.1c4.3,2.1,6.7,12.3,6.7,22c0,10.9-2.9,22.4-8.3,22.4s-8.3-11.5-8.3-22.4c0-3.6,0.3-7.4,1-10.7
		c-3.2,5.7-7.6,11.2-13.1,16.2c-7.8,7-17,12.1-25.6,14.5c0.1,0.2,0.2,0.3,0.1,0.5l-0.4,15.7c-0.1,2.1,0.1,4.3,1.5,5.3
		c1.4,0.9,3.1,0.2,5.6-1.2c2.2-1.2,4.8-2.6,7.3-1.6c0.9,0.3,1.6,0.9,2.3,1.5c0.7,0.6,1.3,1.1,2.1,1.3c1.2,0.3,2.5-0.6,3.9-1.5
		c1.6-1,3.4-2.2,5.4-1.7c1,0.2,1.9,0.9,2.6,1.4c0.5,0.4,1,0.8,1.6,1c1.7,0.7,3.6-0.5,5.5-1.6c0.3-0.2,0.6-0.4,0.9-0.5
		c1.5-0.8,4-1.6,6-0.8c0.9,0.3,1.5,0.8,2,1.6c0.2,0,0.3,0.1,0.4,0.2c1.4,1.4,3.5,0.2,6.6-1.7c0.7-0.4,1.3-0.8,2-1.2
		c1.5-0.8,3.2-1.3,5-1.4c6.7-0.2,11.9-5.4,11.8-11.7c0-1.3-0.2-2.5-0.6-3.6c-0.3-1.1-0.8-2.2-1.3-3.3c-0.7-1.6-1.5-3.2-1.8-4.9
		c-0.6-3.1,0.3-6.2,1.1-9.1c0.8-2.7,1.5-5.2,1.2-7.8c-0.3-2.3-1.3-4.4-2.5-6.7c-1.4-2.9-2.9-5.8-2.6-9.1c0.2-2.1,1-4,1.8-5.8
		c1-2.3,1.9-4.4,1.6-6.5c-0.3-1.8-1.4-3.3-2.6-4.9c-0.8-1.1-1.7-2.3-2.3-3.6c-1.6-3.4-1.3-7.1-1-10.8c0.3-4,0.6-7.8-1.6-10.7
		c-0.5-0.7-1.2-1.4-1.9-2c-1.1-1-2.2-2.1-2.9-3.5c-1.3-2.6-0.7-5.5-0.2-8c0.1-0.4,0.1-0.7,0.2-1.1c2.5-14.1-5-30.2-18.8-39.8
		c-11-7.8-27.7-12.5-45.9-12.9v1.2L141.6,38.7z"/>
	<path class="st0" d="M63,107.4C63,107.4,63,107.4,63,107.4c-0.1-1-0.1-2-0.1-3l0.1-14.2v-5.8c0,0,0,0,0,0
		c-5.7,0.5-10.1,5.3-10.1,11.1v6c0,4.2,2.4,7.9,5.8,9.8C59,109.1,60.8,107.4,63,107.4z"/>
	<path class="st9" d="M64.9,83.3c0,0.1,0.1,0.1,0.1,0.2v-1.1H65l0,0C64.9,82.7,64.9,83,64.9,83.3z"/>
	<path class="st9" d="M51.9,101.5v-6c0-6.3,4.9-11.5,11-12.1c0-0.3,0-0.7,0-1c-6.7,0.6-12,6.2-12,13.1v6c0,5.5,3.4,10.2,8.2,12.2
		c-0.2-0.4-0.3-0.8-0.4-1.3C54.7,110.4,51.9,106.3,51.9,101.5z"/>
	<path class="st9" d="M51.9,95.5v6c0,4.8,2.8,8.9,6.8,10.9c0-0.2-0.1-0.4-0.1-0.6c0-0.2,0-0.3,0-0.5c-3.5-1.9-5.8-5.6-5.8-9.8v-6
		c0-5.8,4.5-10.6,10.1-11.1c-0.1-0.1-0.1-0.3-0.1-0.4c0-0.2,0-0.4,0-0.6C56.8,84,51.9,89.1,51.9,95.5z"/>
	<path class="st9" d="M63.1,84.5C63.1,84.5,63.1,84.4,63.1,84.5l-0.1,5.7L63.1,84.5z"/>
	<path class="st0" d="M175.9,109.7c2.2-2,3.6-4.9,3.6-8.2l0.4-6.1c0-5.4-2.7-9.1-7.2-10c0,0.1,0,0.1,0,0.2v18.9c0,1-0.1,2-0.1,3
		C174,107.6,175.2,108.5,175.9,109.7z"/>
	<path class="st0" d="M170.8,85.1c-0.2,0-0.4,0-0.6,0v-1l-0.1,1.4l0.6,0C170.7,85.4,170.7,85.3,170.8,85.1z"/>
	<path class="st9" d="M170.3,84.1C170.3,84.1,170.3,84.1,170.3,84.1c0-0.3,0-0.7,0-1c0,0-0.1,0-0.1,0v1l0,0
		C170.3,84.1,170.3,84.1,170.3,84.1z"/>
	<path class="st9" d="M180.8,95.5l-0.4,6c0,3.7-1.6,6.9-4.2,9.2c0.1,0.4,0.2,0.7,0.2,1.1c0,0,0,0,0,0c3-2.4,5-6.1,5-10.2l0.4-6.1
		c0-6.7-3.7-11.3-9.5-12.2c0,0.3,0,0.5,0,0.8c0,0.1,0,0.1,0,0.2C177.7,85.2,180.8,89.5,180.8,95.5z"/>
	<path class="st9" d="M170.8,85.1c0,0,0.1-0.1,0.1-0.1c-0.3-0.2-0.6-0.5-0.6-0.9c0,0-0.1,0-0.1,0l0,0v1
		C170.4,85.1,170.6,85.1,170.8,85.1z"/>
	<path class="st9" d="M172.7,85.4c4.5,1,7.2,4.6,7.2,10l-0.4,6.1c0,3.2-1.4,6.1-3.6,8.2c0.2,0.3,0.3,0.6,0.4,1
		c2.6-2.2,4.2-5.5,4.2-9.2l0.4-6c0-6-3.1-10.3-8.6-11.2c0,0.1-0.1,0.2-0.1,0.4C172.4,84.8,172.6,85.1,172.7,85.4z"/>
	<path class="st0" d="M63.1,109.4C63,109.4,63,109.4,63.1,109.4c-1.3,0-2.4,1.1-2.4,2.4c0,0.1,0,0.2,0,0.3c0.8,0.2,1.6,0.4,2.4,0.5
		V109.4z"/>
	<path class="st0" d="M61.2,113.3c0.1,0.1,0.2,0.2,0.2,0.3c0.6,0,1.2,0.2,1.8,0.6c0.3,0,0.6-0.1,0.8-0.2c0-0.1,0-0.2-0.1-0.3
		C63,113.6,62.1,113.5,61.2,113.3z"/>
	<path class="st0" d="M63.2,109.4c-0.1,0-0.1,0-0.2,0v3.2c-0.8-0.1-1.6-0.2-2.4-0.5c0.1,0.4,0.2,0.8,0.5,1.2
		c0.9,0.2,1.8,0.3,2.8,0.3C63.7,112.2,63.4,110.8,63.2,109.4z"/>
	<path class="st9" d="M59.1,113.7c0.1,0.1,0.1,0.2,0.2,0.4c0.1-0.1,0.2-0.1,0.3-0.2C59.5,113.8,59.3,113.7,59.1,113.7z"/>
	<path class="st9" d="M64.4,115.1c0-0.1,0-0.1,0-0.2c0,0-0.1,0-0.1,0C64.3,115,64.3,115,64.4,115.1z"/>
	<path class="st9" d="M63,108.4C63,108.4,63,108.4,63,108.4l0-0.8c0-0.1,0-0.1,0-0.2c0,0,0,0,0,0c-2.2,0-4,1.7-4.3,3.8
		c0.3,0.2,0.6,0.3,0.9,0.5C59.7,109.9,61.2,108.4,63,108.4z"/>
	<path class="st9" d="M60.2,113.6c-0.2-0.2-0.3-0.5-0.4-0.8c-0.4-0.1-0.8-0.3-1.1-0.5c0.1,0.4,0.2,0.9,0.4,1.3
		c0.2,0.1,0.4,0.1,0.5,0.2C59.8,113.8,60,113.7,60.2,113.6z"/>
	<path class="st9" d="M63.1,107.6v0.8c0,0,0.1,0,0.1,0C63.1,108.2,63.1,107.9,63.1,107.6z"/>
	<path class="st9" d="M59.7,111.7c-0.3-0.1-0.6-0.3-0.9-0.5c0,0.2,0,0.3,0,0.5c0,0.2,0,0.4,0.1,0.6c0.4,0.2,0.7,0.3,1.1,0.5
		C59.7,112.5,59.7,112.2,59.7,111.7C59.7,111.8,59.7,111.8,59.7,111.7z"/>
	<path class="st9" d="M64,114.6c-0.1,0-0.1,0-0.2,0c0.1,0.1,0.2,0.2,0.3,0.3c0,0,0.1,0,0.1,0c0-0.1,0-0.2-0.1-0.3H64z"/>
	<path class="st9" d="M63,109.4C63,109.4,63,109.4,63,109.4l0-1c0,0,0,0,0,0c-1.8,0-3.3,1.5-3.4,3.3c0.3,0.1,0.7,0.3,1,0.4
		c0-0.1,0-0.2,0-0.3C60.6,110.5,61.7,109.4,63,109.4z"/>
	<path class="st9" d="M61.5,113.5c-0.1-0.1-0.2-0.2-0.2-0.3c-0.5-0.1-0.9-0.2-1.3-0.4c0.1,0.3,0.2,0.5,0.4,0.8
		c0.3-0.1,0.6-0.1,0.9-0.1C61.3,113.5,61.4,113.5,61.5,113.5z"/>
	<path class="st9" d="M63.9,114.6c0.1,0,0.1,0,0.2,0h0.2c-0.1-0.2-0.1-0.5-0.2-0.7c-0.3,0.1-0.5,0.2-0.8,0.2
		C63.4,114.3,63.7,114.4,63.9,114.6z"/>
	<path class="st9" d="M60.7,112.1c-0.3-0.1-0.7-0.2-1-0.4c0,0,0,0,0,0c0,0.4,0.1,0.8,0.2,1.1c0.4,0.2,0.9,0.3,1.3,0.4
		C60.9,113,60.7,112.6,60.7,112.1z"/>
	<path class="st9" d="M63.2,109.4c0-0.3-0.1-0.7-0.1-1c0,0-0.1,0-0.1,0v1C63.1,109.4,63.2,109.4,63.2,109.4z"/>
	<path class="st0" d="M171.9,114.1c0.1,0,0.2,0,0.3,0c0,0,0,0,0,0c0.2-0.1,0.4-0.2,0.6-0.3C172.4,113.9,172.2,114,171.9,114.1z"/>
	<path class="st0" d="M173.7,113.6c0.1-0.1,0.1-0.1,0.2-0.2c-0.2,0.1-0.5,0.2-0.7,0.3C173.3,113.6,173.5,113.6,173.7,113.6z"/>
	<path class="st0" d="M174.3,110.9c-0.3-0.8-1.1-1.4-2-1.5c-0.1,0.9-0.3,1.8-0.5,2.6C172.8,111.8,173.6,111.4,174.3,110.9z"/>
	<path class="st0" d="M171.4,114c0.1,0,0.3,0.1,0.4,0.1c0.3-0.1,0.6-0.2,0.9-0.3c0.1-0.1,0.3-0.1,0.4-0.1c0.2-0.1,0.5-0.2,0.7-0.3
		c0.4-0.4,0.6-0.9,0.6-1.4c-0.9,0.5-1.8,0.9-2.8,1.2C171.6,113.5,171.5,113.7,171.4,114z"/>
	<path class="st0" d="M171.6,113.2c1-0.3,2-0.7,2.8-1.2c0-0.1,0-0.1,0-0.2c0-0.3-0.1-0.6-0.2-0.9c-0.8,0.5-1.6,0.9-2.4,1.2
		C171.8,112.4,171.7,112.8,171.6,113.2z"/>
	<path class="st9" d="M174.9,113.6c0.3,0.1,0.6,0.2,0.9,0.3c0.4-0.6,0.6-1.4,0.6-2.1c-0.3,0.3-0.7,0.5-1.1,0.8
		C175.3,112.9,175.1,113.3,174.9,113.6z"/>
	<path class="st9" d="M175.1,110.3c0.3-0.2,0.5-0.4,0.8-0.6c-0.7-1.2-1.9-2.1-3.4-2.2c0,0.3-0.1,0.6-0.1,1
		C173.6,108.6,174.6,109.3,175.1,110.3z"/>
	<path class="st9" d="M176.3,110.6c-0.3,0.2-0.6,0.5-0.9,0.7c0,0.1,0,0.3,0,0.4c0,0.3,0,0.5-0.1,0.8c0.4-0.2,0.7-0.5,1.1-0.8
		c0,0,0,0,0,0C176.5,111.4,176.4,111,176.3,110.6z"/>
	<path class="st9" d="M175.4,111.3c0.3-0.2,0.6-0.4,0.9-0.7c-0.1-0.3-0.2-0.7-0.4-1c-0.2,0.2-0.5,0.4-0.8,0.6
		C175.3,110.6,175.4,111,175.4,111.3z"/>
	<path class="st9" d="M173.7,113.6c0.2,0,0.4-0.1,0.6-0.1c0.2,0,0.5,0,0.7,0.1c0.2-0.3,0.4-0.7,0.4-1c-0.5,0.3-1,0.6-1.5,0.8
		C173.8,113.5,173.7,113.5,173.7,113.6z"/>
	<path class="st9" d="M172.1,114.2c-0.1,0-0.2,0-0.3,0c-0.2,0-0.3,0.1-0.5,0.1c-0.1,0.2-0.1,0.5-0.2,0.7
		C171.5,114.6,171.8,114.4,172.1,114.2C172.2,114.1,172.1,114.2,172.1,114.2z"/>
	<path class="st9" d="M174.3,110.9c0.3-0.2,0.6-0.4,0.8-0.6c-0.5-1-1.5-1.8-2.7-1.9c0,0.3-0.1,0.6-0.1,1
		C173.2,109.5,174,110.1,174.3,110.9z"/>
	<path class="st9" d="M171.4,114c0,0.1,0,0.1-0.1,0.2c0.2,0,0.3-0.1,0.5-0.1C171.7,114.1,171.6,114.1,171.4,114z"/>
	<path class="st9" d="M173.9,113.4c0.5-0.2,1-0.5,1.5-0.8c0.1-0.2,0.1-0.5,0.1-0.8c0-0.2,0-0.3,0-0.4c-0.3,0.2-0.6,0.4-1,0.6
		C174.4,112.5,174.2,113,173.9,113.4z"/>
	<path class="st9" d="M174.3,110.9c0.1,0.3,0.2,0.6,0.2,0.9c0,0.1,0,0.1,0,0.2c0.3-0.2,0.6-0.4,1-0.6c0-0.4-0.1-0.7-0.3-1
		C174.9,110.5,174.6,110.7,174.3,110.9z"/>
	<path class="st0" d="M121.1,135.1c7.6,0,13.8-5.9,14.3-13.3h-28.6C107.3,129.2,113.5,135.1,121.1,135.1z"/>
	<path class="st0" d="M65,107.3c0,0.2,0,0.5,0.1,0.7c1.3,0.7,2.3,2.2,2.3,3.8c0,1-0.4,2-1,2.7c5.7,20,27.2,40.8,50.8,40.8h1.2
		c17.6,0,44.2-17.6,50.8-40.4c-0.1-0.1-0.2-0.2-0.3-0.4c-0.2,0-0.3,0-0.5,0v-0.7c-0.3-0.6-0.6-1.3-0.6-2.1c0-1,0.3-1.8,0.8-2.5
		l1.5-23.7l-15.7-0.3l-0.5,0.2c0.1,0.4,0.1,0.7,0.2,1.1h4.6c0.5,0,1,0.4,1,1s-0.4,1-1,1h-5c-0.1,0-0.2,0-0.3-0.1
		c-0.1,0-0.2,0.1-0.3,0.1c-0.5,0-1-0.4-1-1c0-0.8-0.1-1.6-0.3-2.3l-16.8-0.3c-0.3,0.8-0.4,1.7-0.4,2.6c0,0.5-0.4,1-1,1s-1-0.4-1-1
		c0-0.9,0.1-1.8,0.3-2.7l-17.8-0.3l-1.4,14.2c-0.1,0.9-0.1,1.6,0.1,2.3c0.6,3.1,3,5.3,5.8,5.3h5.3c0.5,0,1,0.4,1,1s-0.4,1-1,1h-5.3
		c-3.7,0-6.9-2.8-7.8-6.9c-0.2-0.9-0.2-1.9-0.1-2.9l1.4-14.1L102,84.4c0.3,1,0.5,2.1,0.5,3.2c0,0.5-0.4,1-1,1s-1-0.4-1-1
		c0-1.1-0.2-2.2-0.6-3.2l-16.2-0.3c-0.4,1.1-0.7,2.2-0.7,3.5c0,0.5-0.4,1-1,1c0,0,0,0,0,0s0,0,0,0h-5c-0.5,0-1-0.4-1-1s0.4-1,1-1H81
		c0-0.4,0.1-0.9,0.2-1.3l-3-1.3l-13.1-0.2L65,90.2V107.3z M151.6,109.5c0.4-0.4,1-0.4,1.4,0c0.4,0.4,0.4,1,0,1.4
		c-1.1,1.1-1.1,3,0,4.2c0.4,0.4,0.4,1,0,1.4c-0.2,0.2-0.4,0.3-0.7,0.3c-0.3,0-0.5-0.1-0.7-0.3C149.7,114.5,149.7,111.4,151.6,109.5z
		 M104.8,119.7h32.6v1c0,9-7.3,16.3-16.3,16.3s-16.3-7.3-16.3-16.3V119.7z M84.2,110.9c-0.4-0.4-0.4-1,0-1.4c0.4-0.4,1-0.4,1.4,0
		c1.9,1.9,1.9,5,0,6.9c-0.2,0.2-0.4,0.3-0.7,0.3c-0.3,0-0.5-0.1-0.7-0.3c-0.4-0.4-0.4-1,0-1.4C85.4,113.9,85.4,112,84.2,110.9z"/>
	<path class="st0" d="M65,107.3v-17l-0.1,14.2C64.9,105.4,64.9,106.3,65,107.3z"/>
	<path class="st0" d="M170.5,107.7c0.1-1.1,0.2-2.2,0.2-3.3V85.5c0,0,0,0,0,0l-0.6,0l-1.5,23.7C169.1,108.6,169.8,108,170.5,107.7z"
		/>
	<path class="st0" d="M168.3,114.6c0.2,0,0.3,0,0.5,0c-0.2-0.2-0.4-0.5-0.5-0.7V114.6z"/>
	<path class="st0" d="M66.4,111.8c0,0.5-0.1,1-0.3,1.5c0.1,0.4,0.2,0.8,0.3,1.3c0.6-0.7,1-1.7,1-2.7c0-1.6-0.9-3.1-2.3-3.8
		c0,0.4,0.1,0.9,0.2,1.3C65.9,109.9,66.4,110.8,66.4,111.8z"/>
	<path class="st0" d="M66.4,111.8c0-1-0.4-1.9-1.1-2.5c0.2,1.3,0.4,2.6,0.8,3.9C66.3,112.8,66.4,112.3,66.4,111.8z"/>
	<path class="st0" d="M169.8,111.8c0,0.2,0,0.4,0.1,0.6c0.1-0.7,0.3-1.3,0.4-2C169.9,110.8,169.8,111.3,169.8,111.8z"/>
	<path class="st0" d="M168.8,114.6c0.1,0.1,0.2,0.2,0.3,0.4c0-0.1,0.1-0.3,0.1-0.4C169.1,114.6,169,114.6,168.8,114.6z"/>
	<path class="st0" d="M168.4,112.6l0.2-3.4c-0.5,0.7-0.8,1.6-0.8,2.5c0,0.8,0.2,1.5,0.6,2.1L168.4,112.6
		C168.4,112.6,168.4,112.6,168.4,112.6z"/>
	<path class="st0" d="M168.9,112.6c-0.1-0.3-0.1-0.5-0.1-0.8c0-1.2,0.7-2.3,1.7-2.9c0-0.4,0.1-0.8,0.1-1.2c-0.8,0.3-1.4,0.8-1.9,1.5
		l-0.2,3.4C168.6,112.6,168.7,112.6,168.9,112.6z"/>
	<path class="st0" d="M169.5,113.8c-0.1-0.1-0.1-0.2-0.2-0.2c-0.3,0-0.6,0-1,0h0l0.1-1c0,0,0,0-0.1,0v1.2c0.1,0.3,0.3,0.5,0.5,0.7
		c0.2,0,0.3,0,0.5,0C169.4,114.3,169.4,114.1,169.5,113.8z"/>
	<path class="st0" d="M168.4,112.6l-0.1,1h0c0.3,0,0.6,0,1,0c-0.2-0.3-0.3-0.6-0.4-1C168.7,112.6,168.6,112.6,168.4,112.6z"/>
	<path class="st0" d="M169.8,112.4c0-0.2-0.1-0.4-0.1-0.6c0-0.5,0.2-1,0.5-1.4c0.1-0.5,0.2-1,0.2-1.5c-1,0.6-1.7,1.6-1.7,2.9
		c0,0.3,0,0.6,0.1,0.8c0.3,0,0.6,0,0.9-0.1C169.8,112.5,169.8,112.4,169.8,112.4z"/>
	<path class="st0" d="M169.3,113.6c0.1,0.1,0.1,0.2,0.2,0.2c0-0.1,0-0.2,0.1-0.3C169.5,113.6,169.4,113.6,169.3,113.6z"/>
	<path class="st0" d="M169.8,112.5c-0.3,0-0.6,0.1-0.9,0.1c0.1,0.3,0.2,0.7,0.4,1c0.1,0,0.2,0,0.2,0
		C169.6,113.2,169.7,112.9,169.8,112.5z"/>
	<path class="st9" d="M66.3,118.1c-0.3-0.9-0.6-1.8-0.9-2.7c-0.2,0.1-0.4,0.2-0.6,0.3C65.4,116.3,65.9,117.1,66.3,118.1z"/>
	<path class="st9" d="M65.1,83.8L65.1,83.8c0-0.1,0-0.2-0.1-0.3L65.1,83.8L65.1,83.8z"/>
	<path class="st9" d="M127.4,155.3C127.4,155.3,127.5,155.3,127.4,155.3c0.4,0,0.7,0.2,0.8,0.5c8.6-2.3,17.8-7.4,25.6-14.5
		c5.5-4.9,9.9-10.4,13.1-16.2c0.3-1.5,0.7-3,1.1-4.3c-9,20-32.4,35.4-49.6,35.4h-1.2c-18.7,0-41.2-15.4-49.8-35.4
		c0.4,1.4,0.8,2.9,1.1,4.5c8,14.8,23.4,26.5,38.3,30.4c0.1-0.4,0.5-0.7,0.9-0.7c0,0,0,0,0,0c0.5,0,1,0.4,1,1l0,0.2
		c2.9,0.6,5.7,1,8.4,1h1.2c2.6,0,5.3-0.3,8.1-1C126.5,155.8,126.9,155.3,127.4,155.3z"/>
	<path class="st9" d="M169.3,117.6c0.4-0.7,0.7-1.3,1.1-1.8c-0.2-0.1-0.3-0.2-0.5-0.2C169.8,116.2,169.6,116.9,169.3,117.6z"/>
	<path class="st9" d="M63,107.4C63,107.4,63,107.4,63,107.4l0-17.2l-0.1,14.2C62.9,105.5,63,106.4,63,107.4z"/>
	<path class="st9" d="M64.9,83.8l0.1,0v-0.3c0-0.1-0.1-0.1-0.1-0.2C64.9,83.4,64.9,83.6,64.9,83.8z"/>
	<path class="st9" d="M64.1,84.9C64.1,84.9,64.1,84.9,64.1,84.9L64,90.3L64.1,84.9z"/>
	<path class="st9" d="M64,107.6C64,107.6,64,107.6,64,107.6L64,107.6C64,107.6,64,107.6,64,107.6z"/>
	<path class="st9" d="M63.1,84.5l-0.1,5.7v17.2c0.3,0,0.7,0.1,1,0.1v0c-0.1-1-0.1-2.1-0.1-3.1L64,90.3v-5.4c0,0-0.1,0-0.1,0
		C63.6,84.9,63.3,84.8,63.1,84.5z"/>
	<path class="st9" d="M171.7,104.5c0,1-0.1,2-0.1,3c0.2,0,0.4-0.1,0.6-0.1c0.1,0,0.3,0,0.4,0c0.1-1,0.1-2,0.1-3V85.5
		c0-0.1,0-0.1,0-0.2c-0.6-0.1-1.2-0.2-1.9-0.2c0,0.1-0.1,0.2-0.1,0.4l1,0V104.5z"/>
	<path class="st9" d="M172.1,84.7c-0.2,0.3-0.5,0.5-0.8,0.5c-0.2,0-0.3,0-0.4-0.1c0,0-0.1,0.1-0.1,0.1c0.6,0,1.3,0.1,1.9,0.2
		C172.6,85.1,172.4,84.8,172.1,84.7z"/>
	<path class="st9" d="M64,113.6C64,113.6,64,113.6,64,113.6c0,0.1,0,0.2,0,0.3c0.3-0.2,0.6-0.4,0.8-0.7c-0.3-1.1-0.5-2.3-0.6-3.4
		c-0.1,0-0.2-0.1-0.2-0.1V113.6z"/>
	<path class="st9" d="M64,113.6v-4c-0.2-0.1-0.5-0.2-0.8-0.2C63.4,110.8,63.7,112.2,64,113.6C64,113.6,64,113.6,64,113.6z"/>
	<path class="st9" d="M65,114.5v0.2h-0.2c-0.2,0.1-0.3,0.2-0.5,0.3c0,0.1,0,0.1,0,0.2c0.2,0.2,0.4,0.4,0.5,0.6
		c0.2-0.1,0.4-0.2,0.6-0.3c-0.1-0.3-0.2-0.7-0.3-1C65.1,114.4,65.1,114.4,65,114.5z"/>
	<path class="st9" d="M63.1,107.6v-0.2c0,0,0,0,0,0C63,107.5,63.1,107.5,63.1,107.6z"/>
	<path class="st9" d="M65,114.6v-0.2c-0.1,0.1-0.1,0.1-0.2,0.2H65z"/>
	<path class="st9" d="M64,108.6c0,0,0.1,0,0.1,0c0-0.4-0.1-0.7-0.1-1.1c0,0,0,0,0,0V108.6z"/>
	<path class="st9" d="M63.1,108.4c0.3,0,0.6,0.1,0.9,0.2v-1c-0.3-0.1-0.6-0.1-1-0.1v0.2C63.1,107.9,63.1,108.2,63.1,108.4z"/>
	<path class="st9" d="M64.3,114.9c0.2-0.1,0.3-0.2,0.5-0.3h-0.6C64.3,114.7,64.3,114.8,64.3,114.9z"/>
	<path class="st9" d="M65,114.5c0.1,0,0.1-0.1,0.2-0.1c-0.1-0.2-0.1-0.4-0.2-0.7V114.5z"/>
	<path class="st9" d="M64.9,113.2c-0.2,0.3-0.5,0.5-0.8,0.7c0.1,0.2,0.1,0.5,0.2,0.7h0.6c0.1,0,0.2-0.1,0.2-0.2v-0.8
		C65,113.5,65,113.4,64.9,113.2z"/>
	<path class="st9" d="M64.3,109.8c-0.1-0.4-0.1-0.8-0.1-1.1c0,0-0.1,0-0.1,0v1C64.1,109.7,64.2,109.7,64.3,109.8z"/>
	<path class="st9" d="M63.2,109.4c0.3,0,0.6,0.1,0.8,0.2v-1c-0.3-0.1-0.6-0.2-0.9-0.2C63.2,108.8,63.2,109.1,63.2,109.4z"/>
	<path class="st9" d="M171.9,112.1c0.2-0.9,0.3-1.8,0.5-2.6c-0.1,0-0.1,0-0.2,0c-0.3,0-0.5,0.1-0.8,0.1c-0.1,0.9-0.3,1.9-0.5,2.8
		C171.2,112.3,171.5,112.2,171.9,112.1z"/>
	<path class="st9" d="M171.6,113.2c-0.3,0.1-0.7,0.2-1.1,0.2c0,0,0,0.1,0,0.1c0.3,0.2,0.6,0.4,0.9,0.5
		C171.5,113.7,171.6,113.5,171.6,113.2z"/>
	<path class="st9" d="M170.8,112.4c-0.1,0.4-0.2,0.7-0.3,1.1c0.4-0.1,0.7-0.2,1.1-0.2c0.1-0.4,0.2-0.7,0.3-1.1
		C171.5,112.2,171.2,112.3,170.8,112.4z"/>
	<path class="st9" d="M171.1,115c-0.3-0.1-0.6-0.2-0.9-0.4c-0.1,0.3-0.2,0.6-0.3,1c0.1,0.1,0.3,0.2,0.5,0.2
		C170.7,115.5,170.9,115.2,171.1,115z"/>
	<path class="st9" d="M172.4,108.5c0-0.3,0.1-0.7,0.1-1c-0.1,0-0.3,0-0.4,0c-0.2,0-0.4,0-0.6,0.1c0,0.3-0.1,0.7-0.1,1
		c0.2,0,0.4-0.1,0.7-0.1C172.2,108.4,172.3,108.4,172.4,108.5z"/>
	<path class="st9" d="M171.2,114.9c0.1-0.2,0.1-0.5,0.2-0.7c-0.3,0.1-0.7,0.1-1.1,0.2c0,0,0,0.1,0,0.1
		C170.6,114.8,170.8,114.9,171.2,114.9C171.2,115,171.2,115,171.2,114.9z"/>
	<path class="st9" d="M172.1,109.4c0.1,0,0.1,0,0.2,0c0-0.3,0.1-0.6,0.1-1c-0.1,0-0.2,0-0.3,0c-0.2,0-0.5,0-0.7,0.1
		c0,0.4-0.1,0.7-0.1,1.1C171.6,109.5,171.9,109.4,172.1,109.4z"/>
	<path class="st9" d="M170.5,113.5c-0.1,0.3-0.1,0.6-0.2,0.9c0.4-0.1,0.7-0.1,1.1-0.2c0-0.1,0-0.1,0.1-0.2
		C171.1,113.9,170.8,113.8,170.5,113.5z"/>
	<path class="st9" d="M170,115.5c-0.3-0.2-0.6-0.4-0.8-0.6c-6.6,22.7-33.2,40.4-50.8,40.4h-1.2c-23.7,0-45.1-20.8-50.8-40.8
		c-0.3,0.3-0.6,0.6-0.9,0.9c0.3,0.9,0.5,1.8,0.9,2.7c0.4,0.9,0.8,1.8,1.1,2.9c8.6,20,31.1,35.4,49.8,35.4h1.2
		c17.2,0,40.7-15.4,49.6-35.4c0.4-1.2,0.8-2.3,1.3-3.2C169.6,116.9,169.8,116.2,170,115.5z"/>
	<polygon class="st9" points="65,90.2 65.1,83.8 65,83.8 	"/>
	<path class="st9" d="M65.1,108c0-0.2,0-0.5-0.1-0.7L65.1,108C65,108,65.1,108,65.1,108z"/>
	<path class="st9" d="M64.1,84.9L64,90.3v17.3c0,0,0,0,0,0c0.3,0.1,0.7,0.2,1,0.4v-0.7c-0.1-0.9-0.1-1.9-0.1-2.8L65,90.2v-6.5
		l-0.1,0c0,0.1,0,0.1,0,0.2C64.9,84.4,64.6,84.8,64.1,84.9z"/>
	<path class="st9" d="M64,107.6V90.3l-0.1,14.2C63.9,105.5,64,106.5,64,107.6z"/>
	<path class="st9" d="M171.7,104.5V85.5l-1,0c0,0,0,0,0,0v18.9c0,1.1-0.1,2.2-0.2,3.3c0.3-0.1,0.7-0.2,1-0.2
		C171.6,106.5,171.7,105.5,171.7,104.5z"/>
	<path class="st9" d="M65.4,111.8c0-0.5-0.1-0.9-0.4-1.3v2.5C65.3,112.7,65.4,112.2,65.4,111.8z"/>
	<path class="st9" d="M65,113v-2.5c-0.2-0.3-0.4-0.6-0.7-0.7c0.2,1.1,0.4,2.3,0.6,3.4C65,113.1,65,113.1,65,113z"/>
	<path class="st9" d="M65.2,114.3c0.1,0.3,0.2,0.7,0.3,1c0.4-0.2,0.7-0.5,0.9-0.9c-0.1-0.4-0.2-0.8-0.3-1.3
		C65.8,113.7,65.5,114,65.2,114.3z"/>
	<path class="st9" d="M65,109.1c0.1,0.1,0.2,0.1,0.2,0.2c-0.1-0.4-0.1-0.9-0.2-1.3c0,0,0,0-0.1,0V109.1z"/>
	<path class="st9" d="M65,109.1v-1.1c-0.3-0.2-0.6-0.3-1-0.4c0,0.4,0.1,0.7,0.1,1.1C64.5,108.7,64.8,108.9,65,109.1z"/>
	<path class="st9" d="M65.4,111.8c0,0.5-0.1,0.9-0.4,1.3v0.6c0.1,0.2,0.1,0.4,0.2,0.7c0.4-0.3,0.7-0.7,0.9-1.1
		c-0.3-1.3-0.6-2.6-0.8-3.9c-0.1-0.1-0.2-0.1-0.2-0.2v1.4C65.3,110.9,65.4,111.3,65.4,111.8z"/>
	<path class="st9" d="M64.3,109.8c0.3,0.2,0.6,0.4,0.7,0.7v-1.4c-0.3-0.2-0.6-0.4-0.9-0.5C64.2,109,64.2,109.4,64.3,109.8z"/>
	<path class="st9" d="M65,113.7V113c0,0.1-0.1,0.1-0.1,0.2C65,113.4,65,113.5,65,113.7z"/>
	<path class="st9" d="M170.8,112.4c0.2-0.9,0.4-1.9,0.5-2.8c-0.5,0.2-0.9,0.5-1.1,0.8c-0.1,0.7-0.2,1.3-0.4,2c0,0.1,0,0.1,0,0.2
		C170.2,112.5,170.5,112.4,170.8,112.4z"/>
	<path class="st9" d="M170.4,113.4c0,0,0.1,0.1,0.1,0.1c0,0,0-0.1,0-0.1C170.5,113.4,170.5,113.4,170.4,113.4z"/>
	<path class="st9" d="M170.8,112.4c-0.3,0.1-0.6,0.1-0.9,0.2c0.1,0.3,0.3,0.7,0.5,0.9c0,0,0.1,0,0.1,0
		C170.7,113.1,170.8,112.7,170.8,112.4z"/>
	<path class="st9" d="M170.3,114.6c-0.1,0-0.1-0.1-0.1-0.1c-0.3,0-0.6,0.1-0.9,0.1c0,0.1-0.1,0.3-0.1,0.4c0.2,0.2,0.5,0.4,0.8,0.6
		C170.1,115.2,170.2,114.9,170.3,114.6z"/>
	<path class="st9" d="M171.5,108.5c0-0.3,0.1-0.7,0.1-1c-0.4,0-0.7,0.1-1,0.2c0,0.4-0.1,0.8-0.1,1.2
		C170.7,108.7,171.1,108.6,171.5,108.5z"/>
	<path class="st9" d="M169.5,113.8c-0.1,0.2-0.1,0.5-0.2,0.7c0.3,0,0.6-0.1,0.9-0.1C169.9,114.3,169.7,114.1,169.5,113.8z"/>
	<path class="st9" d="M170.1,114.5c0,0,0.1,0.1,0.1,0.1c0,0,0-0.1,0-0.1C170.3,114.5,170.2,114.5,170.1,114.5z"/>
	<path class="st9" d="M169.8,112.4c0,0.1,0,0.1,0,0.2c0,0,0.1,0,0.1,0C169.9,112.5,169.9,112.4,169.8,112.4z"/>
	<path class="st9" d="M171.3,109.5c0-0.4,0.1-0.7,0.1-1.1c-0.4,0.1-0.7,0.2-1,0.4c-0.1,0.5-0.1,1-0.2,1.5
		C170.5,110,170.9,109.7,171.3,109.5z"/>
	<path class="st9" d="M170.5,113.5c0,0-0.1-0.1-0.1-0.1c-0.3,0.1-0.6,0.1-0.9,0.1c0,0.1,0,0.2-0.1,0.3c0.2,0.2,0.4,0.5,0.7,0.7
		c0.1,0,0.1,0,0.2,0C170.4,114.1,170.5,113.8,170.5,113.5z"/>
	<path class="st9" d="M169.8,112.5c-0.1,0.3-0.2,0.7-0.3,1c0.3,0,0.6-0.1,0.9-0.1C170.2,113.2,170,112.9,169.8,112.5
		C169.9,112.5,169.8,112.5,169.8,112.5z"/>
	<path class="st9" d="M121.1,137c9,0,16.3-7.3,16.3-16.3v-1h-32.6v1C104.8,129.7,112.1,137,121.1,137z M135.4,121.7
		c-0.5,7.4-6.7,13.3-14.3,13.3s-13.8-5.9-14.3-13.3H135.4z"/>
	<path class="st9" d="M83.2,84.1l0.5,0c1.3-3.2,4.4-5.5,8.1-5.5c3.7,0,6.9,2.4,8.2,5.7l2.1,0c-1.3-4.5-5.4-7.7-10.3-7.7
		c-3.6,0-6.7,1.8-8.7,4.5l0.4,0.4c0.4,0.4,0.4,1,0,1.4c-0.2,0.2-0.4,0.3-0.7,0.3c-0.3,0-0.5-0.1-0.7-0.3l0,0
		c-0.1,0.1-0.1,0.3-0.2,0.4l1,0.4C82.9,83.8,83.1,84,83.2,84.1z"/>
	<path class="st9" d="M100.5,87.6c0,0.5,0.4,1,1,1s1-0.4,1-1c0-1.1-0.2-2.2-0.5-3.2l-2.1,0C100.3,85.4,100.5,86.4,100.5,87.6z"/>
	<path class="st9" d="M83.3,85.1c-0.2,0.4-0.5,0.6-0.9,0.6c-0.1,0-0.3,0-0.4-0.1l-0.8-0.3c-0.1,0.4-0.2,0.9-0.2,1.3H82
		c0.5,0,1,0.4,1,1c0,0.5-0.4,1-1,1c0,0,0,0,0,0c0.5,0,1-0.4,1-1c0-1.2,0.2-2.4,0.7-3.5l-0.5,0C83.4,84.4,83.4,84.7,83.3,85.1z"/>
	<path class="st9" d="M143.3,78.6c4,0,7.4,2.8,8.4,6.6l0.6,0c0-0.1-0.1-0.1-0.1-0.2c-0.2-0.5,0-1.1,0.5-1.3l0.5-0.2
		c-0.1-0.4-0.3-0.7-0.5-1.1l-0.4,0.4c-0.2,0.2-0.4,0.3-0.7,0.3c-0.2,0-0.5-0.1-0.7-0.3c-0.4-0.4-0.4-1,0-1.4l0.8-0.8
		c-2-2.5-5-4.1-8.4-4.1c-5,0-9.2,3.5-10.4,8.2l2,0C136.1,81.3,139.4,78.6,143.3,78.6z"/>
	<path class="st9" d="M153.2,85.7c-0.3,0-0.6-0.2-0.8-0.4l-0.6,0c0.2,0.7,0.3,1.5,0.3,2.3c0,0.5,0.4,1,1,1c0.1,0,0.2,0,0.3-0.1
		c-0.4-0.1-0.7-0.5-0.7-0.9c0-0.5,0.4-1,1-1h0.4c0-0.4-0.1-0.7-0.2-1.1l-0.3,0.1C153.5,85.6,153.3,85.7,153.2,85.7z"/>
	<path class="st9" d="M133.6,88.5c0.5,0,1-0.4,1-1c0-0.9,0.1-1.8,0.4-2.6l-2,0c-0.2,0.9-0.3,1.7-0.3,2.7
		C132.6,88.1,133,88.5,133.6,88.5z"/>
	<path class="st9" d="M153.4,88.5c0.1,0,0.2,0.1,0.3,0.1h5c0.5,0,1-0.4,1-1s-0.4-1-1-1H154c0,0.3,0,0.7,0,1
		C154.1,88,153.8,88.4,153.4,88.5z"/>
	<path class="st9" d="M152.6,87.6c0,0.4,0.3,0.8,0.7,0.9c0.4-0.1,0.7-0.5,0.7-0.9c0-0.3,0-0.7,0-1h-0.4
		C153.1,86.6,152.6,87,152.6,87.6z"/>
	<path class="st9" d="M154.4,85.3l4.6-1.9c0.5-0.2,0.7-0.8,0.5-1.3c-0.2-0.5-0.8-0.7-1.3-0.5l-5,2.1c0.2,0.5,0.4,1.1,0.5,1.7
		L154.4,85.3z"/>
	<path class="st9" d="M153.9,85.5l0.5-0.2l-0.6,0C153.8,85.3,153.8,85.4,153.9,85.5z"/>
	<path class="st9" d="M152.3,85.1c0,0.1,0.1,0.1,0.1,0.2l1.4,0c-0.1-0.6-0.3-1.1-0.5-1.7l-0.5,0.2C152.3,84,152.1,84.6,152.3,85.1z"
		/>
	<path class="st9" d="M152.4,85.2c0.2,0.3,0.5,0.4,0.8,0.4c0.1,0,0.3,0,0.4-0.1l0.3-0.1c0-0.1,0-0.2,0-0.2L152.4,85.2z"/>
	<path class="st9" d="M155.9,79.4c0.4-0.4,0.4-1,0-1.4c-0.4-0.4-1-0.4-1.4,0l-2.8,2.8c0.4,0.5,0.8,1.1,1.1,1.7L155.9,79.4z"/>
	<path class="st9" d="M151,83c0.2,0.2,0.4,0.3,0.7,0.3c0.3,0,0.5-0.1,0.7-0.3l0.4-0.4c-0.3-0.6-0.7-1.2-1.1-1.7l-0.8,0.8
		C150.6,82,150.6,82.6,151,83z"/>
	<path class="st9" d="M81,87.6c0-0.3,0-0.7,0-1H77c-0.5,0-1,0.4-1,1s0.4,1,1,1h5c0,0,0,0,0,0C81.4,88.5,81,88.1,81,87.6z"/>
	<path class="st9" d="M83,87.6c0-0.5-0.4-1-1-1H81c0,0.3,0,0.7,0,1c0,0.5,0.4,1,1,1C82.5,88.5,83,88.1,83,87.6z"/>
	<path class="st9" d="M81.8,83.4l-4.5-1.9c-0.5-0.2-1.1,0-1.3,0.5c-0.2,0.5,0,1.1,0.5,1.3l1.7,0.7l3.3,0.1
		C81.7,83.8,81.7,83.6,81.8,83.4z"/>
	<path class="st9" d="M81.6,84.1L78.2,84l3,1.3C81.3,84.9,81.4,84.5,81.6,84.1z"/>
	<path class="st9" d="M83.2,84.1c-0.1-0.1-0.2-0.2-0.4-0.3l-1-0.4c-0.1,0.2-0.2,0.5-0.2,0.7L83.2,84.1z"/>
	<path class="st9" d="M82.4,85.7c0.4,0,0.8-0.2,0.9-0.6c0.1-0.3,0.1-0.7-0.1-1l-1.6,0c-0.1,0.4-0.2,0.8-0.3,1.2l0.8,0.3
		C82.1,85.6,82.3,85.7,82.4,85.7z"/>
	<path class="st9" d="M79.9,78c-0.4-0.4-1-0.4-1.4,0c-0.4,0.4-0.4,1,0,1.4l3.5,3.6c0.3-0.6,0.6-1.2,1-1.8L79.9,78z"/>
	<path class="st9" d="M82.8,83.3c0.2,0,0.5-0.1,0.7-0.3c0.4-0.4,0.4-1,0-1.4l-0.4-0.4c-0.4,0.6-0.7,1.1-1,1.8l0,0
		C82.3,83.2,82.5,83.3,82.8,83.3z"/>
	<path class="st9" d="M128.7,64.3c-0.5,0.3-0.6,0.9-0.3,1.4c0.2,0.3,0.5,0.4,0.8,0.4c0.2,0,0.4-0.1,0.5-0.2c7.7-5.1,17.4-6.1,26-2.6
		c0.5,0.2,1.1,0,1.3-0.5c0-0.1,0-0.2,0.1-0.3l-0.7-1C147.3,57.8,137,58.8,128.7,64.3z"/>
	<path class="st0" d="M54.8,135.9c0,12,3.3,20.4,6.3,20.4s6.3-8.4,6.3-20.4c0-10.2-2.4-17.8-5-19.8c-0.6-0.1-1.1-0.2-1.6-0.5
		C58,116,54.8,124.3,54.8,135.9z"/>
	<path class="st0" d="M60.9,115.5c0.5,0.3,1,0.5,1.6,0.5c-0.5-0.4-0.9-0.6-1.4-0.6C61.1,115.5,61,115.5,60.9,115.5z"/>
	<path class="st9" d="M65.5,118.7c-0.3-1-0.7-1.9-0.9-2.9c-0.2,0.1-0.5,0.2-0.7,0.2C64.5,116.7,65,117.6,65.5,118.7z"/>
	<path class="st9" d="M68.5,135.9c0,11.8-3.3,21.4-7.3,21.4c-4,0-7.3-9.6-7.3-21.4c0-10.6,2.6-19.4,6.1-21.1
		c-0.2-0.2-0.4-0.5-0.6-0.8c-4.2,2.3-6.4,12.4-6.4,21.9c0,10.9,2.9,22.4,8.3,22.4s8.3-11.5,8.3-22.4c0-3.6-0.3-7.2-0.9-10.5
		c-0.8-1.4-1.5-2.9-2.1-4.4C67.7,124.9,68.5,130.1,68.5,135.9z"/>
	<path class="st9" d="M63,114.2c0.1,0,0.1,0,0.2,0c-0.6-0.3-1.1-0.5-1.8-0.6C61.9,113.9,62.4,114.2,63,114.2z"/>
	<path class="st9" d="M60.7,114.2c-0.3-0.1-0.7-0.2-1-0.3c-0.1,0.1-0.2,0.1-0.3,0.2c0.2,0.3,0.4,0.6,0.6,0.8
		c0.4-0.2,0.8-0.3,1.2-0.3C60.9,114.4,60.8,114.3,60.7,114.2z"/>
	<path class="st9" d="M64.2,114.9c-0.4,0.1-0.8,0.2-1.2,0.2c0,0-0.1,0-0.1,0c0.3,0.2,0.7,0.5,1,0.9c0.2,0,0.5-0.1,0.7-0.2
		c-0.1-0.3-0.2-0.5-0.2-0.8C64.3,115,64.3,115,64.2,114.9z"/>
	<path class="st9" d="M60.2,113.6c-0.2,0.1-0.4,0.1-0.6,0.2c0.3,0.1,0.7,0.2,1,0.3C60.5,114,60.4,113.8,60.2,113.6z"/>
	<path class="st9" d="M60.7,114.2c0.1,0.1,0.3,0.3,0.4,0.4c0,0,0.1,0,0.1,0c0.6,0,1.2,0.2,1.7,0.6c0,0,0.1,0,0.1,0
		c0.4,0,0.8-0.1,1.2-0.2c-0.1-0.1-0.2-0.2-0.3-0.3C62.8,114.6,61.7,114.4,60.7,114.2z"/>
	<path class="st9" d="M63.2,114.1c-0.1,0-0.1,0-0.2,0c-0.6,0-1.2-0.2-1.6-0.6c-0.1,0-0.2,0-0.3,0c-0.3,0-0.6,0-0.9,0.1
		c0.1,0.2,0.3,0.4,0.4,0.5c1,0.3,2.1,0.4,3.2,0.5C63.7,114.4,63.4,114.3,63.2,114.1z"/>
	<path class="st9" d="M64.9,115.7c-0.1,0-0.2,0.1-0.3,0.1c0.3,1,0.6,1.9,0.9,2.9c0.3,0.7,0.6,1.5,0.9,2.3c0.6,1.5,1.3,3,2.1,4.4
		c-0.3-1.6-0.7-3.2-1.1-4.5c-0.4-0.9-0.8-1.9-1.1-2.9C65.9,117.1,65.4,116.3,64.9,115.7z"/>
	<path class="st9" d="M64.4,115.1c0.1,0.3,0.2,0.5,0.2,0.8c0.1,0,0.2-0.1,0.3-0.1C64.7,115.5,64.5,115.2,64.4,115.1z"/>
	<path class="st9" d="M67.4,120.9c-0.3-1-0.7-2-1.1-2.9C66.7,119,67,120,67.4,120.9z"/>
	<path class="st9" d="M63,116.1c-0.2,0-0.3,0-0.5,0c2.6,2.1,5,9.6,5,19.8c0,12-3.3,20.4-6.3,20.4s-6.3-8.4-6.3-20.4
		c0-11.7,3.1-19.9,6.1-20.4c-0.3-0.2-0.7-0.4-1-0.7c-3.5,1.7-6.1,10.5-6.1,21.1c0,11.8,3.3,21.4,7.3,21.4c4,0,7.3-9.6,7.3-21.4
		c0-5.8-0.8-11-2.1-14.9c-0.3-0.8-0.6-1.6-0.9-2.3c-0.5-1.1-1-2-1.6-2.7C63.6,116.1,63.3,116.1,63,116.1z"/>
	<path class="st9" d="M60.9,115.5c0.1,0,0.2,0,0.3,0c0.5,0,0.9,0.2,1.4,0.6c0.2,0,0.3,0,0.5,0c0.3,0,0.6,0,0.9-0.1
		c-0.3-0.4-0.7-0.7-1-0.9c-0.7,0-1.3-0.2-1.8-0.6c-0.4,0-0.8,0.1-1.2,0.3C60.2,115.1,60.6,115.3,60.9,115.5z"/>
	<path class="st9" d="M61.1,114.5c0.5,0.4,1.1,0.6,1.8,0.6C62.3,114.7,61.8,114.5,61.1,114.5C61.1,114.5,61.1,114.5,61.1,114.5z"/>
	<path class="st9" d="M65.5,118.7c0.3,0.8,0.6,1.6,0.9,2.3C66.2,120.2,65.8,119.4,65.5,118.7z"/>
	<path class="st0" d="M167.9,135.9c0,12,3.3,20.4,6.3,20.4s6.3-8.4,6.3-20.4c0-11.9-3.3-20.3-6.3-20.4c-0.4,0.3-0.9,0.4-1.4,0.5
		C170.3,118.1,167.9,125.6,167.9,135.9z"/>
	<path class="st0" d="M174.2,115.5c-0.4,0-0.9,0.2-1.3,0.5C173.4,115.9,173.9,115.8,174.2,115.5
		C174.3,115.5,174.3,115.5,174.2,115.5z"/>
	<path class="st9" d="M170.9,115.9c-0.2,0.8-0.5,1.6-0.8,2.4c0.4-0.9,0.9-1.6,1.4-2.2C171.3,116,171.1,116,170.9,115.9z"/>
	<path class="st9" d="M174.2,158.3c5.4,0,8.3-11.5,8.3-22.4c0-9.7-2.3-19.9-6.7-22c-0.2,0.3-0.4,0.6-0.6,0.8
		c3.5,1.5,6.3,10.4,6.3,21.2c0,11.8-3.3,21.4-7.3,21.4c-4,0-7.3-9.6-7.3-21.4c0-5.8,0.8-11,2.1-14.9c-0.6,1.4-1.3,2.8-2.1,4.1
		c-0.6,3.3-1,7.1-1,10.7C165.9,146.8,168.8,158.3,174.2,158.3z"/>
	<path class="st9" d="M172.7,113.8c-0.2,0.1-0.4,0.2-0.6,0.3c0.6,0,1.1-0.2,1.5-0.6c-0.2,0-0.4,0.1-0.5,0.1
		C173,113.8,172.9,113.8,172.7,113.8z"/>
	<path class="st9" d="M172.7,113.8c0.1,0,0.3-0.1,0.4-0.1C173,113.7,172.9,113.8,172.7,113.8z"/>
	<path class="st9" d="M172.6,115.1c-0.1,0-0.3,0-0.4,0c-0.3,0-0.7-0.1-1-0.2c-0.1,0.3-0.2,0.6-0.3,0.9c0.2,0.1,0.4,0.1,0.6,0.1
		C171.9,115.7,172.2,115.3,172.6,115.1z"/>
	<path class="st9" d="M174,114.5c0.1,0,0.1,0,0.2,0c0.4,0,0.7,0.1,1,0.2c0.2-0.3,0.4-0.5,0.6-0.8c-0.3-0.1-0.6-0.3-0.9-0.3
		C174.7,114,174.4,114.3,174,114.5z"/>
	<path class="st9" d="M173.7,113.6c-0.4,0.3-0.9,0.6-1.5,0.6c-0.3,0.2-0.7,0.5-1,0.8c0,0,0,0,0,0c0.3,0.1,0.6,0.2,1,0.2
		c0.2,0,0.3,0,0.4,0c0.5-0.3,1-0.5,1.5-0.6c0.4-0.3,0.7-0.6,0.9-0.9c-0.2,0-0.5-0.1-0.7-0.1C174,113.5,173.8,113.5,173.7,113.6z"/>
	<path class="st9" d="M170.1,118.3c0.3-0.8,0.6-1.6,0.8-2.4c-0.1,0-0.3-0.1-0.4-0.1c-0.4,0.5-0.8,1.1-1.1,1.8
		c-0.4,1.1-0.8,2.2-1.3,3.2c-0.4,1.3-0.8,2.8-1.1,4.3c0.8-1.4,1.5-2.8,2.1-4.1C169.3,120,169.7,119.1,170.1,118.3z"/>
	<path class="st9" d="M171.1,115c-0.2,0.2-0.5,0.5-0.7,0.8c0.1,0.1,0.3,0.1,0.4,0.1C171,115.6,171.1,115.3,171.1,115
		C171.2,115,171.2,115,171.1,115z"/>
	<path class="st9" d="M171.1,115C171.2,115,171.2,115,171.1,115C171.2,115,171.2,115,171.1,115C171.2,115,171.2,115,171.1,115z"/>
	<path class="st9" d="M168,120.9c0.5-1.1,0.9-2.2,1.3-3.2C168.8,118.6,168.4,119.7,168,120.9z"/>
	<path class="st9" d="M174.3,115.5c3,0.1,6.3,8.5,6.3,20.4c0,12-3.3,20.4-6.3,20.4s-6.3-8.4-6.3-20.4c0-10.3,2.4-17.9,5-19.9
		c-0.3,0-0.5,0.1-0.8,0.1c-0.2,0-0.4,0-0.6-0.1c-0.5,0.6-1,1.3-1.4,2.2c-0.3,0.9-0.7,1.8-1.1,2.8c-1.3,3.9-2.1,9.1-2.1,14.9
		c0,11.8,3.3,21.4,7.3,21.4c4,0,7.3-9.6,7.3-21.4c0-10.8-2.7-19.7-6.3-21.2C175,115,174.7,115.3,174.3,115.5z"/>
	<path class="st9" d="M174,114.5c-0.4,0.3-0.9,0.5-1.5,0.6c-0.4,0.2-0.7,0.6-1.1,1c0.2,0,0.4,0.1,0.6,0.1c0.3,0,0.5,0,0.8-0.1
		c0.4-0.3,0.9-0.5,1.3-0.5c0,0,0,0,0.1,0c0.4-0.2,0.7-0.5,1-0.8c-0.3-0.1-0.7-0.2-1-0.2C174.2,114.5,174.1,114.5,174,114.5z"/>
	<path class="st9" d="M174,114.5c-0.5,0-1,0.2-1.5,0.6C173.1,115,173.6,114.8,174,114.5z"/>
	<path class="st9" d="M169,121.1c0.4-0.9,0.8-1.8,1.1-2.8C169.7,119.1,169.3,120,169,121.1z"/>
	<path class="st9" d="M116.3,73.1c0.1-0.6,0.1-1.2,0-1.6c0-0.3-0.1-7.4-6.4-10.2C100,57,90.1,57.2,79.6,62c-0.5,0.2-0.7,0.8-0.5,1.3
		s0.8,0.7,1.3,0.5c10-4.5,19.4-4.7,28.7-0.7c5.2,2.3,5.3,8.1,5.3,8.5c0,0.4,0,0.9,0,1.3l-1.2,11.7l2,0L116.3,73.1z"/>
	<path class="st9" d="M111.9,101.6c0.8,4.1,4,6.9,7.8,6.9h5.3c0.5,0,1-0.4,1-1s-0.4-1-1-1h-5.3c-2.8,0-5.2-2.2-5.8-5.3
		c-0.1-0.7-0.2-1.5-0.1-2.3l1.4-14.2l-2,0l-1.4,14.1C111.7,99.7,111.7,100.7,111.9,101.6z"/>
	<path class="st9" d="M84.2,116.4c0.2,0.2,0.4,0.3,0.7,0.3c0.3,0,0.5-0.1,0.7-0.3c1.9-1.9,1.9-5,0-6.9c-0.4-0.4-1-0.4-1.4,0
		c-0.4,0.4-0.4,1,0,1.4c1.1,1.1,1.1,3,0,4.2C83.9,115.4,83.9,116,84.2,116.4z"/>
	<path class="st9" d="M152.3,116.7c0.3,0,0.5-0.1,0.7-0.3c0.4-0.4,0.4-1,0-1.4c-1.1-1.1-1.1-3,0-4.2c0.4-0.4,0.4-1,0-1.4
		c-0.4-0.4-1-0.4-1.4,0c-1.9,1.9-1.9,5,0,6.9C151.8,116.6,152.1,116.7,152.3,116.7z"/>
	<path class="st0" d="M64.9,82.4L64.9,82.4L64.9,82.4C64.9,82.4,64.9,82.4,64.9,82.4z"/>
	<path class="st9" d="M63,82.4c0.3,0,0.7,0,1-0.1c0.7-22.1,15.2-35.1,28.7-42.3l1-1.5C79.5,45.8,63.6,59.1,63,82.4z"/>
	<path class="st9" d="M115.6,5c-0.2,0-0.5,0-0.7,0v1L115.6,5z"/>
	<path class="st9" d="M116.1,5c-0.1,0-0.1,0-0.2,0v26.6c0,0-11.2,2-23.2,8.4L91.4,42c12.3-7.1,24.4-9.3,24.7-9.4l0.8-0.1V4.6
		c0,0,0,0,0,0C116.7,4.8,116.4,5,116.1,5z"/>
	<path class="st9" d="M63.1,84.4C63,84.4,63,84.4,63.1,84.4C63,84.4,63,84.4,63.1,84.4L63.1,84.4z"/>
	<path class="st9" d="M62.9,83.4c0.1,0,0.2,0,0.2,0c0.1-0.3,0.4-0.5,0.7-0.6c0-0.2,0-0.3,0-0.5c-0.3,0-0.7,0-1,0.1
		C63,82.7,62.9,83.1,62.9,83.4z"/>
	<path class="st9" d="M64.9,83.3c0-0.3,0-0.6,0-0.8l-0.3,0.5C64.7,83,64.8,83.1,64.9,83.3z"/>
	<path class="st9" d="M63,84.4C63,84.4,63,84.4,63,84.4L63,84.4c0,0.1,0.1,0.1,0.1,0.1l0-0.7c0-0.1,0-0.3,0.1-0.4
		c-0.1,0-0.2,0-0.2,0c0,0.2,0,0.4,0,0.6C62.9,84.1,63,84.2,63,84.4z"/>
	<path class="st9" d="M63.9,82.8c-0.3,0.1-0.6,0.3-0.7,0.6c0.2,0,0.5,0,0.7,0C63.9,83.2,63.9,83,63.9,82.8z"/>
	<path class="st9" d="M64.6,82.9L64,83.8v1.1c0,0,0,0,0.1,0l0-1.1l0.8,0c0-0.2,0-0.4,0-0.5C64.8,83.1,64.7,83,64.6,82.9z"/>
	<path class="st9" d="M63.1,84.5c0.2,0.3,0.5,0.5,0.8,0.5c0,0,0.1,0,0.1,0v-1.1L63.9,84c0-0.2,0-0.4,0-0.6c-0.2,0-0.5,0-0.7,0
		c0,0.1-0.1,0.2-0.1,0.4L63.1,84.5z"/>
	<path class="st9" d="M64.1,84.9c0.5-0.1,0.8-0.5,0.8-1c0-0.1,0-0.1,0-0.2l-0.8,0L64.1,84.9z"/>
	<path class="st9" d="M64,82.4C64,82.4,64,82.4,64,82.4l1,0C65.6,61.8,78.6,49.3,91.4,42l1.3-1.9C79.1,47.3,64.6,60.2,64,82.4z"/>
	<path class="st9" d="M114.9,30.8c-2.7,0.6-11.6,2.7-21.2,7.7l-1,1.5c12-6.4,23.2-8.4,23.2-8.4V5c-0.1,0-0.2,0-0.3,0l-0.7,1.1V30.8z
		"/>
	<path class="st9" d="M64.1,82.8c0.2,0,0.3,0.1,0.5,0.1l0.3-0.5c0,0,0,0,0,0H64c0,0-0.1,0-0.1,0c0,0.2,0,0.3,0,0.5
		C64,82.8,64.1,82.8,64.1,82.8z"/>
	<path class="st9" d="M64,83.3v0.4l0.5-0.8c-0.1-0.1-0.3-0.1-0.5-0.1c-0.1,0-0.1,0-0.2,0c0,0.2,0,0.4,0,0.5C64,83.3,64,83.3,64,83.3
		z"/>
	<path class="st9" d="M63.9,83.3c0,0.2,0,0.4,0,0.6l0.1-0.2v-0.4C64,83.3,64,83.3,63.9,83.3z"/>
	<path class="st9" d="M60.2,175.5c0.1-0.2,0.2-0.4,0.3-0.6c-0.2,0-0.3,0.1-0.4,0.2c-1.4,1.4-3.5,0.2-6.6-1.7c-0.7-0.4-1.3-0.8-2-1.2
		c-1.5-0.8-3.2-1.3-5-1.4c-6.7-0.2-11.9-5.4-11.8-11.7c0-1.3,0.2-2.5,0.6-3.6c0.3-1.1,0.8-2.2,1.3-3.3c0.7-1.6,1.5-3.2,1.8-4.9
		c0.6-3.1-0.3-6.2-1.1-9.1c-0.8-2.7-1.5-5.2-1.2-7.8c0.3-2.3,1.3-4.4,2.5-6.7c1.4-2.9,2.9-5.8,2.6-9.1c-0.2-2.1-1-4-1.8-5.8
		c-1-2.3-1.9-4.4-1.6-6.5c0.3-1.8,1.4-3.3,2.6-4.9c0.8-1.1,1.7-2.3,2.3-3.6c1.6-3.4,1.3-7.1,1-10.8c-0.3-4-0.6-7.8,1.6-10.7
		c0.5-0.7,1.2-1.4,1.9-2c1.1-1,2.2-2.1,2.9-3.5c1.3-2.6,0.7-5.5,0.2-8c-0.1-0.4-0.1-0.7-0.2-1.1c-2.5-14.1,5-30.2,18.8-39.8
		C83.8,7.3,103.6,5.3,114.9,5V4.6c0-0.5,0.4-1,1-1c0.5,0,1,0.4,1,1C117,4.4,117,4.2,117,4c0-0.5-0.4-1-1-1c0,0,0,0,0,0
		c-11.2,0.1-32.4,2-48.1,13.1C53.6,26.2,45.7,43,48.3,57.9c0.1,0.4,0.1,0.7,0.2,1.1c0.5,2.4,0.9,4.8-0.1,6.8c-0.5,1.1-1.5,2-2.5,2.9
		c-0.7,0.7-1.5,1.4-2.2,2.3c-2.6,3.5-2.3,7.9-2,12.1c0.3,3.5,0.5,6.9-0.8,9.8c-0.5,1.1-1.3,2.2-2.1,3.3c-1.3,1.7-2.6,3.5-3,5.8
		c-0.5,2.7,0.6,5.2,1.7,7.7c0.8,1.8,1.5,3.5,1.7,5.2c0.2,2.8-1.1,5.4-2.4,8.1c-1.2,2.3-2.3,4.7-2.7,7.3c-0.3,2.9,0.5,5.8,1.2,8.6
		c0.8,2.9,1.6,5.6,1.1,8.3c-0.3,1.5-0.9,3-1.6,4.5c-0.5,1.1-1.1,2.3-1.4,3.5c-0.4,1.3-0.6,2.7-0.7,4.2c-0.2,7.3,6,13.4,13.7,13.7
		c1.5,0,2.9,0.4,4.1,1.1c0.6,0.3,1.2,0.7,1.9,1.1c1.9,1.2,4.1,2.6,6.2,2.6c0.9,0,1.7-0.3,2.5-0.9c-0.1,0-0.2,0-0.4-0.1
		C60.3,176.6,60,176,60.2,175.5z"/>
	<path class="st9" d="M115.9,3.6c-0.5,0-1,0.4-1,1V5c0.2,0,0.5,0,0.7,0l0.3-0.4V5c0.1,0,0.1,0,0.2,0c0.3,0,0.6-0.2,0.8-0.4
		C116.9,4,116.4,3.6,115.9,3.6z"/>
	<path class="st9" d="M115.9,4.6L115.6,5c0.1,0,0.2,0,0.3,0V4.6z"/>
	<path class="st9" d="M106.8,156.2l0.4,15.7c0.1,2.1-0.1,4.3-1.5,5.3c-1.4,0.9-3.1,0.2-5.6-1.2c-2.2-1.2-4.8-2.6-7.3-1.6
		c-0.9,0.3-1.6,0.9-2.3,1.5c-0.7,0.6-1.3,1.1-2.1,1.3c-1.2,0.3-2.5-0.6-3.9-1.5c-1.6-1-3.4-2.2-5.4-1.7c-1,0.2-1.9,0.9-2.6,1.4
		c-0.5,0.4-1,0.8-1.6,1c-1.7,0.6-3.6-0.5-5.5-1.6c-0.3-0.2-0.6-0.4-0.9-0.5c-1.5-0.8-4-1.6-6-0.8c-0.9,0.3-1.5,0.8-2,1.6
		c0.3-0.1,0.7,0,1,0.2c0.4,0.4,0.4,1,0,1.4c-0.1,0.1-0.2,0.2-0.3,0.3c0.4,0,0.8-0.2,0.9-0.6c0.2-0.5,0.5-0.8,1.1-1
		c1.1-0.4,3-0.1,4.4,0.7c0.3,0.2,0.6,0.3,0.9,0.5c2.2,1.3,4.7,2.7,7.2,1.7c0.8-0.3,1.4-0.8,2.1-1.3c0.6-0.5,1.2-0.9,1.8-1.1
		c1.2-0.3,2.5,0.6,3.9,1.5c1.6,1,3.3,2.2,5.4,1.7c1.2-0.3,2.1-1,2.9-1.7c0.6-0.5,1.2-1,1.8-1.2c1.7-0.6,3.6,0.4,5.7,1.5
		c1.6,0.9,3.4,1.8,5.2,1.8c0.8,0,1.7-0.2,2.5-0.7c2.2-1.5,2.5-4.3,2.4-7l-0.4-15.5c-0.6-0.1-1.3-0.3-1.9-0.5
		C106.8,156,106.8,156.1,106.8,156.2z"/>
	<path class="st9" d="M107.8,155.2C107.8,155.2,107.8,155.2,107.8,155.2c-0.5,0-0.8,0.3-0.9,0.7c0.6,0.2,1.3,0.3,1.9,0.5l0-0.2
		C108.8,155.6,108.3,155.2,107.8,155.2z"/>
	<path class="st9" d="M61.5,175.2c-0.3-0.3-0.6-0.3-1-0.2c-0.1,0.2-0.2,0.4-0.3,0.6c-0.2,0.5,0,1.1,0.5,1.3c0.1,0,0.2,0.1,0.4,0.1
		c0.1-0.1,0.2-0.2,0.3-0.3C61.8,176.2,61.9,175.6,61.5,175.2z"/>
	<path class="st0" d="M141.6,38.7L120.3,6.2V31C123,31.6,131.9,33.7,141.6,38.7z"/>
	<path class="st0" d="M143.8,42.1l12.6,19.3c0,0,0.1,0,0.1,0c0.4,0.2,0.6,0.6,0.6,1l13.1,20.1C169.7,62,156.6,49.5,143.8,42.1z"/>
	<path class="st0" d="M156.6,61.5C156.5,61.5,156.5,61.5,156.6,61.5l0.6,1C157.2,62.1,157,61.7,156.6,61.5z"/>
	<path class="st9" d="M120.3,6.2V5c-0.3,0-0.5,0-0.8,0L120.3,6.2z"/>
	<path class="st9" d="M141.6,38.7l1,1.5c13.6,7.3,28.3,20.4,28.7,43c0.3,0,0.7,0.1,1,0.1C171.9,59.6,155.9,46,141.6,38.7z"/>
	<path class="st9" d="M170.3,82.6c0,0.2,0,0.4,0,0.6c0.1,0,0.2,0,0.4,0L170.3,82.6z"/>
	<path class="st9" d="M119.4,31.8V5c-0.1,0-0.3,0-0.4,0c-0.2,0-0.4-0.1-0.6-0.2v27.1c0,0.5,0.3,0.9,0.8,1c0.2,0,12.3,2.3,24.6,9.4
		l-1.2-1.9C130.6,33.8,119.4,31.8,119.4,31.8z"/>
	<path class="st9" d="M170.3,84.1c0.7,0,1.3,0.1,1.9,0.2c0-0.1,0-0.1,0-0.2c0-0.3,0-0.5,0-0.8c-0.3,0-0.7-0.1-1-0.1
		c0,0.3,0,0.6,0,0.9l-0.6-1c-0.1,0-0.2,0-0.4,0C170.3,83.5,170.3,83.8,170.3,84.1C170.3,84.1,170.3,84.1,170.3,84.1z"/>
	<path class="st9" d="M171.7,84.6c0.2,0,0.3,0,0.4,0.1c0.1-0.1,0.1-0.2,0.1-0.4c-0.6-0.1-1.3-0.2-1.9-0.2c0,0.4,0.2,0.7,0.6,0.9
		C171.1,84.7,171.4,84.6,171.7,84.6z"/>
	<path class="st9" d="M172.1,84.7c-0.1-0.1-0.3-0.1-0.4-0.1c-0.3,0-0.6,0.2-0.8,0.5c0.1,0.1,0.3,0.1,0.4,0.1
		C171.7,85.1,172,84.9,172.1,84.7z"/>
	<path class="st9" d="M171.3,83.2c-0.4-22.5-15.1-35.6-28.7-43l1.2,1.9c12.8,7.3,25.8,19.8,26.5,40.4l0.4,0.6
		C170.9,83.2,171.1,83.2,171.3,83.2z"/>
	<path class="st9" d="M120.3,31V6.2L119.5,5c-0.1,0-0.1,0-0.2,0v26.8c0,0,11.2,2,23.2,8.4l-1-1.5C131.9,33.7,123,31.6,120.3,31z"/>
	<path class="st9" d="M171.3,84.1c0-0.3,0-0.6,0-0.9c-0.2,0-0.4,0-0.6,0L171.3,84.1z"/>
	<path class="st9" d="M200.4,151.7c-0.7-1.5-1.4-2.9-1.6-4.5c-0.5-2.7,0.3-5.4,1.1-8.3c0.8-2.8,1.6-5.6,1.2-8.6
		c-0.3-2.6-1.5-5-2.7-7.3c-1.4-2.7-2.7-5.3-2.4-8.1c0.1-1.7,0.9-3.4,1.7-5.2c1.1-2.4,2.2-4.9,1.7-7.7c-0.4-2.2-1.7-4-3-5.8
		c-0.8-1.1-1.6-2.1-2.1-3.3c-1.4-2.9-1.1-6.2-0.8-9.8c0.3-4.2,0.6-8.5-2-12.1c-0.6-0.9-1.4-1.6-2.2-2.3c-1-0.9-1.9-1.8-2.5-2.9
		c-1-2-0.5-4.4-0.1-6.8c0.1-0.4,0.1-0.8,0.2-1.1c2.6-14.9-5.2-31.7-19.6-41.8C155.7,8.1,138.1,3.3,119,3c0,0,0,0,0,0
		c-0.5,0-1,0.4-1,1c0,0.3,0.1,0.6,0.4,0.8v0c0-0.5,0.4-1,1-1s1,0.4,1,1V5c18.2,0.4,34.8,5.1,45.9,12.9c13.7,9.7,21.3,25.7,18.8,39.8
		c-0.1,0.4-0.1,0.7-0.2,1.1c-0.5,2.6-1,5.5,0.2,8c0.7,1.4,1.8,2.5,2.9,3.5c0.7,0.7,1.4,1.3,1.9,2c2.2,2.9,1.9,6.7,1.6,10.7
		c-0.3,3.6-0.6,7.4,1,10.8c0.6,1.3,1.5,2.5,2.3,3.6c1.2,1.6,2.3,3.1,2.6,4.9c0.4,2.2-0.6,4.3-1.6,6.5c-0.8,1.9-1.7,3.8-1.8,5.8
		c-0.3,3.3,1.2,6.3,2.6,9.1c1.1,2.3,2.2,4.4,2.5,6.7c0.3,2.6-0.4,5.1-1.2,7.8c-0.8,3-1.7,6-1.1,9.1c0.3,1.8,1.1,3.4,1.8,4.9
		c0.5,1.1,1,2.2,1.3,3.3c0.4,1.1,0.5,2.4,0.6,3.6c0.2,6.2-5.1,11.5-11.8,11.7c-1.8,0.1-3.5,0.5-5,1.4c-0.6,0.4-1.3,0.8-2,1.2
		c-3,1.9-5.1,3.1-6.6,1.7c-0.1-0.1-0.3-0.2-0.4-0.2c0.1,0.2,0.2,0.4,0.3,0.6c0.2,0.5,0,1.1-0.5,1.3c-0.1,0-0.2,0.1-0.4,0.1
		c0.8,0.6,1.6,0.9,2.5,0.9c2.1,0,4.3-1.4,6.2-2.6c0.6-0.4,1.3-0.8,1.9-1.1c1.2-0.7,2.6-1.1,4.1-1.1c7.7-0.2,13.9-6.4,13.7-13.7
		c0-1.4-0.3-2.8-0.7-4.2C201.4,154,200.9,152.8,200.4,151.7z"/>
	<path class="st9" d="M119.4,5V4.7l0.2,0.3c0.3,0,0.5,0,0.8,0V4.7c0-0.5-0.4-1-1-1s-1,0.4-1,1v0c0.2,0.1,0.4,0.2,0.6,0.2
		C119.1,5,119.2,5,119.4,5z"/>
	<path class="st9" d="M119.4,4.7V5c0.1,0,0.1,0,0.2,0L119.4,4.7z"/>
	<path class="st9" d="M173.8,175.4c0.3-0.3,0.6-0.3,1-0.2c-0.4-0.7-1.1-1.3-2-1.6c-2-0.7-4.5,0-6,0.8c-0.3,0.2-0.6,0.3-0.9,0.5
		c-1.9,1.1-3.8,2.2-5.5,1.6c-0.5-0.2-1-0.6-1.6-1c-0.7-0.6-1.5-1.2-2.6-1.4c-2.1-0.5-3.9,0.7-5.4,1.7c-1.4,0.9-2.6,1.7-3.9,1.5
		c-0.7-0.2-1.4-0.7-2.1-1.3c-0.7-0.6-1.4-1.2-2.3-1.5c-2.5-1-5.1,0.4-7.3,1.6c-2.5,1.4-4.2,2.1-5.6,1.2c-1.4-0.9-1.6-3.2-1.5-5.3
		l0.4-15.7c0-0.2-0.1-0.4-0.1-0.5c-0.6,0.2-1.2,0.3-1.8,0.5c0,0,0,0,0,0l-0.4,15.7c-0.1,2.6,0.2,5.5,2.4,7c0.8,0.5,1.6,0.7,2.5,0.7
		c1.8,0,3.6-1,5.2-1.8c2-1.1,4-2.1,5.7-1.5c0.6,0.2,1.2,0.7,1.8,1.2c0.8,0.7,1.7,1.4,2.9,1.7c2,0.5,3.8-0.7,5.4-1.7
		c1.4-0.9,2.6-1.8,3.9-1.5c0.6,0.1,1.2,0.6,1.8,1.1c0.6,0.5,1.3,1,2.1,1.3c2.6,1,5-0.4,7.2-1.7c0.3-0.2,0.6-0.3,0.9-0.5
		c1.5-0.8,3.3-1.1,4.4-0.7c0.5,0.2,0.9,0.5,1.1,1c0.2,0.4,0.5,0.6,0.9,0.6c-0.1-0.1-0.2-0.2-0.3-0.3
		C173.4,176.4,173.4,175.8,173.8,175.4z"/>
	<path class="st9" d="M127.5,155.3C127.5,155.3,127.4,155.3,127.5,155.3c-0.6,0-1,0.4-1,1c0.6-0.1,1.2-0.3,1.8-0.5
		C128.1,155.6,127.8,155.3,127.5,155.3z"/>
	<path class="st9" d="M175,175.7c-0.1-0.2-0.2-0.4-0.3-0.6c-0.3-0.1-0.7,0-1,0.2c-0.4,0.4-0.4,1,0,1.4c0.1,0.1,0.2,0.2,0.3,0.3
		c0.1,0,0.2,0,0.4-0.1C175,176.8,175.2,176.2,175,175.7z"/>
</g>
</svg>
